<svg width="100" height="21" viewBox="0 0 100 21" fill="none" xmlns="http://www.w3.org/2000/svg">
    <g clip-path="url(#clip0_685_911)">
    <path d="M2.6008 2.81184H4.7481C6.71064 2.81184 7.57548 3.44165 7.57548 4.72099C7.57548 5.83276 6.71064 6.58766 4.97468 6.58766H2.6008V2.81184ZM0 15.3912H5.26286C8.02866 15.3912 10.7945 14.3878 10.7945 11.1578C10.7945 9.24869 9.47644 7.78305 7.63971 7.571V7.52685C9.14249 7.06963 10.1789 5.95819 10.1789 4.28049C10.1789 1.57531 7.90548 0.548828 5.6966 0.548828H0V15.3912ZM2.6008 8.85067H5.09786C7.203 8.85067 8.19728 9.39652 8.19728 10.9491C8.19728 12.8961 6.33519 13.1282 4.99412 13.1282H2.6008V8.85067Z" fill="black"/>
    <path d="M13.8301 15.3911V0.211426" stroke="black" stroke-width="2.49903" stroke-miterlimit="10"/>
    <path d="M19.3465 10.1641C19.3465 8.60783 20.4428 7.17733 22.2625 7.17733C24.0821 7.17733 25.1751 8.60816 25.1751 10.1641C25.1751 11.7201 24.0821 13.1513 22.2625 13.1513C20.4425 13.1513 19.3465 11.7204 19.3465 10.1641ZM16.8652 10.1641C16.8652 13.2976 19.2621 15.3912 22.2625 15.3912C25.2592 15.3912 27.6597 13.2979 27.6597 10.1641C27.6597 7.03034 25.2596 4.93408 22.2625 4.93408C19.2621 4.93375 16.8652 7.03067 16.8652 10.1641Z" fill="black"/>
    <path d="M31.1551 10.1641C31.1551 8.60783 32.2514 7.17733 34.0711 7.17733C35.8907 7.17733 36.9837 8.60816 36.9837 10.1641C36.9837 11.7201 35.8907 13.1513 34.0711 13.1513C32.2514 13.1513 31.1551 11.7204 31.1551 10.1641ZM28.6738 10.1641C28.6738 13.2976 31.071 15.3912 34.0711 15.3912C37.0678 15.3912 39.4683 13.2979 39.4683 10.1641C39.4683 7.03034 37.0682 4.93408 34.0711 4.93408C31.0707 4.93375 28.6738 7.03067 28.6738 10.1641Z" fill="black"/>
    <path d="M41.1523 5.19072H43.5312V6.78616H43.5704C44.009 5.82944 44.9676 4.93408 46.6364 4.93408C48.181 4.93408 49.2478 5.54907 49.7679 6.82616C50.4976 5.53246 51.561 4.93408 53.0597 4.93408C55.7297 4.93408 56.6694 6.87091 56.6694 9.31492V15.3912H54.1661V9.61157C54.1661 8.33786 53.7931 7.23265 52.3107 7.23265C50.7468 7.23265 50.1608 8.54941 50.1608 9.86482V15.3909H47.6609V9.31458C47.6609 8.05749 47.1601 7.23265 45.9496 7.23265C44.3035 7.23265 43.6556 8.46127 43.6556 9.82312V15.3909H41.1523V5.19072Z" fill="black"/>
    <path d="M66.9893 10.4224C66.9893 12.004 65.8876 13.4548 64.0503 13.4548C62.216 13.4548 61.1114 12.004 61.1114 10.4224C61.1114 8.84242 62.216 7.3865 64.0503 7.3865C65.8876 7.3865 66.9893 8.84242 66.9893 10.4224ZM58.6956 15.4774H61.0721V13.9617H61.1114C61.8434 15.1796 63.1544 15.7285 64.5533 15.7285C67.6328 15.7285 69.4898 13.4115 69.4898 10.422C69.4898 7.43086 67.5089 5.11255 64.655 5.11255C62.7815 5.11255 61.7782 5.99511 61.2583 6.65283H61.1961V0.211426H58.6953V15.4774H58.6956Z" fill="black"/>
    <path d="M73.3368 9.16798C73.5231 7.73384 74.4409 6.80125 75.9174 6.80125C77.4789 6.80125 78.4359 7.71464 78.4588 9.16798H73.3368ZM80.9577 11.0352V10.3515C80.9577 6.88434 79.0633 4.93408 76.2735 4.93408C73.2488 4.93408 70.8379 7.03067 70.8379 10.1641C70.8379 13.2976 73.2488 15.3912 76.2735 15.3912C77.8513 15.3912 79.3341 14.8314 80.497 13.4019L78.7069 12.0558C78.0831 12.8196 77.2696 13.4019 76.0217 13.4019C74.6273 13.4019 73.4999 12.5084 73.3368 11.0352H80.9577Z" fill="black"/>
    <path d="M82.6449 5.19072H85.1503V6.80616H85.1929C85.7364 5.63755 86.8401 4.93408 88.1565 4.93408C88.4709 4.93408 88.7623 4.99917 89.0537 5.08562V7.54964C88.6378 7.44454 88.2385 7.35944 87.8418 7.35944C85.484 7.35944 85.1499 9.37968 85.1499 9.9333V15.3912H82.6445V5.19072H82.6449Z" fill="black"/>
    <path d="M94.5142 7.22664C96.3253 7.22664 97.4726 8.45204 97.4726 10.2158C97.4726 11.9085 96.348 13.2018 94.4943 13.2018C92.8075 13.2018 91.5553 11.8669 91.5553 10.2557C91.5553 8.45204 92.7617 7.22664 94.5142 7.22664ZM97.4726 5.19005V6.71639H97.4333C96.7013 5.48592 95.3872 4.93408 93.9913 4.93408C90.9087 4.93408 89.0547 7.26654 89.0547 10.2776C89.0547 13.1572 91.0357 15.49 94.0339 15.49C95.2858 15.49 96.577 15.0044 97.3097 14.0086H97.3452V14.7518C97.3452 16.7634 96.5999 18.1636 94.1808 18.1636C92.7849 18.1636 91.7418 17.6314 90.7415 16.6938L89.2442 18.775C90.6564 20.0518 92.3464 20.4511 94.2034 20.4511C98.1005 20.4511 99.8491 18.117 99.8491 14.4523V5.19005H97.4726Z" fill="black"/>
    </g>
    <defs>
    <clipPath id="clip0_685_911">
    <rect width="99.8487" height="20.2396" fill="white" transform="translate(0 0.211426)"/>
    </clipPath>
    </defs>
</svg>