<svg width="186" height="16" viewBox="0 0 186 16" fill="none" xmlns="http://www.w3.org/2000/svg">
    <g clip-path="url(#clip0_649_15601)">
    <path d="M14.7069 11.048C14.6827 10.9858 14.6355 10.9354 14.575 10.9072L14.4431 10.8545C14.3869 10.8309 14.3237 10.8296 14.2665 10.8508C14.2094 10.8721 14.1625 10.9143 14.1352 10.9688C13.7832 11.783 13.235 12.4973 12.5399 13.0482C11.8447 13.5991 11.0241 13.9695 10.151 14.1263C8.65529 14.406 7.10922 14.1026 5.83019 13.2782C4.55117 12.4539 3.63621 11.1712 3.27312 9.69349C2.96954 8.77787 2.85433 7.81028 2.93443 6.84897C3.01455 5.88764 3.28831 4.95247 3.73927 4.09972C4.02925 3.58113 4.42627 3.13019 4.90394 2.77687C5.38162 2.42353 5.92902 2.1759 6.50978 2.05042C9.05157 1.52271 11.2152 3.36092 12.4202 5.26949C12.4417 5.30389 12.4715 5.33236 12.5068 5.35233C12.5421 5.37229 12.5819 5.38312 12.6224 5.38383H12.7544C12.8086 5.38246 12.8608 5.36379 12.9035 5.33055C12.9463 5.29731 12.9773 5.25125 12.9918 5.19913L13.5635 3.0179C13.5773 2.96843 13.5743 2.91585 13.5553 2.8682C13.5362 2.82054 13.5021 2.78045 13.458 2.75404C12.0012 1.66047 10.2222 1.08192 8.40076 1.10933C6.48175 1.08768 4.62992 1.81521 3.23884 3.13732C1.84775 4.45943 1.02706 6.27188 0.951172 8.18951C1.00294 10.0844 1.7919 11.8844 3.15026 13.2067C4.50862 14.5289 6.32922 15.2691 8.22485 15.2697C9.58501 15.3334 10.9323 14.9813 12.0872 14.2601C13.2421 13.5388 14.1497 12.4828 14.6893 11.2327C14.7071 11.2057 14.718 11.1747 14.721 11.1425C14.7241 11.1103 14.7192 11.0779 14.7069 11.048Z" fill="white"/>
    <path d="M29.8239 14.909V14.7771C29.8197 14.7207 29.8016 14.6663 29.7711 14.6188C28.9106 13.5935 28.2458 12.4189 27.8097 11.1534L24.0893 1.45226C24.0711 1.40624 24.0397 1.36665 23.999 1.33848C23.9583 1.3103 23.9102 1.29481 23.8607 1.29395H22.3567C22.3172 1.2949 22.2783 1.3049 22.2433 1.3232C22.2082 1.34149 22.1778 1.3676 22.1544 1.39949C22.1309 1.43221 22.1161 1.47039 22.1116 1.51041C22.1069 1.55042 22.1126 1.59095 22.128 1.62817L22.7261 3.18493L19.894 11.1622C19.524 12.4493 18.855 13.6307 17.9415 14.61C17.897 14.6543 17.8718 14.7143 17.8711 14.7771V14.909C17.8725 14.9739 17.8988 15.0357 17.9447 15.0817C17.9906 15.1276 18.0525 15.154 18.1174 15.1553H20.3689C20.4339 15.154 20.4957 15.1276 20.5416 15.0817C20.5875 15.0357 20.6139 14.9739 20.6152 14.909V14.7771C20.6145 14.7143 20.5893 14.6543 20.5449 14.61C19.8764 13.8888 19.8676 13.1236 20.5009 11.3205L20.9582 10.0276H25.3559L26.2354 12.2968C26.7983 13.7568 26.8423 14.2318 26.4817 14.6012C26.4372 14.6455 26.412 14.7055 26.4113 14.7683V14.9002C26.4127 14.9651 26.439 15.027 26.4849 15.0729C26.5308 15.1188 26.5927 15.1452 26.6576 15.1465H29.604C29.6642 15.1431 29.7209 15.1164 29.7618 15.0722C29.8029 15.0278 29.8251 14.9693 29.8239 14.909ZM21.1693 9.39438L23.0515 4.09084L25.092 9.39438H21.1693Z" fill="white"/>
    <path d="M45.9823 13.6493C45.9823 14.3178 45.8152 14.4761 45.6657 14.564C45.6279 14.5847 45.5964 14.6153 45.5747 14.6525C45.5531 14.6897 45.5419 14.7321 45.5425 14.7751V14.907C45.5439 14.9719 45.5703 15.0339 45.6161 15.0797C45.662 15.1256 45.724 15.152 45.7888 15.1533H48.1547C48.2196 15.152 48.2815 15.1256 48.3274 15.0797C48.3733 15.0339 48.3997 14.9719 48.401 14.907V14.7751C48.4017 14.7321 48.3905 14.6897 48.3688 14.6525C48.3471 14.6153 48.3157 14.5847 48.2778 14.564C48.1107 14.4761 47.9612 14.3353 47.9612 13.6493V2.82239C47.9612 2.13636 48.1019 2.00443 48.2778 1.90768C48.3157 1.88704 48.3471 1.85646 48.3688 1.81927C48.3905 1.78207 48.4017 1.73965 48.401 1.69659V1.54707C48.3997 1.48218 48.3733 1.42032 48.3274 1.37443C48.2815 1.32853 48.2196 1.30215 48.1547 1.30081H46.3781C46.3351 1.30018 46.2927 1.31131 46.2555 1.33301C46.2183 1.35471 46.1876 1.38615 46.167 1.42394L41.4967 9.54193L36.2283 1.41514C36.2069 1.38075 36.1771 1.35228 36.1417 1.3323C36.1064 1.31234 36.0667 1.30151 36.026 1.30081H34.311C34.2662 1.30229 34.2224 1.31518 34.184 1.33827C34.1454 1.36135 34.1135 1.39386 34.0911 1.43274C34.0701 1.47267 34.0605 1.51771 34.0636 1.56277C34.0667 1.60783 34.0824 1.65113 34.1087 1.6878L34.9178 2.8048V12.6203C34.9 13.0049 34.7939 13.3802 34.6079 13.7172C34.4218 14.0543 34.1607 14.344 33.8448 14.564C33.8049 14.5852 33.7716 14.6169 33.7482 14.6557C33.725 14.6944 33.7128 14.7388 33.7129 14.7839V14.9158C33.7143 14.9807 33.7407 15.0427 33.7865 15.0885C33.8324 15.1344 33.8943 15.1608 33.9592 15.1621H36.5186C36.5835 15.1608 36.6453 15.1344 36.6912 15.0885C36.7371 15.0427 36.7635 14.9807 36.7648 14.9158V14.7839C36.7634 14.7391 36.7505 14.6953 36.7274 14.6569C36.7043 14.6184 36.6718 14.5865 36.6329 14.564C36.3144 14.3467 36.0514 14.0576 35.865 13.7199C35.6785 13.3824 35.5741 13.0057 35.5599 12.6203V3.73709L40.5732 11.3801C40.5947 11.4146 40.6246 11.443 40.6598 11.463C40.6952 11.483 40.7349 11.4938 40.7755 11.4945H40.9426C40.9857 11.4952 41.0281 11.484 41.0653 11.4623C41.1025 11.4407 41.1331 11.4092 41.1537 11.3713L45.9735 3.03347L45.9823 13.6493Z" fill="white"/>
    <path d="M55.4716 15.1553C55.5365 15.154 55.5983 15.1276 55.6442 15.0817C55.6902 15.0357 55.7165 14.9739 55.7179 14.909V14.7771C55.7185 14.734 55.7074 14.6916 55.6857 14.6544C55.6639 14.6172 55.6325 14.5867 55.5947 14.566C55.4452 14.478 55.2957 14.3285 55.2957 13.6513V9.59667H55.9905C60.1859 9.59667 62.499 8.12786 62.499 5.4541C62.499 2.78034 60.1859 1.29395 55.9905 1.29395H53.1057C53.0408 1.29529 52.9789 1.32167 52.933 1.36757C52.8871 1.41346 52.8607 1.47532 52.8594 1.54021V1.68973C52.8588 1.73279 52.8699 1.7752 52.8916 1.8124C52.9133 1.8496 52.9447 1.88017 52.9825 1.90082C53.1496 1.99757 53.2992 2.1295 53.2992 2.81553V13.6425C53.2992 14.3285 53.1496 14.4692 52.9825 14.5572C52.9447 14.5779 52.9133 14.6084 52.8916 14.6456C52.8699 14.6828 52.8588 14.7252 52.8594 14.7683V14.9002C52.8607 14.9651 52.8871 15.027 52.933 15.0729C52.9789 15.1188 53.0408 15.1452 53.1057 15.1465L55.4716 15.1553ZM55.9817 8.95462H55.2869V1.936H55.9817C59.0161 1.936 60.4937 3.08818 60.4937 5.4541C60.4937 7.77605 58.9809 8.95462 55.9817 8.95462Z" fill="white"/>
    <path d="M80.9331 8.18804C80.9525 6.76437 80.548 5.3671 79.7711 4.17392C78.9942 2.98075 77.88 2.04557 76.5702 1.48733C75.2604 0.929078 73.8142 0.772982 72.4154 1.03888C71.0167 1.30479 69.7286 1.98068 68.715 2.98061C67.7014 3.98054 67.0081 5.25932 66.7232 6.65433C66.4384 8.04935 66.5748 9.49756 67.1152 10.8148C67.6557 12.1321 68.5757 13.2589 69.7582 14.0518C70.9407 14.8449 72.3323 15.2683 73.7562 15.2682C75.6462 15.279 77.4632 14.5396 78.8087 13.2122C80.1542 11.8849 80.9182 10.078 80.9331 8.18804ZM69.1826 4.26536C69.4582 3.7323 69.8387 3.26043 70.3011 2.87804C70.7637 2.49567 71.2986 2.21067 71.874 2.04015C72.3156 1.90341 72.7749 1.83229 73.2372 1.82907C75.7967 1.82907 77.8196 4.08945 78.6199 6.69285C79.5522 9.75359 78.8222 13.3596 75.6296 14.3359C74.9326 14.5533 74.1936 14.5989 73.4752 14.4687C72.7569 14.3386 72.0808 14.0365 71.5046 13.5883C70.2325 12.5905 69.3114 11.2134 68.8748 9.65684C68.2789 7.88715 68.3891 5.95573 69.1826 4.26536Z" fill="white"/>
    <path d="M104.4 8.30239C104.335 8.30375 104.272 8.33012 104.226 8.37602C104.181 8.42191 104.154 8.48377 104.153 8.54866V8.69818C104.153 8.76038 104.177 8.82015 104.219 8.86574C104.262 8.91129 104.32 8.93943 104.381 8.94445C105.173 8.98842 105.622 9.61289 105.622 10.6507V13.0958C104.98 13.771 104.126 14.2057 103.204 14.3271C99.9845 14.7317 97.565 13.0518 96.5359 9.68325C96.2307 8.76799 96.1146 7.80009 96.1947 6.83844C96.2747 5.87678 96.5491 4.94149 97.0021 4.08946C97.2923 3.57088 97.6898 3.11994 98.1674 2.76661C98.645 2.41328 99.1921 2.16565 99.7726 2.04017C102.306 1.50366 104.487 3.35066 105.683 5.25923C105.705 5.29363 105.735 5.32211 105.77 5.34208C105.805 5.36204 105.845 5.37287 105.886 5.37357H106.017C106.072 5.37221 106.124 5.35354 106.167 5.3203C106.21 5.28705 106.241 5.241 106.256 5.18887L106.826 3.00765C106.84 2.95817 106.838 2.9056 106.818 2.85794C106.799 2.81029 106.766 2.77019 106.722 2.74379C105.264 1.65021 103.485 1.07167 101.664 1.09908C99.7453 1.07743 97.893 1.80497 96.5025 3.12707C95.1111 4.44917 94.2905 6.26163 94.2148 8.17926C94.214 10.0542 94.9572 11.8529 96.2809 13.1802C97.6054 14.5077 99.4023 15.2555 101.277 15.2594C105.059 15.2594 107.02 13.2014 107.592 11.9876C107.605 11.9536 107.614 11.9181 107.618 11.8821V9.81518C107.618 9.12915 107.76 8.99722 107.918 8.90047C107.953 8.8779 107.982 8.84668 108.002 8.80975C108.022 8.77281 108.032 8.73139 108.031 8.68938V8.53987C108.03 8.47497 108.004 8.41312 107.958 8.36722C107.913 8.32133 107.85 8.29494 107.785 8.2936L104.4 8.30239Z" fill="white"/>
    <path d="M120.585 11.3713L119.028 8.63603C121.077 8.07313 122.238 6.81541 122.238 5.15311C122.238 2.81357 119.934 1.30078 116.363 1.30078H112.66C112.595 1.30213 112.534 1.32851 112.488 1.37441C112.441 1.4203 112.415 1.48216 112.414 1.54705V1.69657C112.413 1.73857 112.424 1.77999 112.444 1.81693C112.464 1.85386 112.493 1.88509 112.528 1.90765C112.687 2.0044 112.827 2.14513 112.827 2.82236V13.6493C112.827 14.3266 112.678 14.4761 112.528 14.564C112.493 14.5866 112.464 14.6179 112.444 14.6548C112.424 14.6917 112.413 14.7332 112.414 14.7751V14.907C112.415 14.972 112.441 15.0338 112.488 15.0797C112.534 15.1256 112.595 15.152 112.66 15.1533H115.009C115.074 15.152 115.135 15.1256 115.181 15.0797C115.227 15.0338 115.253 14.972 115.255 14.907V14.7751C115.256 14.7321 115.244 14.6896 115.222 14.6524C115.201 14.6152 115.17 14.5847 115.132 14.564C114.982 14.4761 114.833 14.3266 114.833 13.6493V8.98783H116.363C116.601 8.98783 116.847 8.97904 117.084 8.96144L119.055 12.4004L119.09 12.4532C119.811 13.7285 120.092 14.2562 119.749 14.608C119.705 14.6524 119.68 14.7124 119.679 14.7751V14.907C119.68 14.972 119.706 15.0338 119.753 15.0797C119.799 15.1256 119.86 15.152 119.925 15.1533H122.863C122.928 15.152 122.99 15.1256 123.035 15.0797C123.081 15.0338 123.107 14.972 123.109 14.907V14.7751C123.11 14.7405 123.104 14.706 123.09 14.6741C123.076 14.6421 123.056 14.6136 123.03 14.5904C122.015 13.6851 121.185 12.592 120.585 11.3713ZM114.833 1.93404H116.363C119.846 1.93404 120.242 3.76345 120.242 5.14431C120.242 7.29035 118.975 8.33699 116.363 8.33699H114.833V1.93404Z" fill="white"/>
    <path d="M136.368 11.1534L132.648 1.45226C132.63 1.40624 132.599 1.36665 132.558 1.33848C132.517 1.3103 132.469 1.29481 132.419 1.29395H130.915C130.876 1.2949 130.837 1.3049 130.802 1.3232C130.768 1.34149 130.737 1.3676 130.713 1.39949C130.692 1.43314 130.679 1.47119 130.674 1.5108C130.669 1.55041 130.673 1.59053 130.687 1.62817L131.285 3.18493L128.453 11.1622C128.083 12.4493 127.414 13.6307 126.5 14.61C126.456 14.6543 126.431 14.7143 126.43 14.7771V14.909C126.431 14.9739 126.458 15.0357 126.504 15.0817C126.549 15.1276 126.612 15.154 126.676 15.1553H128.928C128.993 15.154 129.055 15.1276 129.101 15.0817C129.147 15.0357 129.173 14.9739 129.174 14.909V14.7771C129.174 14.7143 129.148 14.6543 129.103 14.61C128.435 13.8888 128.426 13.1236 129.059 11.3205L129.517 10.0276H133.914L134.794 12.2968C135.357 13.7568 135.401 14.2318 135.04 14.6012C134.996 14.6455 134.971 14.7055 134.97 14.7683V14.9002C134.972 14.9651 134.998 15.027 135.044 15.0729C135.09 15.1188 135.152 15.1452 135.216 15.1465H138.163C138.228 15.1452 138.29 15.1188 138.336 15.0729C138.382 15.027 138.408 14.9651 138.409 14.9002V14.7683C138.405 14.7119 138.387 14.6576 138.356 14.61C137.477 13.5968 136.802 12.423 136.368 11.1534ZM129.737 9.39438L131.619 4.09084L133.659 9.39438H129.737Z" fill="white"/>
    <path d="M151.903 1.29249C151.838 1.29383 151.776 1.32022 151.73 1.36611C151.684 1.41201 151.658 1.47386 151.657 1.53875V1.68827C151.658 1.73312 151.671 1.77684 151.694 1.81532C151.717 1.85379 151.749 1.88574 151.789 1.90815C152.106 2.12239 152.368 2.40842 152.555 2.74306C152.741 3.0777 152.847 3.45155 152.862 3.83432V11.8028L144.647 1.38923C144.624 1.35983 144.594 1.33644 144.561 1.3211C144.528 1.30576 144.491 1.29896 144.454 1.30128H142.527C142.481 1.30228 142.436 1.31593 142.397 1.34076C142.359 1.36558 142.328 1.40062 142.308 1.44201C142.286 1.48216 142.276 1.52809 142.28 1.57366C142.286 1.61924 142.304 1.66229 142.334 1.69707L143.504 3.19226V12.6208C143.488 13.0069 143.382 13.3841 143.194 13.7218C143.007 14.0594 142.742 14.3482 142.422 14.5646C142.381 14.5852 142.346 14.6166 142.321 14.6552C142.296 14.6939 142.282 14.7385 142.281 14.7844V14.9164C142.282 14.9813 142.308 15.0431 142.354 15.089C142.4 15.1349 142.462 15.1612 142.527 15.1626H145.104C145.169 15.1612 145.231 15.1349 145.277 15.089C145.323 15.0431 145.349 14.9813 145.351 14.9164V14.7844C145.349 14.7383 145.336 14.6935 145.311 14.6547C145.286 14.6159 145.251 14.5847 145.21 14.5646C144.887 14.3508 144.62 14.0628 144.432 13.7245C144.243 13.3863 144.14 13.0077 144.128 12.6208V3.98384L152.783 15.0571C152.805 15.0876 152.834 15.1123 152.867 15.1291C152.901 15.146 152.938 15.1545 152.976 15.1538H153.258C153.322 15.1524 153.384 15.1261 153.43 15.0802C153.476 15.0343 153.502 14.9725 153.504 14.9076V3.82552C153.519 3.44275 153.624 3.06891 153.81 2.73427C153.996 2.39963 154.259 2.11359 154.577 1.89936C154.617 1.87821 154.65 1.84654 154.673 1.80779C154.697 1.76904 154.709 1.72467 154.709 1.67948V1.52996C154.707 1.46507 154.681 1.40321 154.635 1.35732C154.589 1.31142 154.527 1.28504 154.463 1.28369H151.903V1.29249Z" fill="white"/>
    <path d="M164.198 1.29395H159.422C159.357 1.29529 159.295 1.32167 159.25 1.36757C159.203 1.41346 159.177 1.47532 159.176 1.54021V1.68973C159.175 1.73173 159.186 1.77316 159.206 1.81009C159.226 1.84703 159.255 1.87825 159.29 1.90082C159.44 1.98877 159.589 2.13829 159.589 2.81553V13.6425C159.589 14.3197 159.44 14.4692 159.29 14.5572C159.255 14.5798 159.226 14.611 159.206 14.648C159.186 14.6848 159.175 14.7262 159.176 14.7683V14.9002C159.177 14.9651 159.203 15.027 159.25 15.0729C159.295 15.1188 159.357 15.1452 159.422 15.1465H164.198C168.701 15.1465 172.105 12.1649 172.105 8.21582C172.105 4.26674 168.701 1.29395 164.198 1.29395ZM161.595 1.936H164.198C168.077 1.936 170.1 5.10229 170.1 8.22461C170.1 11.3469 168.068 14.5308 164.198 14.5308H161.595V1.936Z" fill="white"/>
    <path d="M184.929 12.3906L184.815 12.3115C184.762 12.2785 184.698 12.2657 184.637 12.2753C184.576 12.2851 184.52 12.3167 184.48 12.3642C183.963 13.0365 183.298 13.5805 182.537 13.9543C181.776 14.3279 180.939 14.5212 180.092 14.5191H178.79V7.72917L183.337 8.10737C183.403 8.10724 183.468 8.08565 183.522 8.0458C183.547 8.0226 183.567 7.99406 183.581 7.96217C183.595 7.93027 183.602 7.89579 183.601 7.8611V6.88483C183.601 6.85027 183.594 6.81606 183.58 6.7843C183.567 6.75253 183.546 6.72388 183.522 6.70013C183.498 6.6762 183.468 6.65818 183.436 6.6475C183.404 6.63681 183.37 6.63375 183.337 6.63856L178.79 7.03435V1.90671H179.88C180.654 1.90062 181.418 2.07468 182.113 2.4151C182.808 2.75553 183.413 3.25297 183.882 3.86805C183.923 3.91577 183.981 3.94535 184.043 3.9503C184.107 3.95524 184.168 3.93516 184.217 3.89444L184.313 3.81528C184.348 3.78757 184.375 3.75075 184.391 3.70887C184.406 3.66699 184.409 3.62165 184.401 3.57781L183.997 1.45815C183.986 1.40205 183.957 1.35115 183.914 1.31422C183.871 1.27728 183.815 1.25664 183.759 1.25586H176.617C176.552 1.25721 176.491 1.28359 176.444 1.32948C176.398 1.37538 176.372 1.43724 176.371 1.50213V1.65165C176.37 1.69365 176.381 1.73507 176.401 1.77201C176.42 1.80894 176.449 1.84016 176.485 1.86273C176.635 1.95069 176.785 2.1002 176.785 2.77744V13.6044C176.785 14.2816 176.635 14.4311 176.485 14.5191C176.449 14.5417 176.42 14.5729 176.401 14.6099C176.381 14.6468 176.37 14.6882 176.371 14.7302V14.8621C176.372 14.927 176.398 14.9888 176.444 15.0348C176.491 15.0807 176.552 15.107 176.617 15.1084H184.375C184.431 15.1076 184.487 15.087 184.53 15.0501C184.573 15.0131 184.602 14.9622 184.612 14.9061L185.034 12.5929C185.034 12.5532 185.025 12.5139 185.006 12.4787C184.988 12.4434 184.961 12.4132 184.929 12.3906Z" fill="white"/>
    </g>
    <defs>
    <clipPath id="clip0_649_15601">
    <rect width="185.58" height="15.8315" fill="white" transform="translate(0.160156 0.0844727)"/>
    </clipPath>
    </defs>
</svg>