<svg width="69" height="19" viewBox="0 0 69 19" fill="none" xmlns="http://www.w3.org/2000/svg">
    <path d="M6.69566 1.99814H8.14765C9.07164 1.86571 9.99563 1.99814 10.7876 2.39541C11.9756 2.92511 12.7676 3.98451 13.0316 5.17634C13.2956 5.83846 13.2956 5.83846 13.8236 5.57361H14.2196V0.541461H0.0957031V1.46844H0.623699C1.1517 1.46844 1.67969 1.73329 1.94369 2.13056C2.60369 2.92511 2.60369 3.98451 2.60369 9.01666C2.60369 14.4461 2.47169 15.7703 1.94369 16.4325C1.67969 16.8297 1.28369 16.9622 0.887698 16.9622C0.0957031 17.227 0.0957031 17.227 0.0957031 17.4919C0.0957031 17.6243 0.0957031 17.7567 0.0957031 17.8891H9.07164C9.20364 17.6243 9.20364 17.3594 9.07164 17.0946C8.80764 17.0946 8.67564 16.9622 8.41164 16.9622C8.14765 16.9622 7.88365 16.8297 7.75165 16.8297C7.09165 16.3 6.69566 15.5055 6.82766 14.7109C6.56366 13.784 6.56366 12.1949 6.56366 10.8706V9.81121H7.09165C7.75165 9.81121 8.41164 9.81121 9.07164 10.0761C9.73164 10.4733 10.1276 11.1355 10.2596 11.7976V12.1949H11.0516V6.36816H10.2596V6.89786C10.1276 7.69241 9.73164 8.22211 9.07164 8.61939C8.67564 8.75181 8.41164 8.75181 8.01565 8.75181H6.56366V7.29514C6.56366 5.83846 6.69566 2.66026 6.69566 2.26299V1.99814ZM68.4712 12.4597C67.8112 11.4003 66.8872 10.7382 65.6992 10.3409C64.7752 10.0761 63.9833 9.67879 63.3233 9.01666C63.0593 8.75181 62.9273 8.22211 62.9273 7.82484C62.9273 7.42756 63.0593 7.03029 63.4553 6.76544C63.8512 6.36816 64.5112 6.23574 65.0392 6.36816C66.2272 6.76544 67.1512 7.69241 67.4152 8.88424C67.6792 9.41394 67.6792 9.41394 68.0752 9.28151L68.3392 9.14909V5.83846L68.2072 5.70604C66.8872 5.30876 65.5672 5.04391 64.1152 5.17634C62.9273 5.17634 61.7393 5.70604 60.9473 6.50059C60.1553 7.29514 59.7593 8.22211 59.7593 9.41394C59.7593 10.2085 60.0233 11.003 60.6833 11.5327C61.3433 12.1949 62.1353 12.5921 62.9273 12.857C64.9072 13.6515 65.5672 14.1812 65.5672 15.1082C65.5672 15.9028 65.0392 16.6973 64.2472 16.8297C63.8512 16.9622 63.3233 16.9622 62.7953 16.8297C61.6073 16.3 60.6833 15.3731 60.2873 14.0488L60.1553 13.6515H59.8913C59.7593 13.6515 59.6273 13.6515 59.6273 13.784H59.4953V17.4919H59.7593C60.6833 17.7567 61.6073 18.0216 62.5313 18.154H63.8512C64.3792 18.154 65.0392 18.154 65.5672 18.0216C67.0192 17.7567 68.2072 16.6973 68.7352 15.3731C68.8672 14.9758 68.9992 14.5785 68.9992 14.1812C68.8672 13.5191 68.7352 12.9894 68.4712 12.4597ZM56.0633 5.57361C54.4793 4.91149 52.6313 4.91149 51.0473 5.70604C49.5953 6.36816 48.5394 7.69241 48.0114 9.28151C47.7474 10.0761 47.6154 11.003 47.6154 11.93C47.6154 12.4597 47.6154 12.857 47.7474 13.3867C48.1434 15.7703 50.1233 17.7567 52.4993 18.154C53.2913 18.2864 54.0833 18.2864 54.8753 18.154C55.6673 18.0216 56.4593 17.7567 57.1193 17.3594C57.6473 17.0946 58.1753 16.5649 58.5713 16.0352C58.5713 15.9028 58.4393 15.7703 58.3073 15.6379C58.1753 15.6379 58.0433 15.7703 57.9113 15.9028C57.2513 16.3 56.4593 16.5649 55.6673 16.5649C54.6113 16.6973 53.5553 16.1676 52.8953 15.5055C52.6313 15.2406 52.3673 14.9758 52.2353 14.5785C51.8393 13.784 51.5753 12.857 51.5753 11.93V11.2679H58.8353V11.003C58.8353 10.7382 58.8353 10.4733 58.8353 10.2085C58.7033 8.35454 57.6473 6.50059 56.0633 5.57361ZM52.3673 10.2085H51.4433V9.41394C51.7073 7.42756 52.4993 6.23574 53.4233 6.23574C54.3473 6.23574 54.7433 7.42756 54.8753 9.54636V10.2085H54.0833H52.3673ZM33.3595 5.17634C32.9635 5.17634 32.4355 5.30876 32.0395 5.44119C31.1155 5.83846 30.4555 6.63301 30.0595 7.55999L29.9275 7.82484V5.17634H29.7955C29.6635 5.17634 24.7795 6.10331 24.6475 6.23574C24.5155 6.36816 24.5155 6.36816 24.5155 6.50059C24.5155 6.63301 24.5155 6.76544 24.6475 6.76544L25.0435 6.89786C25.3075 6.89786 25.5715 7.03029 25.8355 7.29514C26.0995 7.69241 26.2315 8.48696 26.2315 11.7976C26.2315 13.2543 26.2315 14.7109 26.0995 16.1676C25.9675 16.5649 25.7035 16.9622 25.1755 16.9622L24.7795 17.0946H24.6475V17.4919C24.6475 17.6243 24.6475 17.7567 24.6475 17.8891H32.0395V17.4919C32.0395 17.3594 32.0395 17.227 32.0395 17.0946C31.6435 17.0946 31.1155 16.9622 30.7195 16.9622C30.1915 16.6973 29.9275 16.1676 30.0595 15.6379C29.7955 14.8434 29.6635 12.5921 29.7955 10.8706C29.9275 9.14909 29.7955 9.01666 29.9275 8.88424C30.3235 8.48696 30.8515 8.35454 31.5115 8.35454C32.0395 8.35454 32.5675 8.48696 32.9635 8.75181C33.0955 8.88424 33.3595 8.88424 33.4915 9.01666C33.4915 9.01666 34.8115 5.83846 34.8115 5.70604C34.4155 5.30876 33.8875 5.04391 33.3595 5.17634ZM24.5155 10.7382C24.3835 8.88424 23.4595 7.03029 21.7435 5.97089C19.7636 4.91149 17.5196 4.91149 15.5396 5.83846C14.2196 6.50059 13.1636 7.82484 12.6356 9.28151C12.1076 11.003 12.1076 12.7246 12.6356 14.3137C12.8996 15.2406 13.4276 16.0352 14.0876 16.6973C14.8796 17.4919 15.9356 18.0216 17.1236 18.154C17.9156 18.154 18.5756 18.154 19.3676 18.154C19.6316 18.154 19.8956 18.0216 20.1596 18.0216C22.4035 17.3594 23.9875 15.6379 24.3835 13.2543C24.5155 12.4597 24.5155 11.6652 24.5155 10.7382ZM18.9716 17.3594C17.6516 17.7567 16.5956 16.4325 16.3316 13.784C16.1996 12.3273 16.1996 11.003 16.3316 9.54636C16.5956 7.42756 17.2556 6.23574 18.3116 6.23574C18.7076 6.23574 19.1036 6.36816 19.3676 6.76544C20.2916 7.69241 20.6876 9.41394 20.6876 12.0624C20.8196 13.5191 20.5556 15.1082 20.0276 16.4325C19.8956 16.8297 19.4996 17.0946 18.9716 17.3594ZM42.7314 5.44119C42.3354 5.44119 41.9394 5.44119 41.6754 5.44119C41.0154 5.44119 40.2234 5.57361 39.5634 5.83846L39.1674 5.97089V3.18996C39.2994 2.26299 39.2994 1.20359 39.1674 0.276611C39.0354 0.276611 34.0195 1.20359 33.8875 1.33601C33.8875 1.46844 33.8875 1.60086 33.8875 1.60086C33.8875 1.86571 33.8875 1.86571 34.5475 1.99814C34.6795 1.99814 34.8115 2.13056 35.0755 2.13056C35.3395 2.39541 35.4715 2.66026 35.6035 3.05754C35.7355 4.11694 35.8675 5.04391 35.7355 6.10331V17.7567L36.1314 17.8891C36.6594 18.0216 38.1114 18.2864 38.6394 18.2864C39.5634 18.4188 40.6194 18.4188 41.5434 18.2864C43.7874 18.0216 45.6354 16.5649 46.4274 14.5785C46.6914 13.9164 46.8234 13.2543 46.9554 12.5921C47.0874 11.6652 46.9554 10.7382 46.8234 9.81121C46.4274 7.55999 44.8434 5.83846 42.7314 5.44119ZM39.2994 17.0946C39.2994 16.9622 39.1674 11.1355 39.1674 8.75181V7.03029L39.5634 6.89786C39.8274 6.89786 40.0914 6.89786 40.3554 6.89786C40.6194 6.89786 40.8834 6.89786 41.1474 7.03029C42.2034 7.69241 42.7314 8.88424 42.8634 10.0761C42.9954 11.003 42.9954 12.0624 42.8634 12.9894C42.7314 14.4461 42.2034 15.7703 41.2794 16.8297C41.0154 17.0946 40.7514 17.227 40.3554 17.3594C40.0914 17.3594 39.8274 17.3594 39.5634 17.3594C39.2994 17.3594 39.2994 17.227 39.2994 17.0946Z" fill="black"/>
</svg>