<svg width="109" height="72" viewBox="0 0 109 72" fill="none" xmlns="http://www.w3.org/2000/svg">
    <g clip-path="url(#clip0_649_15583)">
    <path fill-rule="evenodd" clip-rule="evenodd" d="M68.8624 20.0504C70.553 20.0433 72.2266 20.3866 73.7781 21.0584C75.2958 21.7075 76.6768 22.6383 77.8482 23.8016C79.0182 24.9743 79.96 26.3552 80.6238 27.8732C81.3006 29.4468 81.6527 31.141 81.6585 32.8541C81.6642 34.5672 81.323 36.2637 80.6562 37.8416C80.0054 39.346 79.0823 40.7172 77.9339 41.8866C76.7761 43.0566 75.4024 43.9902 73.889 44.6355C72.3019 45.3143 70.5919 45.6574 68.866 45.6435C67.1638 45.6544 65.4759 45.3313 63.898 44.6924C62.3782 44.0801 60.9945 43.1733 59.8264 42.0241C58.6203 40.8336 57.6663 39.4124 57.0215 37.8452C56.3767 36.278 56.0541 34.597 56.0731 32.9024C56.0621 31.2402 56.381 29.5923 57.0113 28.0543C57.6416 26.5162 58.5708 25.1185 59.7451 23.942C60.9175 22.778 62.2988 21.8454 63.8167 21.193C65.4112 20.4966 67.1234 20.1089 68.8624 20.0504ZM68.8624 27.7688C68.381 27.7675 67.909 27.9031 67.5016 28.1598C67.058 28.4401 66.6758 28.8075 66.3784 29.2398C66.0328 29.7356 65.771 30.2848 65.6037 30.8655C65.2256 32.1829 65.2256 33.5801 65.6037 34.8975C65.7758 35.4836 66.0371 36.0397 66.3784 36.5463C66.6753 36.9909 67.057 37.3726 67.5016 37.6695C67.904 37.9398 68.3778 38.084 68.8624 38.0835C69.3518 38.0825 69.8303 37.9386 70.2391 37.6695C70.6888 37.3789 71.0717 36.9961 71.3623 36.5463C71.6968 36.0381 71.9527 35.4822 72.1211 34.8975C72.3147 34.2509 72.4104 33.5788 72.4048 32.9038C72.4037 31.6373 72.0404 30.3974 71.3579 29.3305C71.1013 28.886 70.7397 28.5113 70.3046 28.239C69.8695 27.9667 69.3743 27.8053 68.8624 27.7688Z" fill="white"/>
    <path d="M46.0987 21.0205V32.9948C46.1067 33.387 46.032 33.7765 45.8794 34.1379C45.7268 34.4993 45.4997 34.8244 45.2131 35.0922C44.9218 35.3728 44.5775 35.5925 44.2004 35.7386C43.8232 35.8847 43.4207 35.9543 43.0164 35.9432C42.2607 35.9419 41.5294 35.6754 40.95 35.1901C40.6296 34.9248 40.3764 34.5875 40.2111 34.2058C40.0458 33.8241 39.9731 33.4086 39.9989 32.9934V21.0205H31.4172V32.9948C31.4006 33.5834 31.2133 34.1545 30.8781 34.6386C30.5429 35.1226 30.0742 35.4989 29.5291 35.7215C28.984 35.9441 28.3859 36.0034 27.8077 35.8923C27.2294 35.7813 26.6959 35.5045 26.2721 35.0958C25.6818 34.5299 25.3398 33.7533 25.321 32.9358V21.0205H16.7364V33.1885C16.7311 34.6901 17.0435 36.1758 17.653 37.5481C18.2432 38.8988 19.0883 40.1231 20.142 41.1539C21.2126 42.1988 22.4699 43.0334 23.8486 43.6141C25.2873 44.2304 26.8381 44.5425 28.4033 44.5307C29.7064 44.5318 31.0012 44.3219 32.2373 43.9093C33.4956 43.4884 34.6627 42.8327 35.6767 41.9768C37.7452 43.6711 40.3473 44.5772 43.0207 44.5343C44.5397 44.5362 46.0438 44.2351 47.4451 43.6487C48.8246 43.0838 50.09 42.2731 51.1798 41.2561C52.2613 40.2348 53.1304 39.0099 53.7372 37.6518C54.3707 36.2523 54.6952 34.7326 54.6883 33.1964V21.0205H46.0987Z" fill="white"/>
    <path d="M15.2052 44.5265V24.5155C15.1421 23.3936 14.6911 22.3285 13.9293 21.5023C13.5718 21.1013 13.1317 20.7823 12.6393 20.5672C12.147 20.3521 11.6139 20.2459 11.0767 20.256C9.98242 20.2806 8.93402 20.7 8.12469 21.4368C7.71985 21.7919 7.38966 22.2238 7.15332 22.7076C6.91698 23.1914 6.77922 23.7174 6.74805 24.2549V44.5265H15.2052Z" fill="white"/>
    <path d="M95.7144 19.6509C99.5908 19.6509 102.911 21.2713 105.676 24.5123C107.564 26.876 108.566 29.8261 108.509 32.8514V44.4074L108.39 44.5262H98.909L98.7405 44.3346V32.5418C98.801 31.6588 98.6282 30.7756 98.2394 29.9807C97.8499 29.1858 97.2588 28.5074 96.5244 28.0137L95.7151 27.8697H95.669C94.6027 27.8697 93.7286 28.7913 93.0468 30.6345C92.8876 31.1776 92.7912 31.737 92.7588 32.302V44.3354L92.5903 44.5269H83.154L83.0352 44.4081V31.9931C83.0352 28.6268 84.5522 25.5136 87.5863 22.6533C89.8723 20.7522 92.7415 19.6925 95.7144 19.6509Z" fill="white"/>
    <path fill-rule="evenodd" clip-rule="evenodd" d="M21.5753 59.6022C21.5736 60.5686 21.379 61.525 21.003 62.4152C20.6268 63.3054 20.0768 64.1116 19.3851 64.7865C18.6934 65.4614 17.8739 65.9914 16.9747 66.3454C16.0754 66.6994 15.1146 66.8704 14.1485 66.8483C13.1853 66.8719 12.227 66.7025 11.3303 66.3502C10.4335 65.9978 9.61622 65.4697 8.92668 64.7968C8.23706 64.1239 7.6891 63.3198 7.31495 62.4319C6.9408 61.544 6.74805 60.5902 6.74805 59.6267C6.74805 58.6632 6.9408 57.7095 7.31495 56.8216C7.6891 55.9336 8.23706 55.1296 8.92668 54.4566C9.61622 53.7837 10.4335 53.2556 11.3303 52.9032C12.227 52.5509 13.1853 52.3815 14.1485 52.4051C15.1142 52.3684 16.0775 52.5276 16.98 52.8733C17.8825 53.219 18.7057 53.7441 19.3998 54.4167C20.0939 55.0892 20.6445 55.8955 21.0184 56.7867C21.3923 57.678 21.5817 58.6357 21.5753 59.6022ZM18.1819 59.5986C18.1402 58.8126 17.8692 58.0561 17.4023 57.4224C16.9353 56.7888 16.293 56.3058 15.5546 56.0333C14.8162 55.7607 14.0141 55.7104 13.2475 55.8888C12.4808 56.0671 11.7832 56.4661 11.2409 57.0365C10.6985 57.6069 10.3352 58.3238 10.1958 59.0984C10.0564 59.8731 10.1471 60.6716 10.4565 61.3954C10.766 62.119 11.2807 62.7362 11.9371 63.1706C12.5935 63.605 13.3628 63.8374 14.1499 63.8394C14.6978 63.8415 15.2405 63.7316 15.7445 63.5165C16.2485 63.3013 16.7032 62.9855 17.0808 62.5883C17.4583 62.1912 17.7507 61.721 17.9401 61.2068C18.1294 60.6926 18.2117 60.1457 18.1819 59.5986Z" fill="white"/>
    <path d="M31.4912 52.6118C31.2489 52.5749 31.0041 52.5556 30.759 52.5542C30.0298 52.5609 29.3135 52.7461 28.6725 53.0937C28.0315 53.4412 27.4854 53.9405 27.0819 54.5479C27.0553 53.6839 26.6564 52.7076 24.9939 52.7076H22.6345C22.5218 52.7079 22.4138 52.7529 22.334 52.8326C22.2543 52.9123 22.2093 53.0203 22.209 53.1331V55.2614C22.2093 55.3741 22.2543 55.4822 22.334 55.5619C22.4138 55.6416 22.5218 55.6866 22.6345 55.6869H23.685C23.7252 55.6851 23.7653 55.6902 23.8038 55.702C23.8211 55.7403 23.8278 55.7826 23.8232 55.8244V66.1039C23.8236 66.2166 23.8685 66.3246 23.9483 66.4043C24.028 66.484 24.136 66.529 24.2487 66.5294H26.7371C26.8498 66.529 26.9578 66.484 27.0375 66.4043C27.1172 66.3246 27.1622 66.2166 27.1626 66.1039V60.7975C27.1485 60.0512 27.2456 59.3069 27.4506 58.5892C27.9647 56.9174 29.2333 55.8403 30.6827 55.8403C30.9002 55.8414 31.1173 55.8633 31.3307 55.9058C31.393 55.9203 31.4578 55.9206 31.5202 55.9066C31.5827 55.8925 31.6412 55.8645 31.6913 55.8247C31.7414 55.7849 31.782 55.7343 31.8098 55.6766C31.8375 55.619 31.8519 55.5558 31.8519 55.4918V53.0294C31.8515 52.9282 31.8149 52.8305 31.7488 52.7539C31.6826 52.6773 31.5912 52.6269 31.4912 52.6118Z" fill="white"/>
    <path fill-rule="evenodd" clip-rule="evenodd" d="M46.5862 53.1465V55.2748C46.5858 55.3876 46.5409 55.4956 46.4611 55.5753C46.3814 55.655 46.2734 55.7 46.1607 55.7003H45.1368C44.9986 55.7003 44.9986 55.7313 44.9986 55.7846V65.5766C45.0439 66.5099 44.8678 67.4407 44.4846 68.2931C44.1015 69.1453 43.5221 69.8949 42.7939 70.4805C41.4083 71.4693 39.737 71.9771 38.0355 71.9263C36.4273 71.9096 34.8443 71.5254 33.4073 70.8031C33.3097 70.7549 33.2344 70.6712 33.1966 70.5691C33.1588 70.4671 33.1616 70.3545 33.2043 70.2544L34.0517 68.2528C34.0744 68.1975 34.1087 68.1476 34.1523 68.1067C34.1959 68.0657 34.2478 68.0345 34.3044 68.0152C34.3609 67.9963 34.4208 67.9893 34.4801 67.9946C34.5395 68 34.5971 68.0175 34.6493 68.0462C35.6853 68.5638 36.8236 68.8442 37.9815 68.867C41.022 68.867 41.6585 67.1303 41.6585 65.6767V65.1899C40.7128 66.026 39.4758 66.4557 38.2155 66.3859C34.5535 66.3859 31.9961 63.4792 31.9961 59.3198C31.9961 55.1863 34.4578 52.4078 38.1161 52.4078C38.8221 52.3693 39.5288 52.4722 40.1944 52.7106C40.8602 52.949 41.4715 53.318 41.9926 53.7959C42.1249 53.4456 42.3701 53.1492 42.6895 52.9537C43.009 52.7581 43.3844 52.6745 43.7566 52.7159H46.1686C46.2247 52.7156 46.2802 52.7266 46.3318 52.7483C46.3835 52.77 46.4302 52.8019 46.4692 52.8422C46.5083 52.8823 46.5387 52.9301 46.5588 52.9823C46.5789 53.0347 46.5883 53.0905 46.5862 53.1465ZM38.5035 55.4123C36.5285 55.4123 35.3938 56.8156 35.3938 59.2658C35.3938 61.8002 36.6631 63.3763 38.7101 63.3763C40.6923 63.3763 41.7427 61.9809 41.7427 59.3443C41.7435 56.6623 40.7117 55.4123 38.5035 55.4123Z" fill="white"/>
    <path fill-rule="evenodd" clip-rule="evenodd" d="M60.5832 63.9778V66.1039C60.5828 66.2167 60.5379 66.3247 60.4581 66.4045C60.3784 66.4842 60.2704 66.5291 60.1576 66.5295H57.8263C56.7297 66.5295 56.0436 66.0579 55.8441 65.1874C55.3778 65.7228 54.7986 66.1484 54.1483 66.4335C53.498 66.7185 52.7926 66.8561 52.0828 66.8362C49.6824 66.8362 47.248 65.3335 47.248 62.4615C47.248 59.3251 50.177 57.6 55.4956 57.6H55.6296C55.5684 55.8288 54.924 55.224 53.1909 55.224C52.386 55.224 51.4888 55.4616 51.4888 55.8V56.5438C51.4885 56.6565 51.4436 56.7645 51.3638 56.8443C51.2841 56.924 51.1761 56.9689 51.0633 56.9694H48.732C48.6192 56.9689 48.5112 56.924 48.4315 56.8443C48.3518 56.7645 48.3068 56.6565 48.3064 56.5438V55.2629C48.3064 54.7877 48.5404 52.4023 53.2183 52.4023C57.0948 52.4023 58.9783 54.2023 58.9783 57.9046V63.4184C58.9737 63.4602 58.9804 63.5024 58.9977 63.5408C59.0362 63.5526 59.0763 63.5577 59.1165 63.5559H60.1648C60.2202 63.5554 60.2752 63.566 60.3263 63.5871C60.3775 63.6081 60.424 63.6393 60.463 63.6786C60.502 63.7179 60.5328 63.7647 60.5534 63.8161C60.574 63.8674 60.5842 63.9224 60.5832 63.9778ZM50.622 62.3405C50.622 63.1613 51.2433 63.9894 52.6308 63.9894C54.4178 63.9894 55.6634 62.0417 55.6634 60.2892V60.2813H55.4474C53.1988 60.2813 50.6184 60.5153 50.622 62.3405Z" fill="white"/>
    <path d="M76.2167 63.5542H75.1662C75.1266 63.556 75.0863 63.5508 75.0474 63.539C75.0302 63.5007 75.0237 63.4584 75.028 63.4166V57.8006C75.028 54.2158 73.3828 52.4006 70.1395 52.4006C69.2979 52.3872 68.4635 52.5575 67.6946 52.8999C66.9257 53.2423 66.2408 53.7483 65.6877 54.3828C65.638 53.6851 65.2701 52.711 63.6285 52.711H61.2439C61.1311 52.7113 61.0231 52.7563 60.9434 52.836C60.8636 52.9157 60.8187 53.0237 60.8184 53.1365V55.2648C60.8187 55.3776 60.8636 55.4856 60.9434 55.5653C61.0231 55.645 61.1311 55.6899 61.2439 55.6903H62.2951C62.3353 55.6885 62.3754 55.6936 62.4139 55.7054C62.4312 55.7437 62.4379 55.786 62.4333 55.8278V66.1073C62.4337 66.22 62.4786 66.328 62.5584 66.4077C62.6381 66.4874 62.7461 66.5324 62.8588 66.5328H65.3472C65.4599 66.5324 65.5679 66.4874 65.6476 66.4077C65.7273 66.328 65.7723 66.22 65.7727 66.1073V60.0298C65.7519 59.4877 65.822 58.9459 65.98 58.427C65.9844 58.4188 65.9871 58.4097 65.988 58.4004C66.1908 57.5769 66.6658 56.846 67.3359 56.3262C68.006 55.8063 68.832 55.528 69.6801 55.5362C71.164 55.5362 71.6889 56.2764 71.6889 58.3658V64.4657C71.6889 65.8574 72.3636 66.5321 73.755 66.5321H76.2167C76.3298 66.5317 76.4378 66.4867 76.5177 66.407C76.5969 66.3273 76.6422 66.2193 76.6422 66.1066V63.9782C76.6415 63.8658 76.5962 63.7583 76.517 63.6789C76.437 63.5995 76.3298 63.5547 76.2167 63.5542Z" fill="white"/>
    <path d="M83.1098 63.5558H82.0593C82.019 63.5576 81.9794 63.5525 81.9405 63.5407C81.9233 63.5024 81.9168 63.4601 81.9211 63.4183V54.7783C81.9211 53.3866 81.2465 52.7119 79.8547 52.7119H77.4197C77.3073 52.7123 77.1993 52.7573 77.1194 52.837C77.0395 52.9167 76.9949 53.0248 76.9941 53.1374V55.2658C76.9949 55.3785 77.0395 55.4865 77.1194 55.5663C77.1993 55.646 77.3073 55.6909 77.4197 55.6913H78.4701C78.5105 55.6895 78.5508 55.6947 78.5889 55.7064C78.6062 55.7448 78.6134 55.787 78.6084 55.8288V64.4688C78.6084 65.8606 79.283 66.5352 80.6748 66.5352H83.1098C83.2229 66.5348 83.3309 66.4899 83.4108 66.4102C83.49 66.3304 83.5353 66.2224 83.5353 66.1097V63.9814C83.5361 63.9253 83.5253 63.8698 83.5044 63.818C83.4828 63.7661 83.4518 63.7191 83.4122 63.6795C83.3726 63.6398 83.3251 63.6085 83.2733 63.5873C83.2214 63.5661 83.166 63.5554 83.1098 63.5558Z" fill="white"/>
    <path d="M79.0896 51.0246H81.3216C81.4339 51.0243 81.5419 50.9793 81.6219 50.8996C81.7018 50.8199 81.7464 50.7119 81.7471 50.5991V48.01C81.7464 47.8973 81.7018 47.7892 81.6219 47.7095C81.5419 47.6298 81.4339 47.5849 81.3216 47.5845H79.0896C78.9766 47.5849 78.8686 47.6298 78.7887 47.7095C78.7095 47.7892 78.6641 47.8973 78.6641 48.01V50.602C78.6634 50.6579 78.6742 50.7132 78.6958 50.7649C78.7167 50.8166 78.7483 50.8634 78.7879 50.9027C78.8275 50.9421 78.8743 50.9732 78.9262 50.9941C78.978 51.0151 79.0335 51.0254 79.0896 51.0246Z" fill="white"/>
    <path d="M96.1913 62.1991C96.1567 62.1421 96.1092 62.0939 96.0523 62.0586C95.9962 62.0233 95.9314 62.0019 95.8651 61.9961C95.7982 61.9894 95.7305 61.999 95.6679 62.024C95.6052 62.0491 95.5491 62.0889 95.5051 62.1401C94.5281 63.1479 93.1997 63.7409 91.7971 63.7961C91.2442 63.8176 90.6919 63.7236 90.1771 63.5202C89.6623 63.3167 89.1951 63.0082 88.8063 62.6144C88.4167 62.2205 88.1136 61.7499 87.9163 61.2325C87.7191 60.7151 87.6319 60.1623 87.66 59.6093C87.66 57.1289 89.3088 55.3959 91.6704 55.3959C92.4797 55.3959 93.6526 55.7487 93.6526 56.3009V57.0209C93.6533 57.1337 93.6979 57.2417 93.7779 57.3214C93.8571 57.4011 93.965 57.446 94.0781 57.4464H96.3324C96.4455 57.446 96.5535 57.4011 96.6327 57.3214C96.7126 57.2417 96.7579 57.1337 96.7579 57.0209V55.6867C96.7579 53.2863 93.7138 52.4165 91.6661 52.4165C87.3792 52.4165 84.2659 55.4535 84.2659 59.6359C84.2415 60.6019 84.4157 61.5626 84.7779 62.4583C85.1407 63.354 85.6829 64.1656 86.3727 64.8427C87.0617 65.5198 87.8832 66.0478 88.7854 66.3941C89.6875 66.7403 90.6509 66.8974 91.6164 66.8554C92.6662 66.8714 93.7073 66.6675 94.6735 66.2568C95.6398 65.8462 96.5095 65.2377 97.2259 64.4707C97.2828 64.4021 97.3159 64.3176 97.3224 64.229C97.3289 64.1403 97.3073 64.0518 97.2605 63.9761L96.1913 62.1991Z" fill="white"/>
    <path d="M103.958 58.107C102.604 57.5857 101.438 57.1328 101.438 56.3703C101.438 55.4041 102.68 55.2587 103.42 55.2587C104.126 55.2587 104.942 55.5539 104.942 55.9333V56.5733C104.943 56.6861 104.988 56.7941 105.067 56.8738C105.147 56.9535 105.255 56.9985 105.368 56.9989H107.599C107.712 56.9985 107.82 56.9535 107.899 56.8738C107.979 56.7941 108.024 56.6861 108.025 56.5733V55.3428C108.025 53.023 105.08 52.4023 103.345 52.4023C100.108 52.4023 98.0993 53.9591 98.0993 56.4704C98.0993 59.1503 100.63 60.1741 102.666 60.9985C103.958 61.5198 105.173 62.0144 105.173 62.7265C105.173 63.9073 103.651 63.9649 103.345 63.9649C102.658 63.9282 101.987 63.7529 101.37 63.4498C100.753 63.1466 100.204 62.7218 99.7561 62.2009C99.715 62.1508 99.6639 62.1103 99.6056 62.0825C99.5465 62.0546 99.4832 62.04 99.4184 62.0396C99.3536 62.0399 99.2902 62.0549 99.2326 62.0835C99.175 62.1121 99.1246 62.1535 99.085 62.2044L97.8041 63.872C97.7465 63.9459 97.7149 64.0366 97.7149 64.1302C97.7141 64.2238 97.7444 64.315 97.8005 64.3897C98.4824 65.1808 99.3313 65.8108 100.286 66.2342C101.241 66.6576 102.277 66.8636 103.321 66.8377C106.381 66.8377 108.517 65.1011 108.517 62.6163C108.509 59.8595 105.986 58.8889 103.958 58.107Z" fill="white"/>
    <path fill-rule="evenodd" clip-rule="evenodd" d="M13.644 16.8322C13.3966 17.3229 13.1214 17.7991 12.8196 18.2585C12.6942 18.4401 12.5163 18.5793 12.3099 18.6574C12.183 18.7133 12.0461 18.7432 11.9074 18.7452H11.8419C11.5582 18.7301 4.82548 18.2966 2.57476 13.7261C0.42556 9.3744 2.5906 1.1736 2.68204 0.828C2.74617 0.590278 2.88687 0.380324 3.08237 0.230641C3.27787 0.080959 3.51726 -0.000104293 3.76348 1.35476e-06C3.90948 -0.000226946 4.0541 0.0284015 4.189 0.0842414C4.51876 0.222481 12.3329 3.48912 14.485 7.85232C16.087 11.1002 14.6491 14.873 13.644 16.8322ZM12.1183 9.018C10.8951 6.5376 6.68956 4.21344 4.8334 3.28608C4.43812 5.32224 3.7174 10.0685 4.94428 12.5532C5.6686 14.0256 7.22596 14.8997 8.71345 15.4138C9.10845 15.5951 9.53087 15.7092 9.96337 15.7514C8.68948 14.5882 7.74919 13.106 7.23961 11.4579C6.73003 9.80986 6.66964 8.05558 7.06468 6.37632C7.49668 9.52776 9.40321 13.5158 11.8498 14.4014C12.4135 12.9521 12.9694 10.751 12.1183 9.018Z" fill="white"/>
    </g>
    <defs>
    <clipPath id="clip0_649_15583">
    <rect width="108" height="72" fill="white" transform="translate(0.980469)"/>
    </clipPath>
    </defs>
</svg>