<svg width="156" height="28" viewBox="0 0 156 28" fill="none" xmlns="http://www.w3.org/2000/svg">
    <path d="M10.1001 17.7114C10.2368 17.8481 17.7404 18.3949 18.0138 18.2582C18.2872 18.1215 18.4238 17.8481 18.4238 17.8481C18.4238 17.8481 18.6972 15.9416 18.6972 15.8049C18.6972 15.6682 16.6541 15.6682 15.6972 15.5315C14.7404 15.3949 13.244 15.3949 13.244 15.3949C13.244 15.3949 12.8339 12.2582 12.9706 10.0783C13.1073 7.89843 12.6972 2.43799 12.6972 2.43799H9.15039C9.15039 2.43799 9.15044 7.07829 9.28713 8.71138C9.42382 10.3445 9.97059 17.5747 10.1073 17.7114H10.1001ZM16.762 17.3373C17.0497 17.3157 17.2512 17.0567 17.3807 16.7474C17.503 16.438 17.7763 16.5387 17.8051 16.6754C17.8339 16.8121 17.5678 17.438 17.3303 17.5891C17.0929 17.7474 15.9202 17.5172 15.9202 17.5172C15.9202 17.5172 16.4814 17.3589 16.7692 17.3373H16.762Z" fill="#FFFFFF"/>
    <path d="M23.4754 2.56231C23.3459 2.1954 22.9862 1.54072 22.9862 1.54072C22.9862 1.54072 19.5761 1.13065 19.4394 1.40403C19.3027 1.67742 18.8927 2.77094 18.756 3.03713C18.6409 3.26015 16.8854 8.23139 16.2523 10.03C16.1084 10.4328 15.8926 11.6271 15.8926 11.6271L16.1588 11.663L17.943 11.7638H18.7632L19.2307 9.69902L22.6336 10.2386C22.7703 12.922 23.1228 19.1307 23.1228 19.1307C23.1228 19.1307 23.943 19.4041 24.2164 19.4041C24.4898 19.4041 26.1229 19.2674 26.1229 19.2674C26.1229 19.2674 25.3027 10.9508 25.0293 8.76376C24.7416 6.4616 23.8351 3.56951 23.4754 2.55512V2.56231ZM21.0725 3.4472L21.7559 3.58389C21.7559 3.58389 22.202 6.48318 22.4322 8.05872L19.7056 7.67743L21.0725 3.4472ZM22.72 8.8357C22.4826 8.77815 21.2812 8.26736 21.2812 8.26736C21.2812 8.26736 22.7415 8.39685 22.9214 8.56232C23.1012 8.72779 22.9574 8.89326 22.72 8.8357Z" fill="#FFFFFF"/>
    <path d="M4.17877 25.6257L11.7255 25.6472L17.9773 25.1221C17.9773 25.1221 17.8047 23.453 17.8191 22.9926C17.8334 22.5321 17.4018 22.3019 17.4018 22.3019C17.4018 22.3019 14.5529 22.6041 13.7256 22.5537C12.8982 22.5034 7.56725 22.6616 6.94854 22.0429C6.33703 21.4242 4.819 13.6256 4.74706 12.9494C4.67511 12.2731 4.17157 7.5249 4.17157 7.5249L0.236328 7.94217C0.236328 7.94217 2.13557 16.7911 2.26507 18.0141C2.39457 19.2372 4.17157 25.6257 4.17157 25.6257H4.17877ZM1.80463 9.23714C1.84779 9.86304 2.32259 11.7551 2.32259 11.7551V11.8343C1.91971 11.3738 1.48806 10.0789 1.32978 9.48894C1.17151 8.89901 1.75426 8.61124 1.79743 9.23714H1.80463Z" fill="#FFFFFF"/>
    <path d="M31.9352 20.3751C32.0647 19.5693 32.3165 7.4182 32.3597 7.15202C32.3597 7.15202 33.1295 6.89302 33.2518 7.0513C33.4388 7.28871 33.7266 16.1089 33.8201 16.3966C33.9137 16.6844 36.0216 17.3031 36.4245 17.3679C36.8273 17.4326 39.3022 7.37504 39.3022 7.37504L40.187 7.75633C40.187 7.75633 39.1367 14.4902 39.1079 15.3175C39.0719 16.4182 38.3381 22.6556 38.4101 23.0801C38.482 23.5046 41.2878 24.0945 41.7122 24.0298C42.1367 23.9578 42.5899 7.45418 42.0647 6.40381C41.5467 5.35345 38.2446 4.40381 38.2446 4.40381L37.9568 4.7851L35.9712 11.634L35.3669 4.97935L30.1655 4.88582C30.1655 4.88582 29.6691 4.82108 29.5396 5.15201C29.2158 6.49734 29.036 9.61965 28.9209 10.9002C28.7266 12.9434 28.4316 22.4326 28.4316 22.4326L31.5036 23.0657C31.5036 23.0657 31.8489 20.929 31.9352 20.3751ZM34.3166 13.7923C34.3166 13.7923 34.4388 14.6269 34.6259 15.2024C34.7554 15.6197 34.9712 15.9146 34.964 16.0297C34.9568 16.3031 34.5324 16.2528 34.4604 16.1305C34.1799 15.6412 34.3166 13.7923 34.3166 13.7923Z" fill="#FFFFFF"/>
    <path d="M55.5962 21.9437C56.0638 14.8646 52.0063 3.00843 51.5746 2.00123C51.4595 1.72066 47.9343 1.21706 47.5171 1.32497C47.0998 1.43289 46.4667 6.85736 46.035 9.28902C45.6033 11.7207 44.7832 20.0013 44.7832 20.0013C44.7832 20.0013 47.7401 20.7423 47.8984 20.4761C47.9631 20.3682 48.0566 19.066 48.1502 17.5552L52.0207 17.9581C52.0494 19.4545 52.0566 21.4905 52.1861 21.7135C52.4307 22.138 55.553 22.4833 55.589 21.9365L55.5962 21.9437ZM47.9559 2.80699C47.6465 2.80699 48.0638 2.22426 48.1933 2.09476C48.3228 1.96526 49.7113 2.36814 49.7113 2.36814C49.7113 2.36814 48.6753 2.33936 48.5027 2.44008C48.4091 2.49764 48.2652 2.80699 47.9559 2.80699ZM48.294 15.1451C48.3659 13.7926 48.4163 12.6919 48.4235 12.584C48.4379 12.3106 49.3803 4.31059 49.3803 4.31059L50.071 4.21707C50.3372 4.36815 51.8911 13.9077 51.9703 14.8646C51.9775 14.9653 51.9847 15.1236 51.9919 15.3034L48.3012 15.138L48.294 15.1451Z" fill="#FFFFFF"/>
    <path d="M75.3424 2.15869H74.2633C74.2633 2.15869 74.2705 7.64072 74.213 9.0364C74.1698 9.93569 73.105 17.8925 73.105 17.8925L72.5295 18.4177C72.5295 18.4177 70.5655 4.6551 70.4432 4.33855C70.3209 4.022 65.4863 4.12992 65.4863 4.12992L65.6734 21.7487L67.3424 22.2307C67.3424 22.2307 67.5079 19.1371 67.4431 18.1299C67.3784 17.1228 66.9396 8.18748 66.9396 8.18748L67.5727 7.97885C67.5727 7.97885 70.0259 24.3026 70.3425 24.5328C70.7957 24.8494 74.7957 23.4609 74.7957 23.4609C74.7957 23.4609 75.8029 14.7199 75.8389 13.8709C75.8964 12.2522 76.6014 2.92128 76.5367 2.73423C76.472 2.54718 75.3352 2.16589 75.3352 2.16589L75.3424 2.15869ZM69.5655 5.53999C69.4288 5.27381 68.2633 5.25942 68.2993 4.97884C68.3353 4.69827 68.9324 4.69827 69.4648 4.77021C69.9972 4.84215 70.1194 6.35295 70.1194 6.35295C70.1194 6.35295 69.695 5.80618 69.5583 5.53999H69.5655Z" fill="#FFFFFF"/>
    <path d="M87.1226 18.647C87.1802 18.1146 86.4968 10.5391 86.3745 10.1002C86.2522 9.66139 81.6334 8.67577 81.5687 9.2657C81.5039 9.85563 79.8205 16.3377 79.6046 18.2729C79.3888 20.201 78.0723 26.8773 78.0723 26.8773L80.5399 27.2801L81.137 21.3305L84.0867 21.5751L84.1658 27.1219C84.1658 27.1219 87.137 27.3233 87.5903 26.7406C87.8708 26.3737 87.0723 19.1938 87.1298 18.6614L87.1226 18.647ZM80.7557 18.5751L82.4607 12.3952L83.1874 12.4743L83.5255 18.8844L80.7557 18.5751ZM87.2377 26.1578C87.1802 26.4168 86.6622 26.424 86.8277 26.1003C86.9932 25.7765 87.0723 24.3305 87.0723 24.3305C87.0723 24.3305 87.2953 25.8988 87.2377 26.1578Z" fill="#FFFFFF"/>
    <path d="M101.504 7.85127V4.85126L79.9856 4.23975C79.9856 4.23975 79.554 6.23975 79.7194 6.48436C79.8849 6.72177 92.0072 6.74335 92.0072 6.74335C92.0072 6.74335 91.9209 10.0743 91.7626 11.5203C91.6043 12.9664 91.4388 23.4844 91.6403 23.8297C91.8489 24.1822 94.7338 23.8297 94.7338 23.8297C94.7338 23.8297 94.7339 20.4268 94.6547 19.4628C94.5756 18.4988 94.8489 7.52033 94.8489 7.52033L101.504 7.85127ZM80.6331 5.26133C80.295 5.22536 80.5323 4.83687 80.7554 4.82248C80.9784 4.80809 83.1798 4.88004 83.1798 4.88004C83.1798 4.88004 80.9784 5.29011 80.6402 5.25414L80.6331 5.26133Z" fill="#FFFFFF"/>
    <path d="M104.801 7.28076C104.671 7.84191 104.865 16.547 105.045 17.8779C105.225 19.2088 104.563 21.8779 103.391 22.0506C102.218 22.2232 101.441 18.6261 101.412 17.1441C101.384 15.6621 101.304 11.6621 101.304 11.6621C101.304 11.6621 98.5992 11.4318 97.8223 11.8995C97.8223 11.8995 98.4266 17.4247 98.6568 19.6693C98.887 21.9067 101.606 25.3024 102.729 25.5038C103.851 25.7053 107.074 24.734 107.204 22.1513C107.333 19.5686 108.204 6.734 108.204 6.734C108.204 6.734 104.93 6.71241 104.801 7.27357V7.28076ZM105.923 23.6621C105.556 23.8707 105.412 23.4894 105.556 23.3743C106.168 23.0362 106.772 21.2304 106.772 21.2304C106.671 22.3096 106.283 23.4535 105.923 23.6621Z" fill="#FFFFFF"/>
    <path d="M129.386 1.61182C129.386 1.61182 126.285 12.1442 125.803 13.0435C125.321 13.9428 123.76 18.7701 123.76 18.7701L126.206 19.8133L127.163 17.8708L130.508 18.3025L130.573 22.6622L133.983 23.2162C133.983 23.2162 134.292 12.4823 134.299 12.0291C134.299 11.5687 134.868 3.97153 134.299 3.33124C133.731 2.69096 129.379 1.6262 129.379 1.6262L129.386 1.61182ZM130.94 16.0003L128.321 15.4536L130.709 7.35284L131.501 7.43917L130.94 15.9931V16.0003ZM130.378 3.21614C129.868 3.25211 129.688 2.92117 130.141 2.72693C130.594 2.53268 132.328 3.30966 132.328 3.30966C132.328 3.30966 130.889 3.18017 130.378 3.21614Z" fill="#FFFFFF"/>
    <path d="M140.796 22.5761C140.796 22.5761 141.307 12.8062 141.401 12.2091C142.242 7.12278 143.537 1.26666 143.422 1.10119C143.307 0.93572 139.724 0.647949 139.724 0.647949C139.724 0.647949 138.451 8.1084 138.149 14.5401C138.084 15.8566 137.12 25.2667 137.494 25.4322C137.875 25.5976 145.559 26.1012 145.559 26.1012C145.559 26.1012 145.602 24.0293 145.624 23.7415C145.638 23.4106 140.796 22.5832 140.796 22.5832V22.5761ZM141.703 2.54004C141.811 2.06522 142.343 2.05083 142.271 2.43213C142.199 2.81342 141.523 5.86379 141.523 5.86379C141.523 5.86379 141.595 3.01486 141.703 2.54004Z" fill="#FFFFFF"/>
    <path d="M155.238 17.8622C155.173 16.8046 154.569 12.9989 153.77 12.2794C152.979 11.56 149.08 10.4377 148.821 10.0348C148.13 8.96289 149.001 7.00605 149.101 6.94131C149.511 6.70389 150.965 6.58159 151.727 7.14994C152.404 7.65354 152.116 9.5816 152.238 10.0133C152.332 10.337 154.468 10.2435 154.641 9.63196C154.814 9.01325 153.914 6.08519 153.778 5.90533C153.432 5.45209 151.346 5.03483 151.346 5.03483C151.346 5.03483 148.015 4.58878 146.842 5.53842C145.662 6.49526 145.648 10.9917 146.396 11.819C147.144 12.6464 151.483 12.3946 151.9 14.4018C152.037 15.0564 152.821 19.1931 151.821 19.4881C150.821 19.7831 148.814 18.301 148.814 18.301C148.814 18.301 148.029 15.0277 147.749 14.8766C147.475 14.7255 144.914 14.6464 144.893 15.2938C144.878 15.9413 146.101 19.2651 146.943 20.2075C148.281 21.6967 152.857 21.9485 153.475 21.7471C154.583 21.3874 155.296 18.9269 155.231 17.8694L155.238 17.8622ZM154.022 14.1284C153.95 13.891 153.267 12.8622 152.972 12.7759C152.677 12.6895 151.907 12.5672 152.18 12.3082C152.454 12.0492 153.029 12.3874 153.403 12.6535C153.778 12.9197 154.022 14.0708 154.022 14.0708V14.1284Z" fill="#FFFFFF"/>
    <path d="M122.074 13.4305C122.808 11.819 123.419 5.39448 121.275 4.08513C119.131 2.77577 112.254 2.12109 112.254 2.12109C112.254 2.12109 111.944 8.86931 111.599 11.4233C111.254 13.9772 110.182 23.1427 110.182 23.1427C110.182 23.1427 112.196 24.0348 112.649 24.006C113.103 23.9773 113.88 23.8334 113.88 23.8334L114.218 14.6391L120.455 23.8046L123.808 22.0348L117.664 14.9413C117.664 14.9413 121.347 15.0492 122.081 13.4377L122.074 13.4305ZM120.88 12.9557C121.153 12.6247 121.21 11.5887 121.297 11.4952C121.39 11.4017 121.736 11.4736 121.7 11.7326C121.664 11.9916 121.498 13.0708 121.095 13.2938C120.736 13.4952 120.225 13.6967 119.901 13.7398C119.887 13.747 119.872 13.7542 119.872 13.7542H119.779C119.779 13.7542 119.858 13.7398 119.894 13.7398C120.016 13.6607 120.628 13.2506 120.872 12.9557H120.88ZM115.052 11.5312C114.959 11.4952 115.39 6.52398 115.39 6.52398C115.39 6.52398 118.736 6.57434 119.059 7.03477C119.261 7.32254 119.707 8.7542 119.642 9.3801C119.585 10.006 119.347 10.9197 118.685 11.4377C118.095 11.8981 115.146 11.5744 115.052 11.5384V11.5312Z" fill="#FFFFFF"/>
</svg>