<svg width="78" height="88" viewBox="0 0 78 88" fill="none" xmlns="http://www.w3.org/2000/svg">
    <path d="M73.9199 0H4.91992C2.71078 0 0.919922 1.79086 0.919922 4V84C0.919922 86.2091 2.71078 88 4.91992 88H73.9199C76.1291 88 77.9199 86.2091 77.9199 84V4C77.9199 1.79086 76.1291 0 73.9199 0Z" fill="black"/>
    <path d="M18.8135 14.292L18.2656 15.0117C18.0579 15.291 17.8753 15.4307 17.7178 15.4307C17.639 15.4307 17.571 15.4128 17.5137 15.377C17.4564 15.3411 17.2988 15.2122 17.041 14.9902C16.8763 14.8613 16.6292 14.7467 16.2998 14.6465C15.9704 14.5462 15.666 14.4961 15.3867 14.4961C14.7565 14.4961 14.2445 14.6751 13.8506 15.0332C13.4997 15.3483 13.3242 15.7135 13.3242 16.1289C13.3242 16.5299 13.4782 16.8594 13.7861 17.1172C14.1012 17.3678 14.6885 17.6507 15.5479 17.9658C16.3643 18.2594 16.973 18.5101 17.374 18.7178C17.7751 18.9183 18.1439 19.1582 18.4805 19.4375C19.347 20.168 19.7803 21.1956 19.7803 22.5205C19.7803 24.1032 19.2253 25.3421 18.1152 26.2373C17.1842 26.9821 16.0348 27.3545 14.667 27.3545C13.5641 27.3545 12.5651 27.0859 11.6699 26.5488C11.1901 26.2624 10.7533 25.9222 10.3594 25.5283C9.97266 25.1273 9.7793 24.8265 9.7793 24.626C9.7793 24.4971 9.89746 24.318 10.1338 24.0889L10.8643 23.3799C11.1006 23.1507 11.276 23.0361 11.3906 23.0361C11.5339 23.0361 11.6663 23.1077 11.7881 23.251C12.1175 23.6592 12.3288 23.9062 12.4219 23.9922C12.515 24.0781 12.6689 24.182 12.8838 24.3037C13.4209 24.5973 13.9867 24.7441 14.5811 24.7441C15.3187 24.7441 15.8952 24.5078 16.3105 24.0352C16.6615 23.6413 16.8369 23.1901 16.8369 22.6816C16.8369 22.0729 16.5684 21.5788 16.0312 21.1992C15.7734 21.013 15.0967 20.7194 14.001 20.3184C12.8838 19.9173 12.0602 19.4912 11.5303 19.04C10.764 18.3955 10.3809 17.5039 10.3809 16.3652C10.3809 14.8184 11.0254 13.6367 12.3145 12.8203C13.0879 12.3333 13.9723 12.0898 14.9678 12.0898C15.6696 12.0898 16.3857 12.2152 17.1162 12.4658C17.8538 12.7093 18.4518 13.028 18.9102 13.4219C19.0319 13.5221 19.0928 13.6439 19.0928 13.7871C19.0928 13.8874 18.9997 14.0557 18.8135 14.292ZM30.8447 23.9062H24.8506L23.7656 26.4521C23.6439 26.7243 23.5472 26.8854 23.4756 26.9355C23.404 26.9785 23.2214 27 22.9277 27H21.4775C21.2197 27 21.0479 26.9821 20.9619 26.9463C20.8044 26.8747 20.7256 26.7529 20.7256 26.5811C20.7256 26.4951 20.7757 26.3304 20.876 26.0869L26.6123 12.584C26.641 12.5124 26.666 12.4515 26.6875 12.4014C26.752 12.2295 26.8236 12.1257 26.9023 12.0898C26.9883 12.0469 27.1709 12.0254 27.4502 12.0254H28.3848C28.6855 12.0254 28.8717 12.0505 28.9434 12.1006C29.015 12.1507 29.1081 12.3154 29.2227 12.5947L34.7979 26.0869C34.8981 26.3304 34.9482 26.4951 34.9482 26.5811C34.9482 26.7386 34.891 26.8496 34.7764 26.9141C34.6689 26.9714 34.4756 27 34.1963 27H32.7139C32.4131 27 32.2233 26.9749 32.1445 26.9248C32.0729 26.8747 31.9834 26.71 31.876 26.4307L30.8447 23.9062ZM29.9531 21.5859L27.8906 16.3115L25.7637 21.5859H29.9531ZM39.7393 24.5186H43.499C43.8356 24.5186 44.0469 24.5615 44.1328 24.6475C44.2188 24.7334 44.2617 24.9447 44.2617 25.2812V26.2373C44.2617 26.5739 44.2188 26.7852 44.1328 26.8711C44.0469 26.957 43.8356 27 43.499 27H37.6445C37.3079 27 37.0967 26.957 37.0107 26.8711C36.9248 26.7852 36.8818 26.5739 36.8818 26.2373V13.0996C36.8818 12.763 36.9248 12.5518 37.0107 12.4658C37.0967 12.3799 37.3079 12.3369 37.6445 12.3369H38.9873C39.3167 12.3369 39.5244 12.3799 39.6104 12.4658C39.6963 12.5518 39.7393 12.763 39.7393 13.0996V24.5186ZM49.1064 14.8184V18.0732H53.4033C53.7399 18.0732 53.9512 18.1162 54.0371 18.2021C54.123 18.2881 54.166 18.4993 54.166 18.8359V19.792C54.166 20.1286 54.123 20.3398 54.0371 20.4258C53.9512 20.5117 53.7399 20.5547 53.4033 20.5547H49.1064V24.5186H53.6182C53.9476 24.5186 54.1553 24.5615 54.2412 24.6475C54.3271 24.7334 54.3701 24.9447 54.3701 25.2812V26.2373C54.3701 26.5739 54.3271 26.7852 54.2412 26.8711C54.1553 26.957 53.9476 27 53.6182 27H47.0117C46.6751 27 46.4639 26.957 46.3779 26.8711C46.292 26.7852 46.249 26.5739 46.249 26.2373V13.0996C46.249 12.763 46.292 12.5518 46.3779 12.4658C46.4639 12.3799 46.6751 12.3369 47.0117 12.3369H53.6182C53.9404 12.3369 54.1481 12.3835 54.2412 12.4766C54.3271 12.5625 54.3701 12.7702 54.3701 13.0996V14.0557C54.3701 14.3923 54.3271 14.6035 54.2412 14.6895C54.1553 14.7754 53.9476 14.8184 53.6182 14.8184H49.1064ZM65.3486 14.292L64.8008 15.0117C64.5931 15.291 64.4105 15.4307 64.2529 15.4307C64.1742 15.4307 64.1061 15.4128 64.0488 15.377C63.9915 15.3411 63.834 15.2122 63.5762 14.9902C63.4115 14.8613 63.1644 14.7467 62.835 14.6465C62.5055 14.5462 62.2012 14.4961 61.9219 14.4961C61.2917 14.4961 60.7796 14.6751 60.3857 15.0332C60.0348 15.3483 59.8594 15.7135 59.8594 16.1289C59.8594 16.5299 60.0133 16.8594 60.3213 17.1172C60.6364 17.3678 61.2236 17.6507 62.083 17.9658C62.8994 18.2594 63.5081 18.5101 63.9092 18.7178C64.3102 18.9183 64.679 19.1582 65.0156 19.4375C65.8822 20.168 66.3154 21.1956 66.3154 22.5205C66.3154 24.1032 65.7604 25.3421 64.6504 26.2373C63.7194 26.9821 62.57 27.3545 61.2021 27.3545C60.0993 27.3545 59.1003 27.0859 58.2051 26.5488C57.7253 26.2624 57.2884 25.9222 56.8945 25.5283C56.5078 25.1273 56.3145 24.8265 56.3145 24.626C56.3145 24.4971 56.4326 24.318 56.6689 24.0889L57.3994 23.3799C57.6357 23.1507 57.8112 23.0361 57.9258 23.0361C58.069 23.0361 58.2015 23.1077 58.3232 23.251C58.6527 23.6592 58.8639 23.9062 58.957 23.9922C59.0501 24.0781 59.2041 24.182 59.4189 24.3037C59.9561 24.5973 60.5218 24.7441 61.1162 24.7441C61.8538 24.7441 62.4303 24.5078 62.8457 24.0352C63.1966 23.6413 63.3721 23.1901 63.3721 22.6816C63.3721 22.0729 63.1035 21.5788 62.5664 21.1992C62.3086 21.013 61.6318 20.7194 60.5361 20.3184C59.4189 19.9173 58.5954 19.4912 58.0654 19.04C57.2992 18.3955 56.916 17.5039 56.916 16.3652C56.916 14.8184 57.5605 13.6367 58.8496 12.8203C59.623 12.3333 60.5075 12.0898 61.5029 12.0898C62.2048 12.0898 62.9209 12.2152 63.6514 12.4658C64.389 12.7093 64.987 13.028 65.4453 13.4219C65.5671 13.5221 65.6279 13.6439 65.6279 13.7871C65.6279 13.8874 65.5348 14.0557 65.3486 14.292ZM17.7393 36.0039C20.0452 36.0039 21.9645 36.8239 23.4971 38.4639C24.8649 39.9248 25.5488 41.6615 25.5488 43.6738C25.5488 45.056 25.2015 46.3379 24.5068 47.5195C23.7979 48.7441 22.8203 49.6966 21.5742 50.377C20.3997 51.0143 19.0856 51.333 17.6318 51.333C16.3141 51.333 15.0788 51.0286 13.9258 50.4199C12.5723 49.7109 11.5339 48.7048 10.8105 47.4014C10.1803 46.2699 9.86523 44.9915 9.86523 43.5664C9.86523 41.3822 10.7103 39.5273 12.4004 38.002C13.2454 37.2357 14.2122 36.6914 15.3008 36.3691C16.1243 36.1257 16.9372 36.0039 17.7393 36.0039ZM17.7178 38.6143C16.3571 38.6143 15.2041 39.1084 14.2588 40.0967C13.2992 41.0921 12.8193 42.3024 12.8193 43.7275C12.8193 44.3506 12.9482 44.9772 13.2061 45.6074C13.4639 46.2305 13.8148 46.7747 14.2588 47.2402C15.2041 48.2285 16.3535 48.7227 17.707 48.7227C19.0677 48.7227 20.2243 48.2285 21.1768 47.2402C22.1292 46.2448 22.6055 45.0524 22.6055 43.6631C22.6055 42.9899 22.4801 42.3418 22.2295 41.7188C21.9788 41.0885 21.6279 40.5479 21.1768 40.0967C20.1956 39.1084 19.0426 38.6143 17.7178 38.6143ZM34.2822 44.8125L38.1709 50.0332C38.3571 50.2767 38.4502 50.4557 38.4502 50.5703C38.4502 50.7279 38.3929 50.8389 38.2783 50.9033C38.1637 50.9678 37.9668 51 37.6875 51H35.915C35.6286 51 35.4531 50.9857 35.3887 50.957C35.3314 50.9212 35.224 50.7852 35.0664 50.5488L31.4033 45.1025H31.0381V50.2373C31.0381 50.5739 30.9951 50.7852 30.9092 50.8711C30.8232 50.957 30.6156 51 30.2861 51H28.9434C28.6068 51 28.3955 50.957 28.3096 50.8711C28.2236 50.7852 28.1807 50.5739 28.1807 50.2373V37.0996C28.1807 36.763 28.2236 36.5518 28.3096 36.4658C28.3955 36.3799 28.6068 36.3369 28.9434 36.3369H32.4346C34.0817 36.3369 35.3278 36.6842 36.1729 37.3789C36.624 37.7441 36.9785 38.224 37.2363 38.8184C37.4941 39.4056 37.623 40.0251 37.623 40.6768C37.623 41.3285 37.5049 41.9408 37.2686 42.5137C37.0322 43.0866 36.71 43.5521 36.3018 43.9102C35.779 44.347 35.1058 44.6478 34.2822 44.8125ZM31.0381 43.083H31.8652C32.7246 43.083 33.3799 42.9255 33.8311 42.6104C34.0889 42.4385 34.293 42.195 34.4434 41.8799C34.5938 41.5576 34.6689 41.2139 34.6689 40.8486C34.6689 40.1325 34.4362 39.5882 33.9707 39.2158C33.5052 38.8434 32.8177 38.6572 31.9082 38.6572H31.0381V43.083ZM13.4639 62.8184V66.0732H17.7607C18.0973 66.0732 18.3086 66.1162 18.3945 66.2021C18.4805 66.2881 18.5234 66.4993 18.5234 66.8359V67.792C18.5234 68.1286 18.4805 68.3398 18.3945 68.4258C18.3086 68.5117 18.0973 68.5547 17.7607 68.5547H13.4639V72.5186H17.9756C18.305 72.5186 18.5127 72.5615 18.5986 72.6475C18.6846 72.7334 18.7275 72.9447 18.7275 73.2812V74.2373C18.7275 74.5739 18.6846 74.7852 18.5986 74.8711C18.5127 74.957 18.305 75 17.9756 75H11.3691C11.0326 75 10.8213 74.957 10.7354 74.8711C10.6494 74.7852 10.6064 74.5739 10.6064 74.2373V61.0996C10.6064 60.763 10.6494 60.5518 10.7354 60.4658C10.8213 60.3799 11.0326 60.3369 11.3691 60.3369H17.9756C18.2979 60.3369 18.5055 60.3835 18.5986 60.4766C18.6846 60.5625 18.7275 60.7702 18.7275 61.0996V62.0557C18.7275 62.3923 18.6846 62.6035 18.5986 62.6895C18.5127 62.7754 18.305 62.8184 17.9756 62.8184H13.4639ZM24.3564 72.5186H28.1162C28.4528 72.5186 28.6641 72.5615 28.75 72.6475C28.8359 72.7334 28.8789 72.9447 28.8789 73.2812V74.2373C28.8789 74.5739 28.8359 74.7852 28.75 74.8711C28.6641 74.957 28.4528 75 28.1162 75H22.2617C21.9251 75 21.7139 74.957 21.6279 74.8711C21.542 74.7852 21.499 74.5739 21.499 74.2373V61.0996C21.499 60.763 21.542 60.5518 21.6279 60.4658C21.7139 60.3799 21.9251 60.3369 22.2617 60.3369H23.6045C23.9339 60.3369 24.1416 60.3799 24.2275 60.4658C24.3135 60.5518 24.3564 60.763 24.3564 61.0996V72.5186ZM39.417 62.292L38.8691 63.0117C38.6615 63.291 38.4788 63.4307 38.3213 63.4307C38.2425 63.4307 38.1745 63.4128 38.1172 63.377C38.0599 63.3411 37.9023 63.2122 37.6445 62.9902C37.4798 62.8613 37.2327 62.7467 36.9033 62.6465C36.5739 62.5462 36.2695 62.4961 35.9902 62.4961C35.36 62.4961 34.848 62.6751 34.4541 63.0332C34.1032 63.3483 33.9277 63.7135 33.9277 64.1289C33.9277 64.5299 34.0817 64.8594 34.3896 65.1172C34.7048 65.3678 35.292 65.6507 36.1514 65.9658C36.9678 66.2594 37.5765 66.5101 37.9775 66.7178C38.3786 66.9183 38.7474 67.1582 39.084 67.4375C39.9505 68.168 40.3838 69.1956 40.3838 70.5205C40.3838 72.1032 39.8288 73.3421 38.7188 74.2373C37.7878 74.9821 36.6383 75.3545 35.2705 75.3545C34.1676 75.3545 33.1686 75.0859 32.2734 74.5488C31.7936 74.2624 31.3568 73.9222 30.9629 73.5283C30.5762 73.1273 30.3828 72.8265 30.3828 72.626C30.3828 72.4971 30.501 72.318 30.7373 72.0889L31.4678 71.3799C31.7041 71.1507 31.8796 71.0361 31.9941 71.0361C32.1374 71.0361 32.2699 71.1077 32.3916 71.251C32.721 71.6592 32.9323 71.9062 33.0254 71.9922C33.1185 72.0781 33.2725 72.182 33.4873 72.3037C34.0244 72.5973 34.5902 72.7441 35.1846 72.7441C35.9222 72.7441 36.4987 72.5078 36.9141 72.0352C37.265 71.6413 37.4404 71.1901 37.4404 70.6816C37.4404 70.0729 37.1719 69.5788 36.6348 69.1992C36.377 69.013 35.7002 68.7194 34.6045 68.3184C33.4873 67.9173 32.6637 67.4912 32.1338 67.04C31.3675 66.3955 30.9844 65.5039 30.9844 64.3652C30.9844 62.8184 31.6289 61.6367 32.918 60.8203C33.6914 60.3333 34.5758 60.0898 35.5713 60.0898C36.2731 60.0898 36.9893 60.2152 37.7197 60.4658C38.4574 60.7093 39.0553 61.028 39.5137 61.4219C39.6354 61.5221 39.6963 61.6439 39.6963 61.7871C39.6963 61.8874 39.6032 62.0557 39.417 62.292ZM45.7764 62.8184V66.0732H50.0732C50.4098 66.0732 50.6211 66.1162 50.707 66.2021C50.793 66.2881 50.8359 66.4993 50.8359 66.8359V67.792C50.8359 68.1286 50.793 68.3398 50.707 68.4258C50.6211 68.5117 50.4098 68.5547 50.0732 68.5547H45.7764V72.5186H50.2881C50.6175 72.5186 50.8252 72.5615 50.9111 72.6475C50.9971 72.7334 51.04 72.9447 51.04 73.2812V74.2373C51.04 74.5739 50.9971 74.7852 50.9111 74.8711C50.8252 74.957 50.6175 75 50.2881 75H43.6816C43.3451 75 43.1338 74.957 43.0479 74.8711C42.9619 74.7852 42.9189 74.5739 42.9189 74.2373V61.0996C42.9189 60.763 42.9619 60.5518 43.0479 60.4658C43.1338 60.3799 43.3451 60.3369 43.6816 60.3369H50.2881C50.6104 60.3369 50.818 60.3835 50.9111 60.4766C50.9971 60.5625 51.04 60.7702 51.04 61.0996V62.0557C51.04 62.3923 50.9971 62.6035 50.9111 62.6895C50.8252 62.7754 50.6175 62.8184 50.2881 62.8184H45.7764Z" fill="white"/>
    <path d="M58.9199 72.5C58.9199 71.1193 57.8006 70 56.4199 70C55.0392 70 53.9199 71.1193 53.9199 72.5C53.9199 73.8807 55.0392 75 56.4199 75C57.8006 75 58.9199 73.8807 58.9199 72.5Z" fill="#F35A35"/>
</svg>