<svg width="77" height="88" viewBox="0 0 77 88" fill="none" xmlns="http://www.w3.org/2000/svg">
    <path d="M73 0H4C1.79086 0 0 1.79086 0 4V84C0 86.2091 1.79086 88 4 88H73C75.2091 88 77 86.2091 77 84V4C77 1.79086 75.2091 0 73 0Z" fill="white"/>
    <path d="M17.8936 14.292L17.3457 15.0117C17.138 15.291 16.9554 15.4307 16.7979 15.4307C16.7191 15.4307 16.651 15.4128 16.5938 15.377C16.5365 15.3411 16.3789 15.2122 16.1211 14.9902C15.9564 14.8613 15.7093 14.7467 15.3799 14.6465C15.0505 14.5462 14.7461 14.4961 14.4668 14.4961C13.8366 14.4961 13.3245 14.6751 12.9307 15.0332C12.5798 15.3483 12.4043 15.7135 12.4043 16.1289C12.4043 16.5299 12.5583 16.8594 12.8662 17.1172C13.1813 17.3678 13.7686 17.6507 14.6279 17.9658C15.4443 18.2594 16.0531 18.5101 16.4541 18.7178C16.8551 18.9183 17.224 19.1582 17.5605 19.4375C18.4271 20.168 18.8604 21.1956 18.8604 22.5205C18.8604 24.1032 18.3053 25.3421 17.1953 26.2373C16.2643 26.9821 15.1149 27.3545 13.7471 27.3545C12.6442 27.3545 11.6452 27.0859 10.75 26.5488C10.2702 26.2624 9.83333 25.9222 9.43945 25.5283C9.05273 25.1273 8.85938 24.8265 8.85938 24.626C8.85938 24.4971 8.97754 24.318 9.21387 24.0889L9.94434 23.3799C10.1807 23.1507 10.3561 23.0361 10.4707 23.0361C10.6139 23.0361 10.7464 23.1077 10.8682 23.251C11.1976 23.6592 11.4089 23.9062 11.502 23.9922C11.5951 24.0781 11.749 24.182 11.9639 24.3037C12.501 24.5973 13.0667 24.7441 13.6611 24.7441C14.3988 24.7441 14.9753 24.5078 15.3906 24.0352C15.7415 23.6413 15.917 23.1901 15.917 22.6816C15.917 22.0729 15.6484 21.5788 15.1113 21.1992C14.8535 21.013 14.1768 20.7194 13.0811 20.3184C11.9639 19.9173 11.1403 19.4912 10.6104 19.04C9.84408 18.3955 9.46094 17.5039 9.46094 16.3652C9.46094 14.8184 10.1055 13.6367 11.3945 12.8203C12.168 12.3333 13.0524 12.0898 14.0479 12.0898C14.7497 12.0898 15.4658 12.2152 16.1963 12.4658C16.9339 12.7093 17.5319 13.028 17.9902 13.4219C18.112 13.5221 18.1729 13.6439 18.1729 13.7871C18.1729 13.8874 18.0798 14.0557 17.8936 14.292ZM29.9248 23.9062H23.9307L22.8457 26.4521C22.724 26.7243 22.6273 26.8854 22.5557 26.9355C22.484 26.9785 22.3014 27 22.0078 27H20.5576C20.2998 27 20.1279 26.9821 20.042 26.9463C19.8844 26.8747 19.8057 26.7529 19.8057 26.5811C19.8057 26.4951 19.8558 26.3304 19.9561 26.0869L25.6924 12.584C25.721 12.5124 25.7461 12.4515 25.7676 12.4014C25.832 12.2295 25.9036 12.1257 25.9824 12.0898C26.0684 12.0469 26.251 12.0254 26.5303 12.0254H27.4648C27.7656 12.0254 27.9518 12.0505 28.0234 12.1006C28.0951 12.1507 28.1882 12.3154 28.3027 12.5947L33.8779 26.0869C33.9782 26.3304 34.0283 26.4951 34.0283 26.5811C34.0283 26.7386 33.971 26.8496 33.8564 26.9141C33.749 26.9714 33.5557 27 33.2764 27H31.7939C31.4932 27 31.3034 26.9749 31.2246 26.9248C31.153 26.8747 31.0635 26.71 30.9561 26.4307L29.9248 23.9062ZM29.0332 21.5859L26.9707 16.3115L24.8438 21.5859H29.0332ZM38.8193 24.5186H42.5791C42.9157 24.5186 43.127 24.5615 43.2129 24.6475C43.2988 24.7334 43.3418 24.9447 43.3418 25.2812V26.2373C43.3418 26.5739 43.2988 26.7852 43.2129 26.8711C43.127 26.957 42.9157 27 42.5791 27H36.7246C36.388 27 36.1768 26.957 36.0908 26.8711C36.0049 26.7852 35.9619 26.5739 35.9619 26.2373V13.0996C35.9619 12.763 36.0049 12.5518 36.0908 12.4658C36.1768 12.3799 36.388 12.3369 36.7246 12.3369H38.0674C38.3968 12.3369 38.6045 12.3799 38.6904 12.4658C38.7764 12.5518 38.8193 12.763 38.8193 13.0996V24.5186ZM48.1865 14.8184V18.0732H52.4834C52.82 18.0732 53.0312 18.1162 53.1172 18.2021C53.2031 18.2881 53.2461 18.4993 53.2461 18.8359V19.792C53.2461 20.1286 53.2031 20.3398 53.1172 20.4258C53.0312 20.5117 52.82 20.5547 52.4834 20.5547H48.1865V24.5186H52.6982C53.0277 24.5186 53.2354 24.5615 53.3213 24.6475C53.4072 24.7334 53.4502 24.9447 53.4502 25.2812V26.2373C53.4502 26.5739 53.4072 26.7852 53.3213 26.8711C53.2354 26.957 53.0277 27 52.6982 27H46.0918C45.7552 27 45.5439 26.957 45.458 26.8711C45.3721 26.7852 45.3291 26.5739 45.3291 26.2373V13.0996C45.3291 12.763 45.3721 12.5518 45.458 12.4658C45.5439 12.3799 45.7552 12.3369 46.0918 12.3369H52.6982C53.0205 12.3369 53.2282 12.3835 53.3213 12.4766C53.4072 12.5625 53.4502 12.7702 53.4502 13.0996V14.0557C53.4502 14.3923 53.4072 14.6035 53.3213 14.6895C53.2354 14.7754 53.0277 14.8184 52.6982 14.8184H48.1865ZM64.4287 14.292L63.8809 15.0117C63.6732 15.291 63.4906 15.4307 63.333 15.4307C63.2542 15.4307 63.1862 15.4128 63.1289 15.377C63.0716 15.3411 62.9141 15.2122 62.6562 14.9902C62.4915 14.8613 62.2445 14.7467 61.915 14.6465C61.5856 14.5462 61.2812 14.4961 61.002 14.4961C60.3717 14.4961 59.8597 14.6751 59.4658 15.0332C59.1149 15.3483 58.9395 15.7135 58.9395 16.1289C58.9395 16.5299 59.0934 16.8594 59.4014 17.1172C59.7165 17.3678 60.3037 17.6507 61.1631 17.9658C61.9795 18.2594 62.5882 18.5101 62.9893 18.7178C63.3903 18.9183 63.7591 19.1582 64.0957 19.4375C64.9622 20.168 65.3955 21.1956 65.3955 22.5205C65.3955 24.1032 64.8405 25.3421 63.7305 26.2373C62.7995 26.9821 61.6501 27.3545 60.2822 27.3545C59.1794 27.3545 58.1803 27.0859 57.2852 26.5488C56.8053 26.2624 56.3685 25.9222 55.9746 25.5283C55.5879 25.1273 55.3945 24.8265 55.3945 24.626C55.3945 24.4971 55.5127 24.318 55.749 24.0889L56.4795 23.3799C56.7158 23.1507 56.8913 23.0361 57.0059 23.0361C57.1491 23.0361 57.2816 23.1077 57.4033 23.251C57.7327 23.6592 57.944 23.9062 58.0371 23.9922C58.1302 24.0781 58.2842 24.182 58.499 24.3037C59.0361 24.5973 59.6019 24.7441 60.1963 24.7441C60.9339 24.7441 61.5104 24.5078 61.9258 24.0352C62.2767 23.6413 62.4521 23.1901 62.4521 22.6816C62.4521 22.0729 62.1836 21.5788 61.6465 21.1992C61.3887 21.013 60.7119 20.7194 59.6162 20.3184C58.499 19.9173 57.6755 19.4912 57.1455 19.04C56.3792 18.3955 55.9961 17.5039 55.9961 16.3652C55.9961 14.8184 56.6406 13.6367 57.9297 12.8203C58.7031 12.3333 59.5876 12.0898 60.583 12.0898C61.2848 12.0898 62.001 12.2152 62.7314 12.4658C63.4691 12.7093 64.0671 13.028 64.5254 13.4219C64.6471 13.5221 64.708 13.6439 64.708 13.7871C64.708 13.8874 64.6149 14.0557 64.4287 14.292ZM16.8193 36.0039C19.1253 36.0039 21.0446 36.8239 22.5771 38.4639C23.945 39.9248 24.6289 41.6615 24.6289 43.6738C24.6289 45.056 24.2816 46.3379 23.5869 47.5195C22.8779 48.7441 21.9004 49.6966 20.6543 50.377C19.4798 51.0143 18.1657 51.333 16.7119 51.333C15.3942 51.333 14.1589 51.0286 13.0059 50.4199C11.6523 49.7109 10.6139 48.7048 9.89062 47.4014C9.26042 46.2699 8.94531 44.9915 8.94531 43.5664C8.94531 41.3822 9.79036 39.5273 11.4805 38.002C12.3255 37.2357 13.2923 36.6914 14.3809 36.3691C15.2044 36.1257 16.0173 36.0039 16.8193 36.0039ZM16.7979 38.6143C15.4372 38.6143 14.2842 39.1084 13.3389 40.0967C12.3792 41.0921 11.8994 42.3024 11.8994 43.7275C11.8994 44.3506 12.0283 44.9772 12.2861 45.6074C12.5439 46.2305 12.8949 46.7747 13.3389 47.2402C14.2842 48.2285 15.4336 48.7227 16.7871 48.7227C18.1478 48.7227 19.3044 48.2285 20.2568 47.2402C21.2093 46.2448 21.6855 45.0524 21.6855 43.6631C21.6855 42.9899 21.5602 42.3418 21.3096 41.7188C21.0589 41.0885 20.708 40.5479 20.2568 40.0967C19.2757 39.1084 18.1227 38.6143 16.7979 38.6143ZM33.3623 44.8125L37.251 50.0332C37.4372 50.2767 37.5303 50.4557 37.5303 50.5703C37.5303 50.7279 37.473 50.8389 37.3584 50.9033C37.2438 50.9678 37.0469 51 36.7676 51H34.9951C34.7087 51 34.5332 50.9857 34.4688 50.957C34.4115 50.9212 34.304 50.7852 34.1465 50.5488L30.4834 45.1025H30.1182V50.2373C30.1182 50.5739 30.0752 50.7852 29.9893 50.8711C29.9033 50.957 29.6956 51 29.3662 51H28.0234C27.6868 51 27.4756 50.957 27.3896 50.8711C27.3037 50.7852 27.2607 50.5739 27.2607 50.2373V37.0996C27.2607 36.763 27.3037 36.5518 27.3896 36.4658C27.4756 36.3799 27.6868 36.3369 28.0234 36.3369H31.5146C33.1618 36.3369 34.4079 36.6842 35.2529 37.3789C35.7041 37.7441 36.0586 38.224 36.3164 38.8184C36.5742 39.4056 36.7031 40.0251 36.7031 40.6768C36.7031 41.3285 36.585 41.9408 36.3486 42.5137C36.1123 43.0866 35.79 43.5521 35.3818 43.9102C34.859 44.347 34.1859 44.6478 33.3623 44.8125ZM30.1182 43.083H30.9453C31.8047 43.083 32.46 42.9255 32.9111 42.6104C33.1689 42.4385 33.373 42.195 33.5234 41.8799C33.6738 41.5576 33.749 41.2139 33.749 40.8486C33.749 40.1325 33.5163 39.5882 33.0508 39.2158C32.5853 38.8434 31.8978 38.6572 30.9883 38.6572H30.1182V43.083ZM12.5439 62.8184V66.0732H16.8408C17.1774 66.0732 17.3887 66.1162 17.4746 66.2021C17.5605 66.2881 17.6035 66.4993 17.6035 66.8359V67.792C17.6035 68.1286 17.5605 68.3398 17.4746 68.4258C17.3887 68.5117 17.1774 68.5547 16.8408 68.5547H12.5439V72.5186H17.0557C17.3851 72.5186 17.5928 72.5615 17.6787 72.6475C17.7646 72.7334 17.8076 72.9447 17.8076 73.2812V74.2373C17.8076 74.5739 17.7646 74.7852 17.6787 74.8711C17.5928 74.957 17.3851 75 17.0557 75H10.4492C10.1126 75 9.90137 74.957 9.81543 74.8711C9.72949 74.7852 9.68652 74.5739 9.68652 74.2373V61.0996C9.68652 60.763 9.72949 60.5518 9.81543 60.4658C9.90137 60.3799 10.1126 60.3369 10.4492 60.3369H17.0557C17.3779 60.3369 17.5856 60.3835 17.6787 60.4766C17.7646 60.5625 17.8076 60.7702 17.8076 61.0996V62.0557C17.8076 62.3923 17.7646 62.6035 17.6787 62.6895C17.5928 62.7754 17.3851 62.8184 17.0557 62.8184H12.5439ZM23.4365 72.5186H27.1963C27.5329 72.5186 27.7441 72.5615 27.8301 72.6475C27.916 72.7334 27.959 72.9447 27.959 73.2812V74.2373C27.959 74.5739 27.916 74.7852 27.8301 74.8711C27.7441 74.957 27.5329 75 27.1963 75H21.3418C21.0052 75 20.7939 74.957 20.708 74.8711C20.6221 74.7852 20.5791 74.5739 20.5791 74.2373V61.0996C20.5791 60.763 20.6221 60.5518 20.708 60.4658C20.7939 60.3799 21.0052 60.3369 21.3418 60.3369H22.6846C23.014 60.3369 23.2217 60.3799 23.3076 60.4658C23.3936 60.5518 23.4365 60.763 23.4365 61.0996V72.5186ZM38.4971 62.292L37.9492 63.0117C37.7415 63.291 37.5589 63.4307 37.4014 63.4307C37.3226 63.4307 37.2546 63.4128 37.1973 63.377C37.14 63.3411 36.9824 63.2122 36.7246 62.9902C36.5599 62.8613 36.3128 62.7467 35.9834 62.6465C35.654 62.5462 35.3496 62.4961 35.0703 62.4961C34.4401 62.4961 33.9281 62.6751 33.5342 63.0332C33.1833 63.3483 33.0078 63.7135 33.0078 64.1289C33.0078 64.5299 33.1618 64.8594 33.4697 65.1172C33.7848 65.3678 34.3721 65.6507 35.2314 65.9658C36.0479 66.2594 36.6566 66.5101 37.0576 66.7178C37.4587 66.9183 37.8275 67.1582 38.1641 67.4375C39.0306 68.168 39.4639 69.1956 39.4639 70.5205C39.4639 72.1032 38.9089 73.3421 37.7988 74.2373C36.8678 74.9821 35.7184 75.3545 34.3506 75.3545C33.2477 75.3545 32.2487 75.0859 31.3535 74.5488C30.8737 74.2624 30.4368 73.9222 30.043 73.5283C29.6562 73.1273 29.4629 72.8265 29.4629 72.626C29.4629 72.4971 29.5811 72.318 29.8174 72.0889L30.5479 71.3799C30.7842 71.1507 30.9596 71.0361 31.0742 71.0361C31.2174 71.0361 31.3499 71.1077 31.4717 71.251C31.8011 71.6592 32.0124 71.9062 32.1055 71.9922C32.1986 72.0781 32.3525 72.182 32.5674 72.3037C33.1045 72.5973 33.6702 72.7441 34.2646 72.7441C35.0023 72.7441 35.5788 72.5078 35.9941 72.0352C36.3451 71.6413 36.5205 71.1901 36.5205 70.6816C36.5205 70.0729 36.252 69.5788 35.7148 69.1992C35.457 69.013 34.7803 68.7194 33.6846 68.3184C32.5674 67.9173 31.7438 67.4912 31.2139 67.04C30.4476 66.3955 30.0645 65.5039 30.0645 64.3652C30.0645 62.8184 30.709 61.6367 31.998 60.8203C32.7715 60.3333 33.6559 60.0898 34.6514 60.0898C35.3532 60.0898 36.0693 60.2152 36.7998 60.4658C37.5374 60.7093 38.1354 61.028 38.5938 61.4219C38.7155 61.5221 38.7764 61.6439 38.7764 61.7871C38.7764 61.8874 38.6833 62.0557 38.4971 62.292ZM44.8564 62.8184V66.0732H49.1533C49.4899 66.0732 49.7012 66.1162 49.7871 66.2021C49.873 66.2881 49.916 66.4993 49.916 66.8359V67.792C49.916 68.1286 49.873 68.3398 49.7871 68.4258C49.7012 68.5117 49.4899 68.5547 49.1533 68.5547H44.8564V72.5186H49.3682C49.6976 72.5186 49.9053 72.5615 49.9912 72.6475C50.0771 72.7334 50.1201 72.9447 50.1201 73.2812V74.2373C50.1201 74.5739 50.0771 74.7852 49.9912 74.8711C49.9053 74.957 49.6976 75 49.3682 75H42.7617C42.4251 75 42.2139 74.957 42.1279 74.8711C42.042 74.7852 41.999 74.5739 41.999 74.2373V61.0996C41.999 60.763 42.042 60.5518 42.1279 60.4658C42.2139 60.3799 42.4251 60.3369 42.7617 60.3369H49.3682C49.6904 60.3369 49.8981 60.3835 49.9912 60.4766C50.0771 60.5625 50.1201 60.7702 50.1201 61.0996V62.0557C50.1201 62.3923 50.0771 62.6035 49.9912 62.6895C49.9053 62.7754 49.6976 62.8184 49.3682 62.8184H44.8564Z" fill="black"/>
    <path d="M58 72.5C58 71.1193 56.8807 70 55.5 70C54.1193 70 53 71.1193 53 72.5C53 73.8807 54.1193 75 55.5 75C56.8807 75 58 73.8807 58 72.5Z" fill="#F35A35"/>
</svg>