<svg width="199" height="48" viewBox="0 0 199 48" fill="none" xmlns="http://www.w3.org/2000/svg">
    <path d="M22.3081 31.3082C21.4328 31.9975 20.3744 32.4147 19.2641 32.5082C18.4316 32.6297 17.5818 32.5396 16.7932 32.2462C16.0047 31.9527 15.3027 31.4654 14.7521 30.8292C13.8441 29.7412 13.3791 28.3292 12.4921 27.2052C11.8228 26.2851 10.9169 25.5634 9.87063 25.1164C8.82435 24.6694 7.67662 24.5138 6.5491 24.6662C5.51182 24.8615 4.53971 25.3127 3.72099 25.9788C2.90228 26.645 2.26288 27.5051 1.86079 28.481C1.4587 29.4569 1.30667 30.5177 1.41848 31.5673C1.5303 32.6169 1.90243 33.6219 2.5011 34.4912C6.1831 39.7582 14.4631 38.8462 18.7131 35.1972C20.074 34.0595 21.282 32.7507 22.3071 31.3032" fill="white"/>
    <path d="M176.698 31.3061C177.572 31.9985 178.631 32.4177 179.742 32.5111C180.574 32.6337 181.424 32.5441 182.213 32.2508C183.002 31.9575 183.704 31.4699 184.254 30.8331C185.161 29.7431 185.629 28.3331 186.514 27.2091C187.183 26.289 188.089 25.5673 189.136 25.1203C190.182 24.6733 191.33 24.5177 192.458 24.6701C193.495 24.8657 194.467 25.3171 195.285 25.9835C196.104 26.6498 196.743 27.51 197.144 28.4859C197.546 29.4619 197.698 30.5226 197.585 31.572C197.473 32.6214 197.101 33.6261 196.502 34.4951C192.821 39.7611 184.542 38.8501 180.295 35.2021C178.931 34.0633 177.721 32.7524 176.695 31.3021" fill="white"/>
    <path d="M161.523 3.21484C161.409 3.21484 150.534 3.21484 150.433 3.21484C149.85 3.26325 149.303 3.51961 148.893 3.93719C148.483 4.35478 148.237 4.90581 148.199 5.48985C148.193 6.10621 148.419 6.70223 148.833 7.15871C149.248 7.61518 149.819 7.89845 150.433 7.95184C150.548 7.95184 161.423 7.95184 161.523 7.95184C162.106 7.90384 162.653 7.64762 163.063 7.22995C163.473 6.81228 163.719 6.26103 163.757 5.67685C163.763 5.06043 163.537 4.46426 163.123 4.00774C162.708 3.55121 162.137 3.26801 161.523 3.21484Z" fill="white"/>
    <path d="M92.2649 26.8492C92.1202 26.2338 92.0279 25.6073 91.9889 24.9763C91.9819 24.0763 91.9819 22.8093 91.9819 21.6443C92.0959 17.6213 92.8469 10.5443 87.3899 10.5443C83.7049 10.5443 81.5209 13.6442 80.9019 14.6592C80.8139 11.8322 78.5839 9.78125 75.1759 9.78125C74.508 9.80419 73.8529 9.97054 73.2551 10.269C72.6572 10.5675 72.1305 10.9912 71.7109 11.5112C72.3922 11.8152 72.9623 12.3234 73.3422 12.9654C73.7222 13.6075 73.8933 14.3517 73.8319 15.0952C73.8549 17.1352 73.8319 27.0682 73.8319 27.1102C73.8341 27.5662 73.9273 28.0171 74.1059 28.4366C74.2845 28.8561 74.545 29.2358 74.8721 29.5534C75.1993 29.871 75.5864 30.1202 76.011 30.2864C76.4356 30.4526 76.8891 30.5324 77.3449 30.5212C77.8046 30.537 78.2628 30.4606 78.6926 30.2965C79.1223 30.1324 79.5149 29.884 79.8471 29.5658C80.1793 29.2477 80.4445 28.8662 80.6271 28.444C80.8096 28.0217 80.9057 27.5672 80.9099 27.1072V18.2972C81.2169 16.8572 82.0269 15.3872 83.2489 15.3872C84.8339 15.3872 84.9229 17.1492 84.9299 17.1492L84.9229 25.6772C84.9323 25.9459 84.9627 26.2134 85.0139 26.4772C85.087 26.9078 85.2238 27.325 85.4199 27.7152C85.9295 28.6379 86.6926 29.3954 87.6191 29.8982C88.5455 30.4009 89.5965 30.6279 90.6479 30.5522C91.3146 30.5289 91.9686 30.3626 92.5655 30.0647C93.1624 29.7667 93.6884 29.3441 94.1079 28.8253C93.6808 28.6402 93.2965 28.369 92.9791 28.0287C92.6616 27.6883 92.4178 27.2861 92.2629 26.8472" fill="white"/>
    <path d="M144.723 26.8483C144.576 26.2333 144.484 25.6066 144.447 24.9754L144.453 3.86934C144.453 2.88353 144.062 1.9381 143.364 1.24103C142.667 0.543955 141.722 0.152344 140.736 0.152344C139.75 0.152344 138.805 0.543955 138.108 1.24103C137.411 1.9381 137.019 2.88353 137.019 3.86934V22.5614C137.037 24.2454 136.872 25.9613 137.666 27.5123C138.205 28.4686 138.997 29.2582 139.954 29.7949C140.912 30.3316 141.998 30.5946 143.095 30.5553C143.763 30.5331 144.419 30.3671 145.017 30.0687C145.615 29.7704 146.142 29.3466 146.562 28.8263C146.135 28.6408 145.751 28.3695 145.434 28.0292C145.117 27.6889 144.873 27.287 144.717 26.8483" fill="white"/>
    <path d="M61.6664 10.3555C58.9877 10.3555 56.4188 11.4196 54.5247 13.3137C52.6305 15.2078 51.5664 17.7768 51.5664 20.4555C51.5664 23.1342 52.6305 25.7031 54.5247 27.5973C56.4188 29.4914 58.9877 30.5555 61.6664 30.5555C64.3451 30.5555 66.9141 29.4914 68.8082 27.5973C70.7023 25.7031 71.7664 23.1342 71.7664 20.4555C71.7664 17.7768 70.7023 15.2078 68.8082 13.3137C66.9141 11.4196 64.3451 10.3555 61.6664 10.3555ZM61.7404 26.2635V26.2685C61.7324 26.2685 61.7254 26.2685 61.7184 26.2685C61.7114 26.2685 61.7034 26.2685 61.6974 26.2685V26.2635C59.7904 26.2285 58.8344 24.0375 58.8344 20.4545C58.8344 16.8715 60.0454 14.6825 61.6974 14.6435H61.7404C63.3904 14.6825 64.6024 16.8765 64.6024 20.4545C64.6024 24.0325 63.6484 26.2285 61.7404 26.2635Z" fill="white"/>
    <path d="M114.979 26.8483C114.833 26.2333 114.741 25.6065 114.706 24.9754V3.86934C114.706 2.88353 114.314 1.9381 113.617 1.24103C112.92 0.543955 111.976 0.152344 110.99 0.152344C110.003 0.152344 109.058 0.543955 108.361 1.24103C107.663 1.9381 107.272 2.88353 107.272 3.86934L107.257 13.8693C106.601 12.8767 105.717 12.055 104.679 11.4727C103.642 10.8903 102.48 10.5642 101.291 10.5213C92.7553 10.5213 92.2153 25.7213 98.0693 29.4823C99.8935 30.5276 102.05 30.8292 104.091 30.3244C105.391 29.9854 107.441 28.7084 107.771 27.1824C107.818 27.2944 107.871 27.4053 107.925 27.5163C108.464 28.4726 109.256 29.2623 110.213 29.799C111.171 30.3357 112.258 30.5987 113.355 30.5593C114.023 30.5369 114.678 30.3709 115.277 30.0726C115.875 29.7742 116.403 29.3505 116.823 28.8303C116.396 28.6448 116.011 28.3735 115.694 28.0332C115.376 27.6929 115.132 27.291 114.977 26.8523L114.979 26.8483ZM103.906 25.6243H103.864C101.957 25.5963 101.003 23.6843 101.003 20.5643C101.003 17.4443 102.213 15.5373 103.864 15.5023C103.874 15.5023 103.877 15.5023 103.886 15.5023C103.895 15.5023 103.899 15.5023 103.906 15.5023C105.559 15.5373 106.77 17.4473 106.77 20.5643C106.77 23.6813 105.814 25.5963 103.906 25.6243Z" fill="white"/>
    <path d="M134.32 24.3056C134.32 24.3056 133.23 25.7996 129.001 25.7996C124.772 25.7996 123.865 22.5116 123.865 22.5116C130.028 22.5116 135.197 22.0986 135.197 17.1116C135.197 12.1246 129.557 10.4766 126.214 10.4766C120.693 10.4766 116.659 14.8766 116.659 20.6916C116.626 21.9749 116.85 23.2518 117.319 24.447C117.787 25.6423 118.49 26.7317 119.386 27.651C120.282 28.5704 121.353 29.3011 122.536 29.8001C123.718 30.2991 124.989 30.5563 126.273 30.5566C133.953 30.5566 134.321 24.3076 134.321 24.3076L134.32 24.3056ZM123.465 19.3056C123.681 17.7126 124.065 15.7056 125.496 14.7756C125.782 14.6031 126.108 14.5091 126.442 14.5029C126.776 14.4967 127.105 14.5786 127.397 14.7403C127.69 14.902 127.934 15.1379 128.106 15.4241C128.278 15.7103 128.371 16.0367 128.377 16.3706C128.405 17.0693 128.177 17.7543 127.735 18.296C127.293 18.8378 126.667 19.1987 125.977 19.3106C125.143 19.4034 124.302 19.4017 123.469 19.3056" fill="white"/>
    <path d="M164.055 24.3056C164.055 24.3056 162.965 25.7996 158.736 25.7996C154.507 25.7996 153.6 22.5116 153.6 22.5116C159.763 22.5116 164.932 22.0986 164.932 17.1116C164.932 12.1246 159.292 10.4766 155.949 10.4766C150.428 10.4766 146.394 14.8766 146.394 20.6916C146.361 21.9749 146.586 23.2518 147.054 24.447C147.523 25.6423 148.225 26.7317 149.121 27.651C150.017 28.5704 151.088 29.3011 152.271 29.8001C153.454 30.2991 154.725 30.5563 156.008 30.5566C163.688 30.5566 164.056 24.3076 164.056 24.3076L164.055 24.3056ZM153.2 19.3056C153.416 17.7126 153.8 15.7056 155.231 14.7756C155.517 14.6031 155.844 14.5091 156.177 14.5029C156.511 14.4967 156.841 14.5786 157.133 14.7403C157.425 14.902 157.669 15.1379 157.841 15.4241C158.013 15.7103 158.107 16.0367 158.112 16.3706C158.141 17.0693 157.912 17.7543 157.47 18.296C157.028 18.8378 156.403 19.1987 155.712 19.3106C154.879 19.4034 154.037 19.4017 153.204 19.3056" fill="white"/>
    <path d="M178.002 24.8453H173.767C175.337 23.7702 176.834 22.5938 178.25 21.3234C180.971 19.0144 185.863 15.6833 184.437 11.3683V11.3983C184.262 10.762 183.894 10.1956 183.384 9.77734C183.262 10.0582 183.084 10.3109 182.861 10.5198C182.637 10.7286 182.373 10.8892 182.084 10.9914C181.68 11.0944 181.268 11.1614 180.852 11.1913C180.514 11.1973 169.015 11.1913 169.015 11.1913C168.276 11.1856 167.564 11.466 167.027 11.9737C166.49 12.4815 166.17 13.1773 166.135 13.9153C166.139 14.2763 166.214 14.6329 166.357 14.9646C166.499 15.2962 166.706 15.5963 166.965 15.8474C167.225 16.0985 167.531 16.2957 167.867 16.4275C168.203 16.5593 168.562 16.6232 168.923 16.6154L175.631 16.6584C172.521 18.3924 168.808 20.4464 166.922 23.5824C165.845 25.3824 164.693 28.1573 165.131 30.2823C167.559 28.5561 170.566 27.848 173.509 28.3094C174.668 28.5894 175.771 29.0627 176.773 29.7094C182.357 33.2024 185.713 26.3703 183.043 23.3593C183.043 23.3593 181.521 24.8413 177.999 24.8413" fill="white"/>
    <path d="M52.1065 29.0965C48.6815 25.3405 47.6065 19.0965 47.3995 14.9445C47.2175 11.3585 47.4115 5.14447 50.2375 3.34447C49.6871 2.78738 49.0265 2.35129 48.298 2.06407C47.5694 1.77686 46.789 1.64483 46.0065 1.67647C42.8205 1.67647 41.2845 3.79848 40.1945 5.32448C39.8345 5.82448 34.4765 13.2245 34.4765 13.2245C34.4765 13.2245 29.9695 6.25247 29.4155 5.41547C28.6495 4.25947 27.2155 2.13648 24.6975 1.76848C23.6125 1.61048 20.7975 1.46847 19.2665 3.56847C21.9065 5.68047 21.8405 11.0605 21.2665 14.7335C19.5465 25.7575 14.8555 26.7735 14.8555 26.7735C17.2555 33.2625 23.4465 30.6985 25.1955 25.5255C26.3511 21.9121 27.0341 18.1643 27.2275 14.3755L34.0185 24.7925C34.0185 24.7925 41.7075 14.4075 41.7075 14.4175C40.4415 32.7835 46.7485 37.9895 52.2645 37.9895C53.8575 37.9681 55.4088 37.478 56.7249 36.5802C58.041 35.6824 59.0634 34.4168 59.6645 32.9415C56.74 32.7033 54.0258 31.327 52.1055 29.1085" fill="white"/>
    <path d="M69.3398 35.0671C69.4029 35.3298 69.4427 35.5975 69.4588 35.8671C69.4588 35.9481 69.4588 45.4751 69.4588 45.5891C69.4907 45.9807 69.6624 46.3478 69.9426 46.6232C70.2228 46.8986 70.5927 47.064 70.9848 47.0891C71.3986 47.0934 71.7987 46.9413 72.105 46.6632C72.4113 46.385 72.6013 46.0014 72.6368 45.5891C72.6368 45.4801 72.6368 36.9002 72.6368 36.9002C72.7129 36.1822 72.6179 35.4564 72.3598 34.7821C72.1287 34.3733 71.7897 34.0359 71.3799 33.8066C70.9701 33.5774 70.5051 33.4651 70.0358 33.4822C69.7497 33.4917 69.4689 33.5627 69.2127 33.6903C68.9564 33.818 68.7307 33.9994 68.5508 34.2221C68.7335 34.3013 68.898 34.4173 69.0339 34.5629C69.1698 34.7085 69.2743 34.8804 69.3408 35.0681" fill="white"/>
    <path d="M170.056 45.5055C169.993 45.2428 169.953 44.9751 169.937 44.7055C169.937 44.6245 169.937 35.0975 169.937 34.9845C169.905 34.593 169.733 34.2262 169.453 33.9509C169.173 33.6755 168.803 33.51 168.411 33.4845C167.997 33.4804 167.597 33.6326 167.291 33.9107C166.985 34.1888 166.795 34.5723 166.759 34.9845C166.759 35.0935 166.759 43.6725 166.759 43.6725C166.684 44.3908 166.778 45.1168 167.036 45.7915C167.267 46.2003 167.606 46.5377 168.016 46.767C168.426 46.9962 168.891 47.1085 169.36 47.0914C169.646 47.0819 169.927 47.0109 170.183 46.8832C170.439 46.7555 170.664 46.5742 170.844 46.3515C170.661 46.2719 170.497 46.1557 170.361 46.01C170.225 45.8643 170.121 45.6922 170.054 45.5045" fill="white"/>
    <path d="M112.572 38.4149C111.972 38.456 111.392 38.6461 110.885 38.9681C110.377 39.2901 109.958 39.7338 109.665 40.2588L109.656 40.2658C109.656 39.8058 109.656 39.4428 109.656 39.4248C109.621 39.0406 109.447 38.6824 109.166 38.4179C108.885 38.1535 108.517 38.0012 108.131 37.9898C107.724 37.9718 107.326 38.1107 107.019 38.3777C106.712 38.6448 106.519 39.0196 106.48 39.4248C106.48 39.5338 106.48 45.5069 106.48 45.5879C106.512 45.9794 106.684 46.3463 106.964 46.6217C107.244 46.8971 107.614 47.0625 108.006 47.0879C108.419 47.0919 108.819 46.9396 109.125 46.6614C109.431 46.3833 109.621 45.9998 109.656 45.5879C109.656 45.5259 109.656 43.5769 109.656 41.8979L109.669 41.8889C109.806 41.2439 110.169 40.5888 110.717 40.5888C111.427 40.5888 111.466 41.3788 111.469 41.3788L111.462 45.5919C111.494 45.9834 111.666 46.3503 111.946 46.6257C112.226 46.9011 112.596 47.0665 112.988 47.0919C113.401 47.0959 113.801 46.9436 114.107 46.6654C114.413 46.3873 114.603 46.0038 114.638 45.5919V43.3918C114.638 41.1278 114.874 38.4108 112.576 38.4208" fill="white"/>
    <path d="M153.178 38.4149C152.579 38.456 151.999 38.6463 151.491 38.9683C150.984 39.2903 150.564 39.7339 150.271 40.2588L150.262 40.2658C150.262 39.8058 150.262 39.4428 150.262 39.4248C150.228 39.0406 150.053 38.6824 149.772 38.4179C149.491 38.1535 149.123 38.0012 148.737 37.9898C148.331 37.9718 147.933 38.1107 147.625 38.3777C147.318 38.6448 147.125 39.0196 147.086 39.4248C147.086 39.5338 147.086 45.5069 147.086 45.5879C147.118 45.9795 147.29 46.3465 147.57 46.6219C147.85 46.8973 148.22 47.0627 148.612 47.0879C149.026 47.0919 149.426 46.9396 149.732 46.6615C150.038 46.3834 150.228 45.9999 150.263 45.5879C150.263 45.5259 150.263 43.5769 150.263 41.8979L150.276 41.8889C150.412 41.2439 150.776 40.5888 151.324 40.5888C152.033 40.5888 152.073 41.3788 152.076 41.3788L152.069 45.5919C152.101 45.9835 152.273 46.3505 152.553 46.6259C152.833 46.9013 153.203 47.0667 153.595 47.0919C154.009 47.0959 154.409 46.9436 154.715 46.6655C155.021 46.3874 155.211 46.0039 155.246 45.5919V43.3918C155.246 41.1278 155.482 38.4108 153.184 38.4208" fill="white"/>
    <path d="M80.3157 38.4149C79.716 38.4561 79.136 38.6463 78.6284 38.9683C78.1207 39.2903 77.7015 39.7339 77.4087 40.2589L77.3997 40.2659C77.3997 39.8059 77.3997 39.4429 77.3997 39.4249C77.3651 39.0404 77.1906 38.6819 76.9094 38.4174C76.6281 38.1529 76.2596 38.0008 75.8737 37.9899C75.467 37.9716 75.0688 38.1104 74.7615 38.3775C74.4542 38.6446 74.2613 39.0196 74.2227 39.4249C74.2227 39.5339 74.2227 45.5069 74.2227 45.5879C74.2547 45.9794 74.4264 46.3464 74.7066 46.6217C74.9867 46.8971 75.3567 47.0626 75.7487 47.0879C76.1621 47.0917 76.5617 46.9393 76.8676 46.6612C77.1735 46.3831 77.3632 45.9998 77.3987 45.5879C77.3987 45.5259 77.3987 43.5769 77.3987 41.8979L77.4117 41.8889C77.5477 41.2439 77.9117 40.5889 78.4597 40.5889C79.1697 40.5889 79.2087 41.3789 79.2117 41.3789L79.2047 45.5919C79.2365 45.9833 79.4081 46.3503 79.6881 46.6257C79.9681 46.901 80.3378 47.0665 80.7297 47.0919C81.1433 47.0962 81.5433 46.944 81.8495 46.6658C82.1557 46.3876 82.3454 46.0041 82.3807 45.5919V43.3919C82.3807 41.1279 82.6167 38.4109 80.3187 38.4209" fill="white"/>
    <path d="M141.662 38.0156C141.068 38.0155 140.48 38.1324 139.931 38.3597C139.382 38.587 138.883 38.9202 138.463 39.3403C138.042 39.7604 137.709 40.2592 137.482 40.8081C137.254 41.3571 137.137 41.9455 137.137 42.5396C137.137 43.1338 137.254 43.7222 137.482 44.2711C137.709 44.8201 138.042 45.3188 138.463 45.739C138.883 46.1591 139.382 46.4922 139.931 46.7195C140.48 46.9468 141.068 47.0638 141.662 47.0636C142.256 47.0638 142.845 46.9468 143.394 46.7195C143.943 46.4922 144.442 46.1591 144.862 45.739C145.282 45.3188 145.615 44.8201 145.843 44.2711C146.07 43.7222 146.187 43.1338 146.187 42.5396C146.187 41.9455 146.07 41.3571 145.843 40.8081C145.615 40.2592 145.282 39.7604 144.862 39.3403C144.442 38.9202 143.943 38.587 143.394 38.3597C142.845 38.1324 142.256 38.0155 141.662 38.0156ZM141.695 45.1426H141.676C140.821 45.1256 140.393 44.1426 140.393 42.5426C140.393 40.9426 140.935 39.9566 141.676 39.9426H141.695C142.434 39.9606 142.976 40.9426 142.976 42.5426C142.976 44.1426 142.549 45.1286 141.695 45.1426Z" fill="white"/>
    <path d="M124.767 39.3162C124.73 38.9053 124.548 38.5211 124.252 38.2332C123.957 37.9452 123.568 37.7725 123.156 37.7462C122.723 37.7418 122.304 37.901 121.984 38.1921C121.663 38.4832 121.464 38.8847 121.426 39.3162C121.426 39.3772 121.418 39.5072 121.418 39.5302C121.124 39.0854 120.728 38.7173 120.263 38.4564C119.798 38.1956 119.277 38.0494 118.744 38.0302C114.92 38.0302 114.677 44.8412 117.3 46.5302C118.118 46.9985 119.085 47.1335 120 46.9072C120.605 46.7367 121.134 46.3662 121.5 45.8562C121.607 46.1886 121.81 46.4816 122.084 46.6975C122.359 46.9135 122.691 47.0426 123.039 47.0682C123.472 47.0726 123.891 46.9134 124.211 46.6225C124.532 46.3316 124.731 45.9304 124.768 45.4992C124.768 45.3852 124.768 39.3992 124.768 39.3202L124.767 39.3162ZM119.914 44.8012H119.895C119.04 44.7882 118.613 43.9302 118.613 42.5332C118.613 41.1362 119.155 40.2812 119.895 40.2652H119.914C120.654 40.2812 121.198 41.1372 121.198 42.5332C121.198 43.9292 120.769 44.7882 119.914 44.8012Z" fill="white"/>
    <path d="M165.337 39.3162C165.3 38.9051 165.118 38.5207 164.822 38.2327C164.526 37.9447 164.137 37.7721 163.726 37.7462C163.293 37.742 162.874 37.9014 162.554 38.1925C162.233 38.4835 162.034 38.8848 161.997 39.3162C161.997 39.3772 161.987 39.5072 161.987 39.5302C161.693 39.0853 161.297 38.717 160.832 38.4561C160.367 38.1952 159.846 38.0491 159.314 38.0302C155.49 38.0302 155.247 44.8412 157.87 46.5302C158.688 46.9985 159.655 47.1336 160.57 46.9072C161.174 46.7368 161.703 46.3662 162.07 45.8562C162.176 46.1876 162.38 46.4796 162.654 46.6948C162.927 46.91 163.259 47.0386 163.607 47.0642C164.039 47.0686 164.458 46.9094 164.779 46.6185C165.099 46.3276 165.298 45.9264 165.336 45.4952C165.336 45.3812 165.337 39.3952 165.337 39.3162ZM160.484 44.7972H160.464C159.61 44.7842 159.182 43.9262 159.182 42.5292C159.182 41.1322 159.724 40.2772 160.464 40.2612H160.484C161.224 40.2772 161.767 41.1332 161.767 42.5292C161.767 43.9252 161.338 44.7842 160.484 44.7972Z" fill="white"/>
    <path d="M136.139 40.1677C136.12 39.789 135.963 39.4303 135.698 39.1589C135.433 38.8876 135.079 38.7222 134.7 38.6937C134.656 38.6867 134.611 38.682 134.565 38.6797C134.177 38.6802 133.802 38.8204 133.508 39.0746C133.214 39.3289 133.022 39.6803 132.965 40.0647V42.9937C132.975 43.9077 132.965 45.5577 132.965 45.5767C132.985 45.9554 133.142 46.3139 133.407 46.5852C133.672 46.8565 134.026 47.022 134.404 47.0507C134.449 47.0582 134.495 47.0629 134.54 47.0647C134.929 47.0642 135.304 46.9241 135.598 46.6698C135.892 46.4155 136.084 46.0641 136.14 45.6797V43.2317C136.129 42.3167 136.14 40.1847 136.14 40.1667" fill="white"/>
    <path d="M136.128 36.2049C136.128 36.6222 135.962 37.0223 135.667 37.3172C135.371 37.6122 134.971 37.7779 134.554 37.7779C134.347 37.778 134.143 37.7374 133.952 37.6584C133.761 37.5795 133.587 37.4636 133.441 37.3175C133.295 37.1715 133.179 36.998 133.1 36.8071C133.021 36.6162 132.98 36.4115 132.98 36.2049C132.98 35.998 133.02 35.7931 133.099 35.6019C133.178 35.4107 133.294 35.237 133.44 35.0906C133.586 34.9443 133.76 34.8281 133.951 34.7489C134.142 34.6697 134.347 34.6289 134.554 34.6289C134.761 34.629 134.966 34.6699 135.157 34.7492C135.348 34.8284 135.521 34.9446 135.667 35.0909C135.814 35.2373 135.929 35.411 136.008 35.6021C136.088 35.7932 136.128 35.9981 136.128 36.2049Z" fill="white"/>
    <path d="M103.945 38.304C103.002 38.343 102.535 39.046 101.893 39.928C101.893 39.935 101.893 39.52 101.893 39.504C101.861 39.1128 101.69 38.7461 101.41 38.4708C101.13 38.1954 100.761 38.0298 100.37 38.004C99.9561 37.9997 99.5562 38.1519 99.25 38.4301C98.9438 38.7082 98.7541 39.0918 98.7188 39.504V45.604C98.7503 45.9955 98.9219 46.3625 99.2019 46.638C99.482 46.9134 99.8518 47.0788 100.244 47.104C100.652 47.1076 101.048 46.9584 101.353 46.6855C101.658 46.4127 101.85 46.036 101.891 45.629H101.898V41.765C101.946 41.198 102.193 40.491 102.649 40.494C103.294 40.5 102.627 42.059 104.106 42.059C106.227 42.059 106.453 38.202 103.948 38.305" fill="white"/>
    <path d="M97.4686 44.2587C97.4686 44.2587 96.9796 44.9287 95.0836 44.9287C94.5907 44.971 94.0977 44.8495 93.6809 44.5829C93.2642 44.3164 92.947 43.9198 92.7786 43.4547C95.5436 43.4547 97.8626 43.2687 97.8626 41.0307C97.8626 38.7927 95.3336 38.0547 93.8336 38.0547C93.2467 38.0591 92.6667 38.1829 92.1291 38.4185C91.5915 38.6541 91.1075 38.9967 90.7064 39.4253C90.3054 39.854 89.9958 40.3597 89.7964 40.9118C89.597 41.4639 89.512 42.0507 89.5466 42.6367C89.5318 43.2124 89.6324 43.7853 89.8425 44.3216C90.0526 44.8579 90.3679 45.3467 90.7698 45.7592C91.1718 46.1716 91.6523 46.4995 92.1829 46.7234C92.7136 46.9472 93.2837 47.0626 93.8596 47.0627C97.3046 47.0627 97.4696 44.2627 97.4696 44.2627L97.4686 44.2587ZM92.5986 42.0167C92.6023 41.6334 92.6852 41.255 92.8421 40.9053C92.9991 40.5556 93.2267 40.2422 93.5106 39.9847C93.6388 39.9071 93.7853 39.8647 93.9351 39.8618C94.0849 39.8588 94.2329 39.8955 94.364 39.968C94.4952 40.0405 94.6049 40.1463 94.6821 40.2748C94.7592 40.4033 94.8012 40.5498 94.8036 40.6997C94.8162 41.0133 94.7135 41.3207 94.5149 41.5637C94.3162 41.8067 94.0355 41.9686 93.7256 42.0187C93.3515 42.061 92.9738 42.061 92.5996 42.0187" fill="white"/>
    <path d="M89.3537 45.3908C89.1328 45.8443 88.8018 46.2351 88.3907 46.5274C87.9796 46.8197 87.5017 47.0041 87.0008 47.0638C86.2741 47.0378 85.5818 46.7476 85.0538 46.2475C84.5258 45.7475 84.1982 45.072 84.1327 44.3478C84.1327 44.3328 84.1237 42.0208 84.1177 40.0888H83.6907C83.6012 40.0887 83.5127 40.0694 83.4313 40.0321C83.3498 39.9949 83.2775 39.9405 83.2189 39.8728C83.1603 39.8051 83.1168 39.7256 83.0916 39.6397C83.0664 39.5538 83.0601 39.4634 83.0728 39.3748C83.0653 39.2841 83.0771 39.1927 83.1073 39.1068C83.1375 39.0209 83.1855 38.9423 83.2482 38.8762C83.3109 38.8102 83.3868 38.7581 83.471 38.7234C83.5552 38.6886 83.6458 38.6721 83.7368 38.6748H84.1138C84.1138 37.9988 84.1138 37.5348 84.1138 37.5058C84.1496 37.0951 84.3391 36.713 84.6445 36.436C84.9498 36.159 85.3484 36.0075 85.7607 36.0118C86.1535 36.0361 86.5247 36.2 86.8073 36.474C87.0899 36.748 87.2653 37.1139 87.3017 37.5058V38.6738H88.6467C88.7356 38.6756 88.8231 38.6961 88.9036 38.7339C88.984 38.7717 89.0557 38.826 89.1138 38.8932C89.172 38.9604 89.2153 39.039 89.2411 39.1241C89.2669 39.2091 89.2747 39.2986 89.2638 39.3868C89.2733 39.478 89.2629 39.5701 89.2334 39.657C89.2039 39.7438 89.1559 39.8231 89.0928 39.8896C89.0297 39.9562 88.953 40.0082 88.8679 40.0423C88.7827 40.0763 88.6914 40.0915 88.5998 40.0868H87.2997V43.6348C87.3111 43.888 87.3745 44.1362 87.4859 44.3639C87.5973 44.5916 87.7543 44.794 87.9472 44.9584C88.1401 45.1228 88.3649 45.2458 88.6074 45.3197C88.8499 45.3935 89.1049 45.4167 89.3567 45.3878" fill="white"/>
    <path d="M131.856 45.3908C131.636 45.8442 131.305 46.2349 130.894 46.5272C130.483 46.8194 130.005 47.004 129.504 47.0638C128.778 47.038 128.085 46.7478 127.557 46.2478C127.029 45.7477 126.702 45.0721 126.636 44.3478C126.636 44.3328 126.627 42.0208 126.621 40.0888H126.194C126.105 40.0887 126.016 40.0694 125.935 40.0321C125.854 39.9949 125.781 39.9405 125.723 39.8728C125.664 39.8051 125.621 39.7255 125.596 39.6396C125.571 39.5537 125.564 39.4634 125.577 39.3748C125.57 39.2841 125.582 39.1927 125.612 39.1068C125.642 39.0209 125.69 38.9423 125.753 38.8762C125.815 38.8102 125.891 38.7581 125.976 38.7234C126.06 38.6886 126.15 38.6721 126.241 38.6748H126.618C126.618 37.9988 126.618 37.5348 126.618 37.5058C126.654 37.0951 126.844 36.713 127.149 36.436C127.454 36.159 127.853 36.0075 128.265 36.0118C128.658 36.0363 129.029 36.2003 129.312 36.4742C129.594 36.7482 129.77 37.114 129.806 37.5058V38.6738H131.151C131.24 38.6756 131.328 38.6961 131.408 38.7339C131.489 38.7717 131.56 38.826 131.618 38.8932C131.677 38.9604 131.72 39.039 131.746 39.1241C131.772 39.2091 131.779 39.2986 131.768 39.3868C131.778 39.478 131.767 39.57 131.738 39.6568C131.708 39.7435 131.66 39.8228 131.597 39.8893C131.534 39.9558 131.457 40.0078 131.372 40.0419C131.287 40.076 131.196 40.0913 131.104 40.0868H129.804V43.6348C129.816 43.888 129.879 44.1362 129.99 44.3639C130.102 44.5916 130.259 44.794 130.452 44.9584C130.645 45.1228 130.869 45.2458 131.112 45.3197C131.354 45.3935 131.61 45.4167 131.861 45.3878" fill="white"/>
</svg>