<svg width="170" height="24" viewBox="0 0 170 24" fill="none" xmlns="http://www.w3.org/2000/svg">
    <g clip-path="url(#clip0_685_921)">
    <path d="M12.8678 3.48819C12.8678 1.64588 11.1281 1.1853 9.75473 1.1853V1.46165C10.5788 1.46165 11.2197 1.738 11.2197 2.38281C11.2197 2.75127 10.945 3.30396 10.121 3.30396C9.48005 3.30396 8.10664 2.9355 7.09947 2.56704C5.90918 2.10646 4.81046 1.738 3.89485 1.738C2.06364 1.738 0.781786 3.11973 0.781786 4.6857C0.781786 6.06743 1.78895 6.52801 2.1552 6.71224L2.24676 6.52801C2.06364 6.34378 1.78895 6.15954 1.78895 5.60685C1.78895 5.23839 2.1552 4.59358 3.0708 4.59358C3.89485 4.59358 4.99358 4.96204 6.45855 5.42262C7.7404 5.79108 9.11381 6.06743 9.8463 6.15954V9.01513L8.47289 10.2126V10.3047L9.8463 11.5023V15.4632C9.11381 15.9238 8.28976 16.0159 7.55728 16.0159C6.18387 16.0159 4.99358 15.6475 3.98641 14.5421L7.7404 12.6998V6.34378L3.16236 8.37032C3.52861 7.17282 4.53577 6.34378 5.54294 5.79108L5.45138 5.51474C2.70456 6.25166 0.232422 8.8309 0.232422 11.9628C0.232422 15.6475 3.25392 18.4109 6.64167 18.4109C10.3041 18.4109 12.6847 15.4632 12.6847 12.4234H12.5016C11.9522 13.6209 11.1281 14.7263 10.121 15.279V11.5023L11.5859 10.3047V10.2126L10.121 9.01513V6.15954C11.4944 6.15954 12.8678 5.23839 12.8678 3.48819ZM4.90202 13.6209L3.80329 14.1736C3.16236 13.3446 2.79612 12.2392 2.79612 10.6732C2.79612 10.0284 2.79612 9.29148 2.97924 8.73878L4.90202 7.90974V13.6209ZM14.6075 15.7396L13.4172 16.6607L13.6003 16.845L14.1496 16.3844L16.164 18.2267L18.9108 16.3844L18.8192 16.2001L18.0868 16.6607L17.1712 15.7396V9.47571L17.9036 8.92301L19.4602 10.2126V15.8317C19.4602 19.3321 18.7277 19.8848 17.1712 20.4375V20.7138C19.7348 20.8059 22.1154 19.9769 22.1154 15.4632V9.38359L22.9395 8.73878L22.7564 8.55455L22.0239 9.10724L19.7348 7.17282L17.1712 9.10724V1.55377H16.988L13.7834 3.76454V3.94877C14.1496 4.133 14.699 4.31723 14.699 5.3305L14.6075 15.7396ZM31.3631 14.7263L29.074 16.4765L26.785 14.6342V13.5288L31.0884 10.5811V10.489L28.8909 7.17282L24.1298 9.75205V15.8317L23.2142 16.5686L23.3973 16.7528L24.2213 16.108L27.3344 18.4109L31.4546 15.0948L31.3631 14.7263ZM26.785 13.1603V8.64667L26.9681 8.55455L28.9825 11.7786L26.785 13.1603ZM48.8512 2.65915C48.8512 2.38281 48.7596 2.10646 48.668 1.83011H48.4849C48.2102 2.56704 47.844 2.9355 46.9284 2.9355C46.1043 2.9355 45.555 2.47492 45.1887 2.10646L42.5335 5.14627L42.7166 5.3305L43.6322 4.50146C44.1816 4.96204 44.6394 5.3305 45.9212 5.42262V13.0682L40.5191 3.76454C40.0613 3.02761 39.4204 2.01434 38.1386 2.01434C36.6736 2.01434 35.3917 3.30396 35.5748 5.3305H35.8495C35.9411 4.77781 36.2158 4.133 36.8567 4.133C37.3145 4.133 37.7723 4.59358 38.047 5.05416V8.09397C36.3989 8.09397 35.3002 8.8309 35.3002 10.2126C35.3002 10.9496 35.6664 12.0549 36.7651 12.3313V12.1471C36.582 11.9628 36.4905 11.7786 36.4905 11.5023C36.4905 11.0417 36.8567 10.6732 37.4976 10.6732H37.9554V14.5421C36.0327 14.5421 34.4761 15.6475 34.4761 17.4898C34.4761 19.24 35.9411 20.069 37.5892 19.9769V19.7927C36.582 19.7005 36.1242 19.24 36.1242 18.5951C36.1242 17.7661 36.6736 17.3976 37.4061 17.3976C38.1385 17.3976 38.7795 17.8582 39.2373 18.4109L41.8925 15.4632L41.7094 15.279L41.0685 16.0159C40.0613 15.0948 39.512 14.8184 38.3217 14.6342V5.42262L45.6465 18.3188H46.1959V5.42262C47.5693 5.3305 48.8512 4.22512 48.8512 2.65915ZM55.5351 14.7263L53.2461 16.4765L50.9571 14.6342V13.5288L55.2604 10.5811V10.489L53.0629 7.17282L48.3018 9.75205V15.8317L47.3862 16.5686L47.5693 16.7528L48.3933 16.108L51.5064 18.4109L55.6266 15.0948L55.5351 14.7263ZM50.9571 13.1603V8.64667L51.1402 8.55455L53.1545 11.7786L50.9571 13.1603ZM70.4595 8.18609L69.8186 8.64667L68.0789 7.17282L66.0646 9.01513L66.8886 9.84417V16.7528L64.6912 15.3711V9.65994L65.4236 9.19936L63.3177 7.17282L61.3034 9.01513L62.1275 9.84417V16.4765L61.8528 16.6607L59.93 15.279V9.75205C59.93 8.46244 59.2891 8.09397 58.5566 7.63339C57.9157 7.17282 57.5494 6.89647 57.5494 6.25166C57.5494 5.69897 58.0988 5.42262 58.3735 5.23839V5.05416C57.641 5.05416 55.7182 5.79108 55.7182 7.54128C55.7182 8.46244 56.176 8.8309 56.6338 9.29148C57.0916 9.75205 57.5494 10.1205 57.5494 10.9496V16.2923L56.5423 17.0292L56.7254 17.2134L57.641 16.4765L59.7469 18.3188L62.0359 16.7528L64.5996 18.3188L69.4523 15.4632V9.29148L70.6426 8.37032L70.4595 8.18609ZM87.4898 3.11973L86.5742 3.94877L84.5598 2.10646L81.5383 4.31723V2.29069H81.2636L81.3552 17.2134C81.0805 17.2134 80.2565 17.0292 79.6155 16.845L79.4324 4.40935C79.4324 3.48819 78.7915 2.19857 77.1434 2.19857C75.4953 2.19857 74.3966 3.48819 74.3966 4.77781H74.6713C74.7628 4.22512 75.0375 3.76454 75.5869 3.76454C76.1362 3.76454 76.594 4.133 76.594 5.3305V8.92301C74.946 9.01513 73.9388 9.93629 73.9388 11.1338C73.9388 11.8707 74.305 12.9761 75.4038 12.9761V12.7919C75.0375 12.6076 74.946 12.3313 74.946 12.1471C74.946 11.5944 75.4038 11.4101 76.1362 11.4101H76.5025V17.1213C75.1291 17.5819 74.5797 18.5952 74.5797 19.7005C74.5797 21.2665 75.77 22.3719 77.6012 22.3719C78.8831 22.3719 79.9818 22.1877 81.0805 21.9113C81.9961 21.7271 83.1864 21.4507 83.7358 21.4507C84.4683 21.4507 84.743 21.8192 84.743 22.2798C84.743 22.9246 84.4683 23.2009 84.102 23.293V23.4773C85.567 23.2009 86.4826 22.2798 86.4826 20.898C86.4826 19.5163 85.1092 18.6873 83.6442 18.6873C82.9117 18.6873 81.3552 18.9636 80.2565 19.1478C78.9746 19.4242 77.6928 19.6084 77.3265 19.6084C76.6856 19.6084 75.9531 19.3321 75.9531 18.4109C75.9531 17.674 76.594 17.0292 78.1506 17.0292C78.9746 17.0292 79.9818 17.1213 80.989 17.3976C82.0877 17.674 83.0949 17.9503 84.0105 17.9503C85.3839 17.9503 86.5742 17.4898 86.5742 15.5553V4.22512L87.6729 3.30396L87.4898 3.11973ZM83.7358 8.73878C83.4611 9.01513 83.0949 9.29148 82.637 9.29148C82.1792 9.29148 81.7214 9.01513 81.5383 8.73878V4.6857L82.4539 4.04089L83.7358 5.23839V8.73878ZM83.7358 11.5023C83.5527 11.318 83.0949 11.0417 82.637 11.0417C82.1792 11.0417 81.7214 11.318 81.5383 11.5023V9.10724C81.7214 9.29148 82.1792 9.56782 82.637 9.56782C83.0949 9.56782 83.5527 9.29148 83.7358 9.10724V11.5023ZM83.7358 15.8317C83.7358 16.5686 83.278 17.3055 82.2708 17.3055H81.5383V11.8707C81.7214 11.6865 82.1792 11.4101 82.637 11.4101C83.0949 11.4101 83.4611 11.6865 83.7358 11.8707V15.8317ZM96.2796 9.29148L93.3496 7.17282L88.8632 9.75205V15.7396L87.9476 16.4765L88.0391 16.6607L88.7716 16.108L91.7016 18.3188L96.2796 15.5553V9.29148ZM91.3353 15.0948V8.46244L93.6243 10.1205V16.6607L91.3353 15.0948ZM104.978 7.35705H104.795C104.52 7.54128 104.245 7.72551 103.971 7.72551C103.604 7.72551 103.147 7.54128 102.964 7.26493H102.78L101.224 9.01513L99.6673 7.26493L96.9205 9.10724L97.0121 9.29148L97.7446 8.8309L98.6602 9.84417V15.6475L97.4699 16.5686L97.653 16.7528L98.2024 16.2923L100.4 18.1346L103.238 16.2001L103.147 16.0159L102.323 16.4765L101.224 15.5553V9.10724C101.682 9.56782 102.231 10.0284 102.872 10.0284C104.154 10.1205 104.886 8.8309 104.978 7.35705ZM115.965 16.2001L112.852 18.3188L108.64 11.8707L111.662 7.17282H111.845C112.211 7.54128 112.761 7.90974 113.401 7.90974C114.042 7.90974 114.5 7.54128 114.775 7.17282H114.958C114.866 9.01513 113.585 10.1205 112.669 10.1205C111.753 10.1205 111.296 9.65994 110.746 9.38359L110.472 9.84417L115.05 16.6607L115.965 16.108V16.2001ZM105.893 15.7396L104.703 16.6607L104.886 16.845L105.436 16.3844L107.45 18.2267L110.197 16.3844L110.014 16.2001L109.281 16.6607L108.366 15.7396V1.55377H108.274L104.978 3.76454V3.94877C105.344 4.133 105.893 4.22512 105.893 5.3305V15.7396ZM131.164 3.48819C131.164 1.64588 129.425 1.1853 128.051 1.1853V1.46165C128.875 1.46165 129.516 1.738 129.516 2.38281C129.516 2.75127 129.241 3.30396 128.417 3.30396C127.776 3.30396 126.403 2.9355 125.396 2.56704C124.206 2.19857 123.107 1.83011 122.191 1.83011C120.36 1.83011 119.078 3.21185 119.078 4.77781C119.078 6.15954 120.085 6.62012 120.452 6.80435L120.543 6.62012C120.268 6.43589 119.994 6.25166 119.994 5.69897C119.994 5.3305 120.36 4.6857 121.276 4.6857C122.1 4.6857 123.198 5.05416 124.663 5.51474C125.945 5.8832 127.319 6.15954 128.051 6.25166V9.10724L126.678 10.3047V10.3969L128.051 11.5944V15.5553C127.319 16.0159 126.495 16.108 125.762 16.108C124.389 16.108 123.198 15.7396 122.191 14.6342L125.945 12.7919V6.34378L121.367 8.37032C121.825 7.17282 122.832 6.34378 123.748 5.69897L123.656 5.51474C120.909 6.25166 118.437 8.73878 118.437 11.8707C118.437 15.5553 121.459 18.3188 124.847 18.3188C128.509 18.3188 130.89 15.3711 130.89 12.3313H130.706C130.157 13.5288 129.333 14.6342 128.326 15.1869V11.4101L129.791 10.2126V10.1205L128.417 8.92301V6.15954C129.791 6.15954 131.164 5.23839 131.164 3.48819ZM123.198 13.6209L122.1 14.1736C121.459 13.3446 121.093 12.2392 121.093 10.6732C121.093 10.0284 121.184 9.29148 121.367 8.73878L123.29 7.90974L123.198 13.6209ZM134.369 2.56704H134.277L132.446 4.133V4.22512L134.003 5.97531H134.186L136.017 4.40935V4.31723L134.369 2.56704ZM137.116 16.2001L136.383 16.6607L135.468 15.7396V9.38359L136.383 8.73878L136.2 8.55455L135.559 9.10724L133.911 7.17282L131.256 9.01513L131.439 9.29148L132.08 8.8309L132.904 9.84417V15.8317L131.714 16.7528L131.805 16.9371L132.446 16.4765L134.46 18.3188L137.207 16.4765L137.116 16.2001ZM152.406 16.108L151.765 16.5686L150.758 15.6475V9.38359L151.674 8.64667L151.491 8.46244L150.758 9.10724L148.652 7.17282L145.906 9.10724L143.8 7.17282L141.236 9.10724L139.588 7.17282L136.933 9.01513L137.024 9.29148L137.665 8.8309L138.581 9.84417V15.8317L137.848 16.5686L139.954 18.3188L141.968 16.4765L141.144 15.6475V9.38359L141.968 8.8309L143.342 10.1205V15.6475L142.609 16.3844L144.715 18.1346L146.73 16.2923L145.906 15.4632V9.38359L146.638 8.92301L148.103 10.2126V15.7396L147.462 16.3844L149.568 18.3188L152.406 16.3844V16.108ZM160.372 14.7263L158.083 16.4765L155.794 14.6342V13.5288L160.097 10.5811V10.489L157.9 7.17282L153.139 9.75205V16.0159L156.343 18.3188L160.464 15.0026L160.372 14.7263ZM155.794 13.1603V8.64667L155.977 8.55455L157.992 11.7786L155.794 13.1603ZM168.704 12.3313L166.964 10.9496C168.155 9.93629 168.613 8.55455 168.613 7.63339V7.0807H168.429C168.246 7.54128 167.88 8.00186 167.148 8.00186C166.415 8.00186 165.957 7.63339 165.499 7.0807L161.379 9.38359V12.6998L162.936 13.8973C161.379 15.279 161.105 16.2001 161.105 16.9371C161.105 17.8582 161.562 18.503 162.295 18.7794L162.386 18.5951C162.203 18.4109 162.02 18.3188 162.02 17.8582C162.02 17.5819 162.386 17.1213 163.119 17.1213C164.035 17.1213 164.584 17.7661 164.859 18.0425L168.796 15.6475V12.3313H168.704ZM167.697 9.56782C167.056 10.6732 165.683 11.7786 164.859 12.3313L163.851 11.5023V8.2782C164.218 9.19936 165.225 9.93629 166.232 9.93629C166.873 9.93629 167.239 9.84417 167.697 9.56782ZM166.14 16.9371C165.683 15.9238 164.584 15.1869 163.485 15.1869C163.21 15.1869 162.478 15.1869 161.745 15.6475C162.203 14.9105 163.394 13.6209 164.95 12.6998L166.049 13.6209L166.14 16.9371Z" fill="black"/>
    </g>
    <defs>
    <clipPath id="clip0_685_921">
    <rect width="169.479" height="22.9027" fill="white" transform="translate(0.232422 0.879883)"/>
    </clipPath>
    </defs>
</svg>