<svg width="225" height="72" viewBox="0 0 225 72" fill="none" xmlns="http://www.w3.org/2000/svg">
<g clip-path="url(#clip0_649_15546)">
<path d="M35.0358 16.988C34.7984 16.6781 34.6485 16.3103 34.6018 15.9228C34.3835 16.2451 34.0747 16.4956 33.7142 16.6428C34.1777 16.7513 34.6216 16.8696 35.0358 16.988ZM38.0539 17.4318C37.8459 17.5735 37.616 17.6802 37.3733 17.7473C37.8468 17.9183 38.3202 18.1025 38.7936 18.2997C38.6591 18.0879 38.5622 17.8542 38.5076 17.6093H38.4287C38.3042 17.5632 38.1852 17.5037 38.0736 17.4318H38.0539ZM26.672 14.9266C26.5316 15.2933 26.2927 15.6141 25.9816 15.8537H27.3722C27.0621 15.6154 26.826 15.2939 26.6917 14.9266H26.672ZM14.5503 18.2997C15.0106 18.1025 15.4841 17.9183 15.9706 17.7473C15.7261 17.6853 15.4953 17.5783 15.2901 17.4318C15.1785 17.5051 15.0549 17.5585 14.9251 17.5896H14.8462C14.7909 17.8389 14.6978 18.0784 14.5701 18.2997H14.5503ZM19.6101 16.6625C19.2554 16.5057 18.9489 16.2571 18.7224 15.9425C18.6817 16.3315 18.5311 16.701 18.2884 17.0076C18.7279 16.87 19.1761 16.7613 19.6298 16.6822L19.6101 16.6625ZM22.569 15.4C22.4494 15.7003 22.2641 15.9699 22.0265 16.1891C22.5295 16.1102 23.0128 16.0411 23.5454 16.0017C23.2627 15.8456 23.017 15.6303 22.8254 15.3704L22.569 15.4ZM30.7651 15.4H30.5185C30.3242 15.6574 30.0793 15.8723 29.7985 16.0313L31.3175 16.2187C31.0993 16.0099 30.922 15.7625 30.7947 15.4888L30.7651 15.4ZM42.9262 16.4751C42.6983 16.3512 42.4307 16.3221 42.1816 16.3941C41.9323 16.4661 41.7215 16.6334 41.5947 16.8597C41.4952 17.0323 41.4495 17.2307 41.4636 17.4294C41.4776 17.6281 41.5508 17.8181 41.6736 17.975C41.7965 18.1318 41.9634 18.2483 42.153 18.3096C42.3425 18.3709 42.5461 18.374 42.7375 18.3187C42.9289 18.2635 43.0994 18.1522 43.227 17.9993C43.3548 17.8463 43.4339 17.6588 43.4542 17.4606C43.4744 17.2624 43.435 17.0626 43.341 16.8871C43.2469 16.7114 43.1025 16.568 42.9262 16.4751ZM35.4007 12.9639C35.2119 12.9148 35.0127 12.9229 34.8285 12.9871C34.6441 13.0513 34.4831 13.1687 34.3656 13.3244C34.2481 13.4802 34.1794 13.6674 34.1683 13.8622C34.1571 14.057 34.204 14.2507 34.303 14.4188C34.4019 14.587 34.5486 14.722 34.7243 14.8068C34.9001 14.8916 35.0971 14.9224 35.2903 14.8952C35.4835 14.868 35.6643 14.7842 35.8099 14.6542C35.9554 14.5243 36.0591 14.354 36.1079 14.1652C36.1733 13.9121 36.1355 13.6434 36.0029 13.4181C35.8703 13.1929 35.6537 13.0295 35.4007 12.9639ZM36.2884 10.9913C36.1791 10.9913 36.0724 11.0236 35.9816 11.0843C35.8907 11.145 35.8199 11.2312 35.7781 11.3321C35.7363 11.4331 35.7253 11.5442 35.7467 11.6513C35.768 11.7585 35.8206 11.8568 35.8978 11.9341C35.9751 12.0114 36.0735 12.064 36.1806 12.0853C36.2878 12.1066 36.3989 12.0956 36.4998 12.0538C36.6007 12.0121 36.687 11.9413 36.7476 11.8504C36.8084 11.7596 36.8407 11.6528 36.8407 11.5436C36.833 11.4031 36.7712 11.2712 36.6682 11.1755C36.5652 11.0798 36.429 11.0278 36.2884 11.0307V10.9913ZM35.8248 9.01862C35.7156 9.01862 35.6088 9.051 35.518 9.11169C35.4272 9.17239 35.3564 9.25864 35.3145 9.35957C35.2727 9.46049 35.2618 9.57156 35.2832 9.67871C35.3045 9.78585 35.357 9.88423 35.4343 9.96146C35.5115 10.0388 35.6099 10.0914 35.717 10.1127C35.8243 10.134 35.9353 10.123 36.0362 10.0812C36.1371 10.0395 36.2234 9.96866 36.2841 9.87782C36.3448 9.78696 36.3772 9.68019 36.3772 9.57095C36.3798 9.42874 36.3266 9.29116 36.2288 9.18784C36.131 9.08454 35.9966 9.02377 35.8544 9.01862H35.8248ZM42.6599 14.1869C42.6321 14.0144 42.6731 13.8379 42.7741 13.6954C42.875 13.5529 43.0279 13.4557 43.1997 13.4247C43.3716 13.3937 43.5489 13.4314 43.6933 13.5296C43.8377 13.6278 43.9377 13.7788 43.972 13.9501C44.0062 14.1214 43.9719 14.2992 43.8764 14.4454C43.7809 14.5917 43.6318 14.6945 43.4612 14.732C43.2907 14.7695 43.1121 14.7385 42.9642 14.6458C42.8162 14.5531 42.7104 14.406 42.6698 14.2362L42.6599 14.1869ZM42.1964 12.2143C42.1831 12.0573 42.2316 11.9011 42.3315 11.7793C42.4314 11.6574 42.5749 11.5793 42.7314 11.5615C42.8881 11.5438 43.0454 11.5877 43.17 11.684C43.2948 11.7804 43.377 11.9216 43.3993 12.0776C43.4215 12.2336 43.3822 12.3922 43.2895 12.5196C43.1968 12.6471 43.058 12.7333 42.9026 12.76C42.7474 12.7868 42.5877 12.752 42.4577 12.6629C42.3276 12.574 42.2374 12.4378 42.2062 12.2833L42.1964 12.2143ZM41.3679 10.4981C41.2214 10.4981 41.0809 10.5563 40.9773 10.6599C40.8737 10.7634 40.8155 10.9039 40.8155 11.0504C40.8155 11.1224 40.8298 11.1938 40.8577 11.2603C40.8857 11.3268 40.9265 11.3871 40.9779 11.4376C41.0293 11.4881 41.0903 11.5277 41.1572 11.5544C41.2242 11.5811 41.2958 11.5942 41.3679 11.5929C41.5143 11.5929 41.6549 11.5347 41.7584 11.4311C41.862 11.3275 41.9202 11.187 41.9202 11.0406C41.9056 10.9071 41.842 10.7839 41.7418 10.6947C41.6416 10.6054 41.5119 10.5565 41.3777 10.5573L41.3679 10.4981ZM40.0659 8.97916C40.0065 8.77506 40.0296 8.5558 40.1301 8.36847C40.2306 8.18115 40.4005 8.04073 40.6035 7.97739C40.8064 7.91405 41.026 7.93284 41.2153 8.02974C41.4045 8.12663 41.5482 8.29389 41.6154 8.49556C41.6826 8.69723 41.668 8.91722 41.5748 9.10826C41.4815 9.2993 41.3171 9.44616 41.1168 9.51726C40.9164 9.58834 40.6962 9.578 40.5034 9.48845C40.3106 9.3989 40.1606 9.23729 40.0857 9.03834L40.0659 8.97916ZM38.4484 7.81533C38.3888 7.61098 38.4119 7.39142 38.5125 7.20387C38.6132 7.01631 38.7834 6.87572 38.9865 6.8123C39.1897 6.74888 39.4097 6.76769 39.5991 6.86471C39.7886 6.96171 39.9324 7.12917 39.9998 7.3311C40.067 7.53302 40.0524 7.75328 39.959 7.94455C39.8657 8.13583 39.701 8.28286 39.5005 8.35403C39.2999 8.42519 39.0793 8.41483 38.8863 8.32516C38.6933 8.2355 38.5432 8.07371 38.4681 7.87451L38.4484 7.81533ZM36.7125 7.14463C36.653 6.94028 36.676 6.72074 36.7766 6.53318C36.8773 6.34564 37.0475 6.20504 37.2506 6.14162C37.4538 6.0782 37.6738 6.09702 37.8632 6.19402C38.0527 6.29104 38.1965 6.4585 38.2638 6.66042C38.3311 6.86234 38.3165 7.0826 38.2232 7.27388C38.1298 7.46516 37.9651 7.61218 37.7646 7.68335C37.564 7.75452 37.3435 7.74415 37.1504 7.65449C36.9574 7.56481 36.8072 7.40302 36.7323 7.20384L36.7125 7.14463ZM34.9569 7.29259C34.8476 7.29259 34.7409 7.32498 34.6501 7.38566C34.5592 7.44636 34.4884 7.53261 34.4466 7.63354C34.4048 7.73446 34.3938 7.84554 34.4151 7.95268C34.4365 8.05982 34.4891 8.15822 34.5663 8.23547C34.6436 8.31271 34.742 8.36532 34.8492 8.38663C34.9563 8.40793 35.0674 8.39701 35.1683 8.35521C35.2692 8.3134 35.3555 8.24259 35.4161 8.15176C35.4768 8.06093 35.5092 7.95417 35.5092 7.84492C35.4931 7.71305 35.4307 7.59113 35.3332 7.50085C35.2357 7.41059 35.1094 7.35778 34.9766 7.35177L34.9569 7.29259ZM33.655 5.81314C33.2349 5.53875 32.7232 5.44187 32.232 5.54373C31.7407 5.64558 31.3097 5.93788 31.0333 6.35665C30.7569 6.77543 30.6577 7.28661 30.7572 7.77838C30.8569 8.27015 31.1471 8.70247 31.5646 8.98079C31.982 9.25911 32.4927 9.36076 32.985 9.26351C33.4773 9.16627 33.9109 8.87805 34.1911 8.46187C34.4714 8.04571 34.5755 7.53548 34.4805 7.0428C34.3856 6.55012 34.0994 6.11508 33.6846 5.83286L33.655 5.81314ZM31.9585 4.69862C31.7617 4.35575 31.7081 3.949 31.8095 3.56685C31.9109 3.1847 32.1591 2.85804 32.5 2.65788C32.841 2.45772 33.2472 2.40025 33.6303 2.49799C34.0134 2.59572 34.3424 2.84074 34.5459 3.17977C34.7493 3.5188 34.8106 3.92442 34.7165 4.30844C34.6225 4.69247 34.3807 5.02385 34.0436 5.2305C33.7066 5.43717 33.3015 5.50241 32.9165 5.41204C32.5317 5.32167 32.198 5.08299 31.9881 4.74793L31.9585 4.69862ZM30.2029 4.05753C30.0059 3.71443 29.9523 3.30741 30.0538 2.92501C30.1552 2.5426 30.4035 2.21573 30.7447 2.01543C31.086 1.81513 31.4924 1.75763 31.8758 1.85542C32.2592 1.95321 32.5884 2.1984 32.792 2.53766C32.9954 2.87691 33.0569 3.2828 32.9628 3.66708C32.8686 4.05136 32.6267 4.38296 32.2894 4.58975C31.952 4.79654 31.5468 4.86184 31.1616 4.7714C30.7765 4.68097 30.4425 4.44213 30.2325 4.10683L30.2029 4.05753ZM28.4079 3.74191C28.2107 3.39859 28.157 2.99132 28.2586 2.60866C28.3601 2.22599 28.6086 1.89888 28.95 1.69845C29.2914 1.49801 29.6981 1.44046 30.0818 1.53833C30.4654 1.63618 30.7949 1.88153 30.9986 2.221C31.2023 2.56049 31.2637 2.96668 31.1695 3.35122C31.0753 3.73576 30.8332 4.06756 30.4957 4.27449C30.1581 4.48142 29.7526 4.54672 29.3671 4.45623C28.9817 4.36574 28.6476 4.12673 28.4375 3.79121L28.4079 3.74191ZM11.3646 18.1913C11.5634 18.08 11.7176 17.9035 11.8009 17.6914C11.8844 17.4794 11.8918 17.2451 11.822 17.0283C11.7522 16.8114 11.6096 16.6255 11.4181 16.5019C11.2268 16.3783 10.9986 16.3248 10.7722 16.3503C10.5459 16.376 10.3354 16.4791 10.1764 16.6424C10.0175 16.8056 9.92 17.0187 9.90043 17.2457C9.88087 17.4726 9.94045 17.6994 10.0691 17.8874C10.1977 18.0754 10.3875 18.2131 10.6061 18.2771C10.7319 18.3139 10.8638 18.3252 10.994 18.3105C11.1242 18.2957 11.2502 18.2552 11.3646 18.1913ZM18.4364 14.8576C17.8336 14.8562 17.256 14.6157 16.8304 14.1887C16.4049 13.7619 16.1662 13.1834 16.1669 12.5807C16.1675 11.9779 16.4074 11.4 16.8339 10.974C17.2604 10.548 17.8385 10.3087 18.4413 10.3087C19.044 10.3087 19.6222 10.548 20.0487 10.974C20.4751 11.4 20.715 11.9779 20.7157 12.5807C20.7163 13.1834 20.4777 13.7619 20.0521 14.1887C19.6266 14.6157 19.0489 14.8562 18.4462 14.8576H18.4364ZM26.6621 13.8713C26.5288 13.9967 26.3514 14.0649 26.1684 14.0607C25.9853 14.0566 25.8111 13.9806 25.6836 13.8492C25.5561 13.7178 25.4854 13.5414 25.4867 13.3584C25.4881 13.1752 25.5615 13 25.691 12.8705C25.8205 12.741 25.9957 12.6677 26.1788 12.6663C26.3619 12.6649 26.5382 12.7356 26.6697 12.8632C26.8011 12.9907 26.877 13.1648 26.8812 13.3478C26.8853 13.531 26.8173 13.7083 26.6917 13.8417L26.6621 13.8713ZM17.0457 12.1551C17.155 12.1551 17.2617 12.1226 17.3525 12.062C17.4433 12.0012 17.5142 11.915 17.556 11.8141C17.5978 11.7131 17.6087 11.6021 17.5873 11.495C17.566 11.3878 17.5135 11.2894 17.4362 11.2122C17.3589 11.135 17.2606 11.0823 17.1535 11.061C17.0463 11.0397 16.9352 11.0506 16.8343 11.0925C16.7333 11.1343 16.6471 11.2051 16.5865 11.2958C16.5257 11.3867 16.4933 11.4935 16.4933 11.6028C16.4958 11.6757 16.513 11.7475 16.5438 11.8137C16.5747 11.8799 16.6186 11.9392 16.6729 11.988C16.7273 12.0368 16.7909 12.0741 16.8601 12.0978C16.9292 12.1214 17.0024 12.1308 17.0753 12.1255L17.0457 12.1551ZM17.5092 10.1825C17.4422 10.2128 17.3658 10.2155 17.2968 10.1902C17.2276 10.1649 17.1712 10.1135 17.1397 10.0471C17.108 9.98059 17.1038 9.90435 17.1277 9.83481C17.1517 9.76521 17.2019 9.7078 17.2678 9.67489C17.3336 9.64198 17.4097 9.63617 17.4797 9.65875C17.5498 9.68134 17.6082 9.73051 17.6424 9.79568C17.6766 9.86085 17.6839 9.9368 17.6627 10.0073C17.6414 10.0777 17.5935 10.1371 17.529 10.1726L17.5092 10.1825ZM10.684 15.3507C10.6012 15.374 10.5126 15.3639 10.437 15.3228C10.3615 15.2816 10.3051 15.2125 10.2799 15.1303C10.2546 15.0481 10.2625 14.9592 10.3019 14.8828C10.3412 14.8063 10.409 14.7483 10.4906 14.7211C10.5722 14.6938 10.6612 14.6996 10.7386 14.7372C10.816 14.7748 10.8756 14.8411 10.9047 14.9221C10.9339 15.0029 10.9302 15.0921 10.8944 15.1703C10.8587 15.2486 10.7938 15.3098 10.7136 15.3408L10.684 15.3507ZM11.1476 13.3781C11.2568 13.3781 11.3636 13.3457 11.4544 13.285C11.5453 13.2243 11.6161 13.138 11.6579 13.0371C11.6996 12.9361 11.7107 12.8251 11.6893 12.718C11.668 12.6109 11.6154 12.5124 11.5382 12.4352C11.4609 12.358 11.3625 12.3053 11.2553 12.284C11.1482 12.2627 11.0371 12.2736 10.9362 12.3155C10.8353 12.3573 10.749 12.428 10.6883 12.5188C10.6277 12.6097 10.5953 12.7165 10.5953 12.8258C10.5951 12.8996 10.6101 12.9725 10.6392 13.0404C10.6683 13.1083 10.7109 13.1694 10.7644 13.2202C10.818 13.2709 10.8813 13.3102 10.9506 13.3357C11.0199 13.3611 11.0936 13.3723 11.1673 13.3682L11.1476 13.3781ZM11.9564 11.6619C12.1028 11.6619 12.2433 11.6037 12.3469 11.5001C12.4505 11.3965 12.5087 11.2561 12.5087 11.1096C12.5101 11.0371 12.4967 10.9651 12.4692 10.898C12.4419 10.831 12.4011 10.7701 12.3494 10.7193C12.2976 10.6686 12.2362 10.6289 12.1685 10.6028C12.1009 10.5765 12.0288 10.5644 11.9564 10.5671C11.8099 10.5671 11.6693 10.6253 11.5658 10.7289C11.4622 10.8325 11.404 10.9729 11.404 11.1194C11.4052 11.1932 11.4214 11.2661 11.4517 11.3335C11.4819 11.4009 11.5256 11.4613 11.5802 11.5111C11.6346 11.561 11.6987 11.5992 11.7685 11.6235C11.8383 11.6477 11.9123 11.6574 11.9859 11.6521L11.9564 11.6619ZM13.2681 10.143C13.1495 10.1508 13.0324 10.1124 12.9416 10.0358C12.8506 9.95919 12.793 9.85031 12.7807 9.73207C12.7684 9.61384 12.8023 9.4954 12.8755 9.40167C12.9486 9.30794 13.0551 9.24619 13.1729 9.22939C13.2905 9.21257 13.4102 9.24202 13.5065 9.31152C13.603 9.38103 13.6688 9.4852 13.69 9.60217C13.7113 9.71912 13.6864 9.83976 13.6206 9.93877C13.5549 10.0378 13.4533 10.1074 13.3372 10.1331L13.2681 10.143ZM14.8857 8.98903C14.995 8.98903 15.1017 8.95663 15.1925 8.89594C15.2833 8.83525 15.3542 8.749 15.396 8.64807C15.4377 8.54714 15.4487 8.43609 15.4273 8.32895C15.406 8.22181 15.3535 8.12339 15.2762 8.04614C15.1989 7.96889 15.1006 7.91629 14.9935 7.89498C14.8863 7.87366 14.7752 7.8846 14.6743 7.9264C14.5733 7.96821 14.4871 8.03902 14.4265 8.12985C14.3657 8.22068 14.3333 8.32747 14.3333 8.43672C14.3332 8.51051 14.3481 8.58354 14.3772 8.65135C14.4063 8.71917 14.4489 8.78035 14.5025 8.83114C14.5561 8.88191 14.6195 8.92124 14.6887 8.94669C14.7579 8.97214 14.8317 8.9832 14.9054 8.97916L14.8857 8.98903ZM16.6018 8.30849C16.711 8.30849 16.8178 8.27608 16.9087 8.21539C16.9995 8.1547 17.0703 8.06845 17.1122 7.96752C17.1539 7.86659 17.1649 7.75555 17.1435 7.6484C17.1222 7.54126 17.0696 7.44284 16.9924 7.36559C16.9152 7.28834 16.8168 7.23574 16.7095 7.21443C16.6024 7.19312 16.4914 7.20404 16.3905 7.24585C16.2896 7.28765 16.2033 7.35847 16.1426 7.4493C16.0819 7.54013 16.0495 7.64692 16.0495 7.75616C16.0507 7.83001 16.0669 7.90284 16.0971 7.9702C16.1274 8.03756 16.1711 8.09801 16.2257 8.14788C16.2801 8.19774 16.3442 8.23595 16.414 8.26018C16.4838 8.2844 16.5577 8.29412 16.6314 8.28874L16.6018 8.30849ZM18.3772 8.4663C18.333 8.50534 18.2754 8.52564 18.2164 8.52292C18.1575 8.5202 18.102 8.49468 18.0617 8.45174C18.0212 8.40878 17.9992 8.35178 18.0001 8.29283C18.001 8.23389 18.0249 8.17761 18.0665 8.13592C18.1082 8.09424 18.1645 8.0704 18.2234 8.06949C18.2824 8.06859 18.3394 8.09066 18.3823 8.13105C18.4253 8.17144 18.4509 8.22696 18.4535 8.28585C18.4563 8.34474 18.436 8.40238 18.3969 8.44656L18.3772 8.4663ZM19.6791 6.98685C19.7883 6.98685 19.8951 6.95444 19.9859 6.89375C20.0768 6.83306 20.1476 6.74681 20.1894 6.64588C20.2312 6.54496 20.2421 6.4339 20.2208 6.32677C20.1995 6.21963 20.1469 6.12119 20.0697 6.04395C19.9924 5.9667 19.894 5.9141 19.7868 5.89279C19.6797 5.87148 19.5686 5.88241 19.4677 5.92421C19.3668 5.96602 19.2805 6.03683 19.2199 6.12766C19.1591 6.21848 19.1268 6.32525 19.1268 6.43449C19.128 6.50745 19.1439 6.57943 19.1736 6.64609C19.2033 6.71276 19.2461 6.77275 19.2995 6.82247C19.3529 6.8722 19.4159 6.91065 19.4844 6.93549C19.553 6.96035 19.6259 6.97109 19.6988 6.96711L19.6791 6.98685ZM21.3558 5.87232C21.3035 5.96407 21.2174 6.03177 21.116 6.06105C21.0146 6.09032 20.9057 6.07886 20.8126 6.02908C20.7194 5.9793 20.6494 5.89514 20.6174 5.79451C20.5853 5.69389 20.5938 5.58473 20.641 5.49027C20.6883 5.39582 20.7705 5.32353 20.8703 5.28879C20.97 5.25403 21.0793 5.25955 21.1749 5.30419C21.2707 5.34883 21.3452 5.42907 21.3826 5.52781C21.4201 5.62653 21.4176 5.73598 21.3755 5.83286L21.3558 5.87232ZM23.1114 5.22136C23.0672 5.26041 23.0096 5.28073 22.9508 5.27801C22.8919 5.27528 22.8363 5.24974 22.7959 5.20679C22.7556 5.16384 22.7335 5.10684 22.7344 5.04789C22.7353 4.98895 22.7591 4.93267 22.8007 4.89099C22.8425 4.8493 22.8988 4.82546 22.9577 4.82455C23.0166 4.82365 23.0737 4.84573 23.1166 4.88611C23.1596 4.9265 23.1851 4.98202 23.1878 5.04091C23.1905 5.09981 23.1702 5.15744 23.1312 5.20162L23.1114 5.22136ZM26.6621 10.5869C26.6174 10.624 26.5601 10.6424 26.5021 10.6384C26.4442 10.6343 26.3901 10.6081 26.3509 10.5652C26.3118 10.5222 26.2908 10.4659 26.2921 10.4078C26.2934 10.3497 26.3171 10.2944 26.3581 10.2533C26.3993 10.2123 26.4546 10.1886 26.5127 10.1872C26.5707 10.1858 26.6271 10.2069 26.67 10.2461C26.7129 10.2853 26.7391 10.3393 26.7432 10.3973C26.7472 10.4553 26.7288 10.5125 26.6917 10.5573L26.6621 10.5869ZM26.6621 8.61424C26.6174 8.65133 26.5601 8.66978 26.5021 8.66574C26.4442 8.6617 26.3901 8.63548 26.3509 8.59254C26.3118 8.5496 26.2908 8.49325 26.2921 8.43518C26.2934 8.3771 26.3171 8.32178 26.3581 8.2807C26.3993 8.23963 26.4546 8.21595 26.5127 8.21461C26.5707 8.21326 26.6271 8.23436 26.67 8.27348C26.7129 8.31261 26.7391 8.36676 26.7432 8.4247C26.7472 8.48265 26.7288 8.53995 26.6917 8.58465L26.6621 8.61424ZM26.6621 6.64164C26.7714 6.64164 26.8781 6.60923 26.9689 6.54854C27.0598 6.48785 27.1306 6.40159 27.1724 6.30067C27.2142 6.19974 27.2251 6.0887 27.2038 5.98155C27.1825 5.87441 27.1299 5.77598 27.0527 5.69874C26.9754 5.62149 26.877 5.56889 26.7699 5.54758C26.6627 5.52627 26.5516 5.5372 26.4507 5.579C26.3497 5.6208 26.2635 5.69161 26.2029 5.78245C26.1421 5.87328 26.1098 5.98006 26.1098 6.08931C26.1223 6.23155 26.1905 6.36308 26.2994 6.45541C26.4083 6.54773 26.5493 6.5934 26.6917 6.58246L26.6621 6.64164ZM24.9459 4.84656C25.0551 4.84656 25.1619 4.81416 25.2528 4.75346C25.3436 4.69277 25.4144 4.60652 25.4563 4.50559C25.4981 4.40466 25.5089 4.29362 25.4876 4.18648C25.4663 4.07933 25.4137 3.98091 25.3365 3.90366C25.2593 3.82642 25.1609 3.77382 25.0536 3.7525C24.9465 3.73119 24.8355 3.74216 24.7346 3.78396C24.6337 3.82577 24.5474 3.89654 24.4867 3.98737C24.426 4.0782 24.3936 4.185 24.3936 4.29423C24.3922 4.36714 24.4057 4.43954 24.433 4.50716C24.4602 4.57477 24.5008 4.6362 24.5524 4.68775C24.604 4.73932 24.6653 4.77996 24.733 4.80725C24.8007 4.83453 24.8731 4.8479 24.9459 4.84656ZM40.0955 18.2504C40.2905 18.3515 40.507 18.4044 40.7268 18.4044C40.9464 18.4044 41.163 18.3515 41.358 18.2504C40.6281 17.8855 40.2435 17.56 40.569 16.6921C40.6154 16.5045 40.7098 16.3322 40.843 16.1921C40.9761 16.0521 41.1434 15.949 41.3284 15.8932C41.0621 12.5397 40.1251 10.9617 37.0479 9.41314L36.821 9.48218V9.60054C36.8139 9.7938 36.7553 9.98168 36.6513 10.1446C36.5472 10.3076 36.4015 10.4399 36.2292 10.5277C36.7816 10.646 37.2747 10.8926 37.2747 11.514C37.2771 11.7533 37.1923 11.9853 37.0362 12.1667C36.8802 12.3482 36.6635 12.4668 36.4265 12.5003C36.5682 12.7301 36.6241 13.0025 36.5843 13.2696C36.714 13.312 36.8335 13.381 36.9352 13.4719C37.0369 13.5629 37.1187 13.6741 37.1753 13.7984C37.2318 13.9225 37.2619 14.0572 37.2638 14.1937C37.2656 14.3301 37.2391 14.4655 37.1859 14.5913C36.9492 15.4987 36.3969 15.5776 35.529 15.3606C35.4733 15.6348 35.5142 15.9198 35.6447 16.1675C35.7751 16.415 35.9871 16.6098 36.2448 16.7189C36.5025 16.8281 36.79 16.8448 37.0586 16.7661C37.3272 16.6875 37.5603 16.5185 37.7186 16.2877C37.7128 16.2055 37.7128 16.1232 37.7186 16.0411C37.7574 15.8931 37.8297 15.756 37.9298 15.6402C38.0298 15.5244 38.1551 15.4331 38.2959 15.3732C38.4367 15.3132 38.5894 15.2863 38.7421 15.2945C38.895 15.3027 39.0438 15.3457 39.1775 15.4202C39.3111 15.4948 39.4259 15.599 39.5131 15.7248C39.6002 15.8506 39.6575 15.9946 39.6804 16.1459C39.7033 16.2972 39.6913 16.4517 39.6453 16.5977C39.5993 16.7437 39.5205 16.8771 39.415 16.988C39.3731 17.2506 39.4166 17.5199 39.5391 17.756C39.6616 17.9921 39.8567 18.1827 40.0955 18.2997V18.2504ZM25.8238 6.00055V5.77368C24.9317 5.68438 24.031 5.77695 23.1757 6.04578C22.3205 6.31463 21.5288 6.75415 20.8484 7.33778C20.1679 7.9214 19.6129 8.63701 19.217 9.44128C18.8211 10.2455 18.5924 11.1217 18.5449 12.017C18.6931 12.0707 18.828 12.1557 18.9405 12.2663C19.0528 12.377 19.1399 12.5107 19.1958 12.6581C19.3306 12.6328 19.4693 12.6359 19.6029 12.6673C19.7364 12.6985 19.862 12.7574 19.9715 12.8401C20.081 12.9226 20.1721 13.0272 20.2389 13.147C20.3058 13.2668 20.3469 13.3993 20.3596 13.5359C20.5964 14.4433 20.1525 14.7787 19.2944 15.0055C19.3921 15.3004 19.5983 15.5471 19.8713 15.6954C20.1442 15.8438 20.4634 15.8827 20.764 15.8043C21.0238 15.7402 21.2546 15.5906 21.4191 15.3795C21.5837 15.1684 21.6726 14.9082 21.6714 14.6406C21.5743 14.483 21.5199 14.3028 21.5136 14.1178C21.5136 13.8562 21.6175 13.6053 21.8025 13.4204C21.9874 13.2354 22.2384 13.1315 22.4999 13.1315C22.7615 13.1315 23.0124 13.2354 23.1973 13.4204C23.3823 13.6053 23.4862 13.8562 23.4862 14.1178C23.4826 14.2246 23.466 14.3306 23.4369 14.4334C23.5086 14.6912 23.6637 14.918 23.8777 15.0785C24.0917 15.2391 24.3529 15.3244 24.6205 15.3211C24.931 15.3194 25.2293 15.2007 25.4561 14.9885C25.6828 14.7765 25.8211 14.4866 25.8435 14.177C24.9558 14.177 24.4429 13.9403 24.4429 13.0132C24.4205 12.8767 24.4272 12.737 24.4623 12.6033C24.4974 12.4695 24.5602 12.3447 24.6467 12.2368C24.7332 12.1289 24.8414 12.0404 24.9644 11.9771C25.0873 11.9136 25.2221 11.8769 25.3602 11.8691C25.518 11.0406 25.9421 10.9913 26.6325 10.8828C27.3229 11.0011 27.747 11.0504 27.9049 11.8691C28.0429 11.8769 28.1778 11.9136 28.3007 11.9771C28.4235 12.0404 28.5317 12.1289 28.6182 12.2368C28.7047 12.3447 28.7677 12.4695 28.8028 12.6033C28.8378 12.737 28.8445 12.8767 28.8221 13.0132C28.8221 13.9403 28.3092 14.1671 27.4216 14.177C27.4439 14.4866 27.5822 14.7765 27.809 14.9885C28.0357 15.2007 28.3341 15.3194 28.6446 15.3211C28.9087 15.32 29.1653 15.2327 29.3754 15.0726C29.5855 14.9123 29.7375 14.6879 29.8084 14.4334C29.7793 14.3306 29.7626 14.2246 29.7591 14.1178C29.7591 13.8562 29.8631 13.6053 30.048 13.4204C30.2329 13.2354 30.4838 13.1315 30.7454 13.1315C31.007 13.1315 31.2579 13.2354 31.4428 13.4204C31.6277 13.6053 31.7317 13.8562 31.7317 14.1178C31.7334 14.304 31.6783 14.4863 31.5739 14.6406C31.5732 14.9095 31.6634 15.1708 31.83 15.3821C31.9965 15.5933 32.2295 15.7421 32.4912 15.8043C32.7915 15.8757 33.1076 15.8336 33.3788 15.6861C33.6501 15.5387 33.8573 15.2963 33.9607 15.0055C33.0928 14.7787 32.6588 14.4236 32.8955 13.5359C33.567 13.1108 34.1804 12.6002 34.7202 12.017C34.6754 11.1209 34.4486 10.2431 34.0536 9.43755C33.6584 8.63192 33.1035 7.9152 32.4225 7.33103C31.7414 6.74687 30.9485 6.30755 30.0922 6.03979C29.2358 5.77204 28.3338 5.6815 27.4413 5.77368C27.4479 5.84915 27.4479 5.92508 27.4413 6.00055C27.4399 6.18476 27.3813 6.36399 27.2736 6.51341V7.49971C27.3764 7.6436 27.4317 7.81602 27.4317 7.99286C27.4317 8.16971 27.3764 8.34213 27.2736 8.48601V9.47231C27.3709 9.61464 27.4225 9.7832 27.4216 9.95564C27.4216 10.5178 26.9975 10.7052 26.5733 10.8828C26.1394 10.6855 25.7251 10.5178 25.7251 9.95564C25.7264 9.77138 25.7851 9.59215 25.8928 9.44273V8.45643C25.79 8.31254 25.7347 8.14012 25.7347 7.96328C25.7347 7.78644 25.79 7.61401 25.8928 7.47013V6.48383C25.8269 6.34932 25.8028 6.19816 25.8238 6.04985V6.00055ZM12.7947 16.6822C13.1202 17.5304 12.7454 17.8755 12.0057 18.2405C12.2007 18.3417 12.4172 18.3945 12.6369 18.3945C12.8567 18.3945 13.073 18.3417 13.2681 18.2405C13.4824 18.1276 13.6568 17.9517 13.7679 17.7366C13.8791 17.5214 13.9215 17.2773 13.8895 17.0372C13.8083 16.9256 13.7515 16.7982 13.7226 16.6633C13.6938 16.5284 13.6936 16.3888 13.722 16.2538C13.7505 16.1187 13.807 15.9911 13.8878 15.8793C13.9687 15.7674 14.0721 15.6738 14.1914 15.6045C14.3108 15.5351 14.4432 15.4916 14.5805 15.4767C14.7177 15.4617 14.8565 15.4758 14.9879 15.5178C15.1193 15.5599 15.2404 15.629 15.3435 15.721C15.4465 15.8128 15.5291 15.9251 15.5859 16.0509C15.5992 16.1325 15.5992 16.2159 15.5859 16.2975C15.7441 16.5284 15.9773 16.6974 16.2459 16.776C16.5145 16.8546 16.802 16.8379 17.0597 16.7288C17.3173 16.6197 17.5294 16.4249 17.6598 16.1773C17.7903 15.9298 17.8312 15.6446 17.7755 15.3704C16.9076 15.5776 16.3553 15.4888 16.1185 14.6011C16.0654 14.4754 16.0389 14.3399 16.0407 14.2035C16.0425 14.067 16.0727 13.9324 16.1292 13.8082C16.1858 13.684 16.2675 13.5728 16.3693 13.4819C16.471 13.3908 16.5905 13.3219 16.7202 13.2795C16.6786 13.0124 16.7346 12.7393 16.878 12.5102C16.641 12.4766 16.4243 12.3581 16.2683 12.1766C16.1121 11.9952 16.0274 11.7631 16.0298 11.5239C16.0298 10.8729 16.5328 10.6165 17.0654 10.5376C16.895 10.4473 16.7509 10.3146 16.6471 10.152C16.5434 9.98957 16.4837 9.8029 16.4736 9.61038C16.4736 9.61038 16.4736 9.53151 16.2468 9.45261C13.1202 10.9913 12.2424 12.52 11.9859 15.9228C12.1813 15.9536 12.363 16.0425 12.5072 16.1779C12.6515 16.3133 12.7516 16.4891 12.7947 16.6822ZM39.3459 19.8581C35.3858 18.0133 31.0702 17.0575 26.7016 17.0575C22.3329 17.0575 18.0172 18.0133 14.0572 19.8581C13.9984 19.8858 13.9347 19.9015 13.8698 19.9042C13.8048 19.9067 13.7401 19.8962 13.6793 19.8732C13.6185 19.8501 13.563 19.8151 13.5161 19.7701C13.4691 19.7252 13.4318 19.6712 13.4062 19.6115C13.2879 19.3452 13.4062 19.1677 13.5246 18.9408C13.191 19.086 12.8237 19.1362 12.4634 19.0857C12.1031 19.0352 11.7637 18.8861 11.4829 18.6548C10.2205 19.503 8.77059 17.7671 9.72731 16.9584C9.60619 16.8531 9.51255 16.72 9.45452 16.5705C9.39647 16.4209 9.37579 16.2595 9.39425 16.1001C9.41272 15.9408 9.46977 15.7883 9.56046 15.6561C9.65115 15.5237 9.77275 15.4155 9.9147 15.3408C9.79137 15.1677 9.72266 14.9615 9.71743 14.7491C9.71743 14.0981 10.2007 13.8417 10.7531 13.7628C10.4375 13.4965 10.1712 13.2893 10.1712 12.8356C10.1701 12.6955 10.199 12.5568 10.2558 12.4287C10.3126 12.3006 10.396 12.1861 10.5005 12.0928C10.605 11.9995 10.7283 11.9294 10.8619 11.8875C10.9956 11.8455 11.1367 11.8325 11.2758 11.8493C11.1067 11.6503 11.0094 11.4002 10.9996 11.1392C10.9996 10.8776 11.1035 10.6267 11.2885 10.4417C11.4735 10.2568 11.7244 10.1529 11.9859 10.1529C12.1584 10.1618 12.3282 10.1985 12.489 10.2614C12.3711 10.0673 12.3033 9.847 12.2917 9.62026C12.2917 9.35867 12.3956 9.10781 12.5806 8.92285C12.7655 8.73788 13.0164 8.63396 13.278 8.63396C13.5096 8.64334 13.7345 8.71488 13.929 8.84107C13.906 8.71378 13.8895 8.5854 13.8796 8.45643C13.8796 8.19484 13.9836 7.94396 14.1685 7.75899C14.3535 7.57403 14.6044 7.47013 14.8659 7.47013C15.1299 7.47997 15.3831 7.57709 15.5859 7.74628C15.7043 7.22354 15.9903 6.75998 16.5722 6.75998C16.6488 6.92096 16.7663 7.05905 16.9128 7.16049C17.0594 7.26194 17.2299 7.32317 17.4075 7.33814C17.5852 7.3531 17.7636 7.32128 17.9251 7.24579C18.0865 7.1703 18.2254 7.05381 18.3279 6.90793C18.4787 6.91413 18.628 6.94068 18.7717 6.98685C18.6847 6.81145 18.6343 6.62015 18.6238 6.42465C18.6238 6.16306 18.7276 5.91218 18.9126 5.72722C19.0976 5.54225 19.3485 5.43835 19.6101 5.43835C19.884 5.45173 20.1464 5.55191 20.3596 5.72439C20.323 5.59228 20.2998 5.45678 20.2906 5.31999C20.2906 5.05842 20.3946 4.80753 20.5795 4.62256C20.7644 4.43759 21.0153 4.33369 21.2769 4.33369C21.5543 4.34757 21.8186 4.45539 22.0265 4.63944C22.1449 4.1167 22.4309 3.65314 23.0128 3.65314C23.1716 3.65817 23.3276 3.6968 23.4703 3.7665C23.6132 3.8362 23.7396 3.93541 23.8413 4.05753C23.9107 3.8501 24.043 3.66938 24.2197 3.54039C24.3964 3.4114 24.6088 3.3405 24.8276 3.33752C24.9623 3.34336 25.0955 3.36997 25.2221 3.41641C25.5111 3.12879 25.8722 2.92437 26.2676 2.82465V1.77918H25.4292V1.1578H26.2676V0.408203H26.9383V1.1578H27.7766V1.77918H26.9383V2.82465C27.3273 2.91558 27.6746 3.13435 27.9246 3.446C28.0567 3.39118 28.1989 3.36443 28.342 3.36741C28.4851 3.37038 28.6259 3.40304 28.7557 3.46331C28.8856 3.52357 29.0015 3.61012 29.0961 3.7175C29.1907 3.82488 29.262 3.95076 29.3054 4.08712C29.4071 3.96499 29.5334 3.86579 29.6762 3.79609C29.8191 3.72639 29.9751 3.68776 30.1339 3.68273C30.7355 3.68273 31.0216 4.1167 31.1202 4.66903C31.3218 4.47509 31.5901 4.36569 31.8698 4.36328C32.1313 4.36328 32.3823 4.46718 32.5672 4.65215C32.7521 4.83712 32.8561 5.088 32.8561 5.34958C32.8468 5.48516 32.8303 5.62015 32.8068 5.75397C33.0199 5.5815 33.2825 5.48132 33.5564 5.46794C33.8179 5.46794 34.0687 5.57183 34.2538 5.7568C34.4387 5.94177 34.5427 6.19265 34.5427 6.45424C34.5259 6.64872 34.4758 6.83888 34.3947 7.01643C34.5384 6.97027 34.6877 6.94372 34.8385 6.93752C35.002 6.94201 35.1623 6.9834 35.3074 7.05855C35.4525 7.13369 35.5789 7.24067 35.6769 7.37149C35.7609 7.19906 35.8911 7.05336 36.0531 6.9506C36.215 6.84786 36.4023 6.79212 36.5942 6.78957C36.8557 6.78957 37.1066 6.89347 37.2916 7.07844C37.4765 7.26341 37.5805 7.5143 37.5805 7.77587C37.779 7.59954 38.035 7.5014 38.3005 7.49971C38.562 7.49971 38.813 7.60362 38.9979 7.78858C39.1828 7.97355 39.2868 8.22443 39.2868 8.48601C39.2835 8.61559 39.267 8.74447 39.2375 8.87066C39.432 8.74451 39.6568 8.67298 39.8884 8.66354C40.15 8.66354 40.4009 8.76747 40.5858 8.95244C40.7708 9.1374 40.8747 9.38826 40.8747 9.64985C40.8615 9.87634 40.7938 10.0962 40.6775 10.291C40.8371 10.2116 41.0121 10.1679 41.1903 10.1628C41.4519 10.1628 41.7028 10.2666 41.8877 10.4516C42.0727 10.6366 42.1766 10.8875 42.1766 11.1491C42.1669 11.41 42.0696 11.6602 41.9005 11.8591C42.4824 11.9084 43.0051 12.2043 43.0051 12.8454C42.998 13.0387 42.9394 13.2266 42.8355 13.3895C42.7314 13.5526 42.5857 13.6848 42.4133 13.7726C42.9657 13.891 43.449 14.1376 43.449 14.7589C43.4437 14.9714 43.375 15.1775 43.2517 15.3507C43.5314 16.4075 43.5314 17.519 43.2517 18.5759C43.0637 18.7137 42.84 18.7944 42.6073 18.8084C42.3748 18.8224 42.143 18.769 41.9399 18.6548C41.6591 18.8861 41.3197 19.0352 40.9594 19.0857C40.5991 19.1362 40.2318 19.086 39.8983 18.9408L40.0166 19.1776C40.0827 19.2718 40.1145 19.3861 40.1065 19.5011C40.0985 19.616 40.0513 19.7247 39.9727 19.809C39.8942 19.8933 39.7891 19.9481 39.675 19.9642C39.561 19.9803 39.4448 19.9568 39.3459 19.8976V19.8581ZM15.3591 20.8444L14.5503 20.5387L14.4813 20.4104L14.3136 20.4596C14.2797 20.4635 14.2454 20.4555 14.2167 20.437C14.188 20.4184 14.1666 20.3905 14.1561 20.358C14.1457 20.3254 14.1468 20.2903 14.1594 20.2584C14.1719 20.2267 14.195 20.2002 14.2249 20.1836C18.1291 18.3706 22.3821 17.4313 26.6868 17.4313C30.9915 17.4313 35.2444 18.3706 39.1487 20.1836C39.2572 20.2329 39.2769 20.4892 39.0599 20.4596C39.0007 20.4575 38.9431 20.4405 38.8922 20.4104L38.8232 20.5387L38.0144 20.8444L38.2512 21.7715L38.1722 21.9293C38.6062 22.1266 38.3005 22.4324 38.1722 22.3534C34.5852 20.6858 30.677 19.8217 26.7213 19.8217C22.7655 19.8217 18.8574 20.6858 15.2703 22.3534C15.2471 22.3629 15.2221 22.3677 15.1969 22.3673C15.1719 22.367 15.147 22.3615 15.1241 22.3514C15.101 22.3413 15.0803 22.3267 15.0631 22.3084C15.0458 22.2901 15.0324 22.2685 15.0238 22.245C15.0024 22.2042 14.9976 22.1568 15.0104 22.1126C15.0234 22.0685 15.0529 22.031 15.0928 22.0082L15.221 21.9293L15.1421 21.7715L15.3591 20.8444ZM19.8862 20.1639L21.632 18.9606L19.5213 18.7336L17.7755 19.937L19.8862 20.1639ZM37.0084 21.3277C37.1489 21.3277 37.2862 21.286 37.4029 21.208C37.5197 21.1299 37.6107 21.0191 37.6645 20.8893C37.7183 20.7595 37.7323 20.6168 37.7049 20.479C37.6775 20.3412 37.6099 20.2148 37.5105 20.1154C37.4112 20.0161 37.2847 19.9485 37.147 19.921C37.0092 19.8936 36.8664 19.9077 36.7366 19.9615C36.6069 20.0152 36.4959 20.1063 36.4179 20.223C36.3399 20.3398 36.2983 20.4771 36.2983 20.6176C36.2969 20.7112 36.3144 20.8041 36.3497 20.8909C36.3849 20.9776 36.437 21.0564 36.5033 21.1226C36.5695 21.1888 36.6483 21.2411 36.7351 21.2763C36.8218 21.3115 36.9148 21.329 37.0084 21.3277ZM23.1213 19.5029C22.9246 19.4991 22.7373 19.4177 22.6003 19.2766C22.4633 19.1353 22.3876 18.9459 22.3895 18.7491C22.3914 18.5523 22.4709 18.3643 22.6108 18.226C22.7505 18.0875 22.9393 18.0099 23.1361 18.0099C23.3329 18.0099 23.5216 18.0875 23.6614 18.226C23.8012 18.3643 23.8807 18.5523 23.8826 18.7491C23.8846 18.9459 23.8088 19.1353 23.6718 19.2766C23.5347 19.4177 23.3475 19.4991 23.1509 19.5029H23.1213ZM16.2961 21.3277C16.4365 21.3277 16.5738 21.286 16.6906 21.208C16.8074 21.1299 16.8984 21.0191 16.9522 20.8893C17.0059 20.7595 17.0199 20.6168 16.9926 20.479C16.9652 20.3412 16.8975 20.2148 16.7982 20.1154C16.6989 20.0161 16.5723 19.9485 16.4347 19.921C16.2969 19.8936 16.1541 19.9077 16.0243 19.9615C15.8946 20.0152 15.7836 20.1063 15.7056 20.223C15.6276 20.3398 15.5859 20.4771 15.5859 20.6176C15.5846 20.7112 15.602 20.8041 15.6373 20.8909C15.6725 20.9776 15.7247 21.0564 15.791 21.1226C15.8572 21.1888 15.936 21.2411 16.0228 21.2763C16.1095 21.3115 16.2025 21.329 16.2961 21.3277ZM30.1832 19.5029C29.9864 19.4991 29.7992 19.4177 29.6622 19.2766C29.5252 19.1353 29.4495 18.9459 29.4514 18.7491C29.4533 18.5523 29.5328 18.3643 29.6727 18.226C29.8125 18.0875 30.0012 18.0099 30.198 18.0099C30.3948 18.0099 30.5835 18.0875 30.7233 18.226C30.8632 18.3643 30.9427 18.5523 30.9446 18.7491C30.9465 18.9459 30.8708 19.1353 30.7338 19.2766C30.5967 19.4177 30.4095 19.4991 30.2128 19.5029H30.1832ZM33.4479 20.2131L35.5586 19.9863L33.8128 18.783L31.7021 19.0098L33.4479 20.2131ZM28.901 18.6548L26.6818 17.8263L24.4627 18.6548L26.6818 19.4833L28.901 18.6548ZM3.72073 46.6461C3.72466 52.6802 6.12499 58.4659 10.3939 62.7307C14.6629 66.9954 20.4509 69.3901 26.4851 69.3882C32.5193 69.3862 38.3057 66.9877 42.5718 62.7202C46.838 58.4527 49.2346 52.6654 49.2346 46.6313C49.2346 40.597 46.838 34.8098 42.5718 30.5422C38.3057 26.2747 32.5193 23.8762 26.4851 23.8743C20.4509 23.8724 14.6629 26.267 10.3939 30.5318C6.12499 34.7965 3.72466 40.5822 3.72073 46.6164V46.6461ZM52.1481 46.6461C52.1442 53.3557 49.4756 59.789 44.7291 64.5314C39.9825 69.2738 33.5468 71.9368 26.8372 71.9348C20.1276 71.9328 13.6933 69.2661 8.94963 64.5209C4.20588 59.7758 1.54102 53.3409 1.54102 46.6313C1.54102 39.9215 4.20588 33.4866 8.94963 28.7415C13.6933 23.9964 20.1276 21.3296 26.8372 21.3277C33.5468 21.3257 39.9825 23.9887 44.7291 28.7311C49.4756 33.4734 52.1442 39.9067 52.1481 46.6164V46.6461ZM23.3481 35.9052L26.6621 39.2783L29.769 36.0137C28.7052 35.708 27.6097 35.526 26.5043 35.4713C25.4387 35.4618 24.3769 35.5978 23.3481 35.8756V35.9052ZM32.0966 33.5281L37.0084 28.5178C40.2066 30.3226 42.8691 32.9429 44.7247 36.1119C46.5804 39.2807 47.5627 42.885 47.5717 46.5572C47.5829 51.389 45.8811 56.0683 42.7684 59.7639L40.4901 57.4954C43.0446 54.3885 44.7312 51.2915 44.7312 46.36C44.7011 43.5917 44.0332 40.8674 42.7794 38.3991C41.5255 35.9307 39.7195 33.7847 37.5016 32.1277L34.5427 35.0866C36.0106 36.112 37.2664 37.4114 38.2413 38.9133L36.0221 40.8268C35.1581 39.3574 33.9582 38.1136 32.5207 37.1973L26.6522 43.3124L20.6062 37.1085C19.0755 38.1006 17.8129 39.4549 16.9304 41.0515C16.0478 42.6479 15.5725 44.4373 15.5465 46.2614C15.438 51.3902 18.7816 54.9704 23.4369 56.5189V46.1824H30.5975V48.303H26.1985V51.0547H30.5284V53.4811H26.1985V56.9529C29.4139 57.1206 32.8265 55.2762 34.9076 53.0077L37.107 55.148C35.7463 56.6753 34.0736 57.8926 32.2019 58.7179C30.3302 59.5431 28.3031 59.957 26.2577 59.9314V63.1074H23.4862V59.5962C20.395 58.8939 17.6355 57.1589 15.6631 54.6773C13.6907 52.1957 12.6232 49.1157 12.6369 45.9457C12.6862 41.4383 15.1125 37.7299 18.6336 35.0965L15.6747 32.0389C13.4637 33.7052 11.6605 35.8523 10.4011 38.3179C9.14185 40.7835 8.4595 43.5032 8.40566 46.2713C8.35061 50.4231 9.88562 54.4388 12.6961 57.4954L10.7235 59.5765C7.53555 55.9824 5.78036 51.3417 5.79197 46.5376C5.80713 42.8828 6.78629 39.2968 8.6306 36.1416C10.4749 32.9864 13.119 30.3736 16.2961 28.5671L21.2276 33.6861C22.9695 33.0246 24.8185 32.6903 26.6818 32.6997C28.4728 32.7103 30.247 33.0445 31.9191 33.6861L32.0966 33.5281Z" fill="white"/>
<path d="M69.1617 37.4922V45.3826H76.3716C78.6499 45.3826 81.0565 44.7909 81.0565 41.3586C81.0565 37.7487 78.4626 37.4627 76.9239 37.4627L69.1617 37.4922ZM69.1617 48.1148V58.106H66.0352V34.7897H76.6872C80.4647 34.7897 84.2521 36.1114 84.2521 41.0626C84.3354 42.2056 84.077 43.3476 83.5098 44.3434C82.9425 45.3391 82.092 46.1437 81.0664 46.655C82.3782 47.2074 83.6998 47.7991 83.8182 51.0539L84.0154 55.295C84.0154 56.597 84.2127 57.0802 85.1694 57.6326V58.106H81.3919C81.012 56.1765 80.827 54.2138 80.8395 52.2474C80.8395 50.2748 80.4549 48.0753 76.7168 48.0753H69.1617V48.1148ZM89.7261 48.312H99.0664C98.9086 45.6589 97.8236 43.2129 94.3815 43.2129C93.0926 43.2844 91.883 43.8584 91.0125 44.8117C90.1421 45.7652 89.6802 47.0219 89.7261 48.312ZM98.9382 52.8194H101.75C101.403 54.6933 100.342 56.3593 98.7902 57.4648C97.4525 58.3631 95.8494 58.7804 94.2434 58.6485C89.519 58.6485 86.7278 55.0385 86.7278 50.1366C86.7278 44.85 89.233 40.6682 94.7858 40.6682C99.6384 40.6682 101.996 44.5641 101.996 50.6003H89.7162C89.7162 54.1411 91.3535 56.1926 94.5984 56.1926C95.6014 56.2234 96.5836 55.9033 97.3758 55.2875C98.168 54.6717 98.7206 53.7989 98.9382 52.8194ZM114.611 52.2572V49.4462C114.167 49.8012 113.457 50.0676 109.965 50.5213C108.585 50.7186 106.375 51.1427 106.375 53.2929C106.375 55.1471 107.302 56.2518 109.423 56.2518C112.037 56.2616 114.611 54.5455 114.611 52.2572ZM106.859 46.3394H104.274C104.403 42.2759 107.056 40.6879 111.179 40.6879C112.53 40.6879 117.392 41.0824 117.392 45.4222V55.1471C117.392 55.8671 117.747 56.1334 118.319 56.1334C118.631 56.1181 118.942 56.0752 119.247 56.0052V58.106C118.752 58.2919 118.234 58.4017 117.708 58.4315C115.213 58.4315 114.818 57.1296 114.749 55.8375C114.017 56.7303 113.091 57.4441 112.042 57.9244C110.992 58.4049 109.847 58.639 108.693 58.609C105.606 58.609 103.436 56.6364 103.436 53.6775C103.436 52.2474 103.86 48.9136 108.525 48.3415L113.181 47.7498C113.861 47.6808 114.66 47.4244 114.66 45.7772C114.66 44.1301 113.378 43.0057 110.715 43.0057C107.5 43.0156 107.036 44.9882 106.859 46.2704V46.3394ZM124.119 34.8194V58.106H121.308V34.7897L124.119 34.8194ZM151.518 58.106H147.021V47.6512C147.021 45.077 145.906 44.2386 144.585 44.2386C142.346 44.2386 141.557 45.7378 141.557 47.7794V58.1553H137.059V47.7597C137.059 46.3 137.059 44.2485 134.367 44.2485C132.256 44.2485 131.585 45.7476 131.585 47.6315V58.1652H127.088V40.8457H131.388V43.3805C131.831 42.4599 132.535 41.6893 133.411 41.1635C134.287 40.6378 135.298 40.3799 136.319 40.4216C138.785 40.4216 139.91 41.3389 141.063 43.1931C141.509 42.3708 142.164 41.6811 142.963 41.1944C143.762 40.7075 144.675 40.441 145.61 40.4216C148.944 40.4216 151.528 42.3942 151.528 46.2211V58.106H151.518ZM163.758 51.8923V49.6928C162.832 50.253 161.781 50.5717 160.701 50.6199C159.034 50.9059 157.653 51.3399 157.653 53.2139C157.637 53.4913 157.68 53.7689 157.779 54.0285C157.878 54.2882 158.031 54.524 158.227 54.7204C158.423 54.9169 158.659 55.0697 158.919 55.1687C159.179 55.2677 159.456 55.3107 159.734 55.295C161.736 55.3444 163.758 54.0424 163.758 51.9318V51.8923ZM168.157 45.363V54.7329C168.157 56.7745 168.601 57.2381 169.143 57.4353V58.106H164.291C164.059 57.4472 163.917 56.7606 163.867 56.0644C163.197 56.8748 162.352 57.5217 161.394 57.9559C160.437 58.3901 159.394 58.5998 158.343 58.5695C155.769 58.5695 153.136 57.0999 153.136 53.5196C153.136 50.1366 155.256 48.4205 158.117 47.9964L162.16 47.375C162.871 47.2863 163.739 46.9805 163.739 46.0139C163.739 44.1005 161.943 44.0413 160.78 44.0413C160.437 43.995 160.088 44.0222 159.758 44.1213C159.426 44.2205 159.121 44.3891 158.86 44.6161C158.6 44.8429 158.391 45.1228 158.247 45.4371C158.104 45.7513 158.029 46.0926 158.028 46.438H153.688C154.201 41.1415 157.831 40.3919 161.332 40.3919C163.758 40.3525 168.187 41.1318 168.187 45.4024L168.157 45.363ZM174.44 49.5843C174.44 51.6259 175.239 54.8215 178.139 54.8215C181.038 54.8215 182.084 52.4248 182.084 49.89C182.084 47.1382 181.314 44.3274 178.227 44.3274C175.407 44.2978 174.44 46.8918 174.44 49.6238V49.5843ZM186.433 34.7897V58.106H181.995V55.9262C181.482 56.768 180.756 57.4588 179.889 57.9284C179.023 58.3979 178.048 58.6294 177.063 58.5992C172.004 58.5992 169.893 54.0523 169.893 49.2983C169.893 43.3213 173.207 40.4216 176.965 40.4216C177.954 40.3838 178.935 40.6152 179.803 41.0911C180.672 41.567 181.395 42.2697 181.896 43.1241L181.965 34.8392H186.463L186.433 34.7897ZM189.096 40.8457H193.397V43.8046C194.383 42.049 195.369 40.3526 198.141 40.3526C198.431 40.3558 198.721 40.3789 199.009 40.4216V45.0671C198.584 45.0106 198.155 44.9874 197.727 44.9981C194.225 44.9981 193.584 47.1975 193.584 49.1208V58.106H189.087V40.8457H189.096ZM204.877 40.8457V58.106H200.38V40.8457H204.877ZM204.877 34.563V38.8041H200.38V34.563H204.877Z" fill="white"/>
<path d="M211.396 49.5846C211.396 51.6262 212.195 54.8218 215.095 54.8218C217.995 54.8218 219.04 52.4251 219.04 49.8903C219.04 47.1385 218.271 44.3277 215.184 44.3277C212.363 44.2981 211.396 46.8921 211.396 49.6241V49.5846ZM223.39 34.79V58.1063H218.952V55.9265C218.44 56.7683 217.713 57.4591 216.847 57.9287C215.981 58.3982 215.005 58.6296 214.02 58.5995C208.96 58.5995 206.85 54.0526 206.85 49.2986C206.85 43.3216 210.164 40.4219 213.921 40.4219C214.912 40.3841 215.892 40.6155 216.761 41.0914C217.629 41.5673 218.353 42.27 218.853 43.1243L218.922 34.8395H223.419L223.39 34.79Z" fill="white"/>
</g>
<defs>
<clipPath id="clip0_649_15546">
<rect width="221.918" height="72" fill="white" transform="translate(1.54102)"/>
</clipPath>
</defs>
</svg>