<svg width="171" height="35" viewBox="0 0 171 35" fill="none" xmlns="http://www.w3.org/2000/svg">
    <path d="M15.6468 5.38469C16.3221 3.72082 18.6779 3.72083 19.3532 5.38469L21.4583 10.5717C21.745 11.2781 22.4084 11.7601 23.1689 11.8145L28.7525 12.2136C30.5436 12.3417 31.2716 14.5823 29.8978 15.7386L25.6152 19.3435C25.0319 19.8345 24.7785 20.6144 24.9618 21.3545L26.3076 26.7881C26.7393 28.5311 24.8334 29.9159 23.3091 28.9667L18.5572 26.0077C17.91 25.6047 17.09 25.6047 16.4428 26.0077L11.6909 28.9667C10.1666 29.9159 8.26071 28.5311 8.6924 26.7881L10.0382 21.3545C10.2215 20.6144 9.96807 19.8345 9.3848 19.3435L5.10221 15.7386C3.72844 14.5823 4.45645 12.3417 6.24755 12.2136L11.8312 11.8145C12.5916 11.7601 13.255 11.2781 13.5417 10.5717L15.6468 5.38469Z" fill="#F65A34"/>
    <path d="M49.6468 5.38469C50.3221 3.72082 52.6779 3.72083 53.3532 5.38469L55.4583 10.5717C55.745 11.2781 56.4084 11.7601 57.1689 11.8145L62.7525 12.2136C64.5436 12.3417 65.2716 14.5823 63.8978 15.7386L59.6152 19.3435C59.0319 19.8345 58.7785 20.6144 58.9618 21.3545L60.3076 26.7881C60.7393 28.5311 58.8334 29.9159 57.3091 28.9667L52.5572 26.0077C51.91 25.6047 51.09 25.6047 50.4428 26.0077L45.6909 28.9667C44.1666 29.9159 42.2607 28.5311 42.6924 26.7881L44.0382 21.3545C44.2215 20.6144 43.9681 19.8345 43.3848 19.3435L39.1022 15.7386C37.7284 14.5823 38.4565 12.3417 40.2475 12.2136L45.8312 11.8145C46.5916 11.7601 47.255 11.2781 47.5417 10.5717L49.6468 5.38469Z" fill="#F65A34"/>
    <path d="M83.6468 5.38469C84.3221 3.72082 86.6779 3.72083 87.3532 5.38469L89.4583 10.5717C89.745 11.2781 90.4084 11.7601 91.1689 11.8145L96.7525 12.2136C98.5436 12.3417 99.2716 14.5823 97.8978 15.7386L93.6152 19.3435C93.0319 19.8345 92.7785 20.6144 92.9618 21.3545L94.3076 26.7881C94.7393 28.5311 92.8334 29.9159 91.3091 28.9667L86.5572 26.0077C85.91 25.6047 85.09 25.6047 84.4428 26.0077L79.6909 28.9667C78.1666 29.9159 76.2607 28.5311 76.6924 26.7881L78.0382 21.3545C78.2215 20.6144 77.9681 19.8345 77.3848 19.3435L73.1022 15.7386C71.7284 14.5823 72.4565 12.3417 74.2475 12.2136L79.8312 11.8145C80.5916 11.7601 81.255 11.2781 81.5417 10.5717L83.6468 5.38469Z" fill="#F65A34"/>
    <path d="M117.647 5.38469C118.322 3.72082 120.678 3.72083 121.353 5.38469L123.458 10.5717C123.745 11.2781 124.408 11.7601 125.169 11.8145L130.752 12.2136C132.544 12.3417 133.272 14.5823 131.898 15.7386L127.615 19.3435C127.032 19.8345 126.779 20.6144 126.962 21.3545L128.308 26.7881C128.739 28.5311 126.833 29.9159 125.309 28.9667L120.557 26.0077C119.91 25.6047 119.09 25.6047 118.443 26.0077L113.691 28.9667C112.167 29.9159 110.261 28.5311 110.692 26.7881L112.038 21.3545C112.221 20.6144 111.968 19.8345 111.385 19.3435L107.102 15.7386C105.728 14.5823 106.456 12.3417 108.248 12.2136L113.831 11.8145C114.592 11.7601 115.255 11.2781 115.542 10.5717L117.647 5.38469Z" fill="#F65A34"/>
    <path d="M151.647 5.38469C152.322 3.72082 154.678 3.72083 155.353 5.38469L157.458 10.5717C157.745 11.2781 158.408 11.7601 159.169 11.8145L164.752 12.2136C166.544 12.3417 167.272 14.5823 165.898 15.7386L161.615 19.3435C161.032 19.8345 160.779 20.6144 160.962 21.3545L162.308 26.7881C162.739 28.5311 160.833 29.9159 159.309 28.9667L154.557 26.0077C153.91 25.6047 153.09 25.6047 152.443 26.0077L147.691 28.9667C146.167 29.9159 144.261 28.5311 144.692 26.7881L146.038 21.3545C146.221 20.6144 145.968 19.8345 145.385 19.3435L141.102 15.7386C139.728 14.5823 140.456 12.3417 142.248 12.2136L147.831 11.8145C148.592 11.7601 149.255 11.2781 149.542 10.5717L151.647 5.38469Z" fill="#F65A34"/>
</svg>